SplineFontDB: 2.0
FontName: THKodchasal-Italic
FullName: THKodchasal-Italic
FamilyName: TH Kodchasal
Weight: Book
Copyright: Copyright (c) 2006 by Department of Intellectual Property (DIP), Ministry of Commerce and Software Industry Promotion Agency (Public Organization) (SIPA). All rights reserved.
Version: 1.1
ItalicAngle: -12
UnderlinePosition: -35
UnderlineWidth: 30
Ascent: 800
Descent: 200
Order2: 1
XUID: [1021 375 425136265 7891865]
FSType: 0
OS2Version: 3
OS2_WeightWidthSlopeOnly: 0
OS2_UseTypoMetrics: 1
CreationTime: 1157456700
ModificationTime: 1196157362
PfmFamily: 17
TTFWeight: 400
TTFWidth: 5
LineGap: 30
VLineGap: 0
Panose: 2 0 5 6 0 0 0 2 0 4
OS2TypoAscent: 0
OS2TypoAOffset: 1
OS2TypoDescent: 0
OS2TypoDOffset: 1
OS2TypoLinegap: 0
OS2WinAscent: 10
OS2WinAOffset: 1
OS2WinDescent: 4
OS2WinDOffset: 1
HheadAscent: -45
HheadAOffset: 1
HheadDescent: 261
HheadDOffset: 1
OS2SubXSize: 700
OS2SubYSize: 650
OS2SubXOff: 0
OS2SubYOff: 140
OS2SupXSize: 700
OS2SupYSize: 650
OS2SupXOff: 0
OS2SupYOff: 477
OS2StrikeYSize: 30
OS2StrikeYPos: 250
OS2FamilyClass: 773
OS2Vendor: 'IPTH'
Lookup: 4 0 0 "'frac' Diagonal Fractions in Latin lookup 0"  {"'frac' Diagonal Fractions in Latin lookup 0 subtable"  } ['frac' ('latn' <'dflt' > ) ]
Lookup: 6 0 0 "'liga' Standard Ligatures in Latin lookup 1"  {"'liga' Standard Ligatures in Latin lookup 1 subtable"  } ['liga' ('latn' <'dflt' > ) ]
Lookup: 6 0 0 "'liga' Standard Ligatures in Latin lookup 2"  {"'liga' Standard Ligatures in Latin lookup 2 subtable"  } ['liga' ('latn' <'dflt' > ) ]
Lookup: 6 0 0 "'liga' Standard Ligatures in Latin lookup 3"  {"'liga' Standard Ligatures in Latin lookup 3 subtable"  } ['liga' ('latn' <'dflt' > ) ]
Lookup: 6 0 0 "'liga' Standard Ligatures in Latin lookup 4"  {"'liga' Standard Ligatures in Latin lookup 4 subtable"  } ['liga' ('latn' <'dflt' > ) ]
Lookup: 6 0 0 "'liga' Standard Ligatures in Latin lookup 5"  {"'liga' Standard Ligatures in Latin lookup 5 subtable"  } ['liga' ('latn' <'dflt' > ) ]

StartChar: .notdef
Encoding: 65536 -1 0
Width: 736
VWidth: 1473
Flags: W
HStem: 0 52<153 603> 972 52<349 798>
Fore
603 52 m 1,0,-1
 798 972 l 1,1,-1
 349 972 l 1,2,-1
 153 52 l 1,3,-1
 603 52 l 1,0,-1
642 0 m 1,4,-1
 93 0 l 1,5,-1
 309 1024 l 1,6,-1
 859 1024 l 1,7,-1
 642 0 l 1,4,-1
EndSplineSet
EndChar
StartChar: numbersign
Encoding: 35 35 4
Width: 674
VWidth: 1473
Flags: W
HStem: 0 21G<165.5 194.5 372 399> 221 56<135.385 237 314 443 520 610.861> 461 56<228.993 331 408 536 614 704.064>
Fore
707 488 m 0,0,1
 695 461 695 461 657 461 c 2,2,-1
 592 461 l 1,3,-1
 520 277 l 1,4,-1
 585 277 l 2,5,6
 625 277 625 277 613 247 c 0,7,8
 603 221 603 221 563 221 c 2,9,-1
 498 221 l 1,10,-1
 427 38 l 2,11,12
 412 0 412 0 386 0 c 0,13,14
 358 0 358 0 373 38 c 2,15,-1
 443 221 l 1,16,-1
 293 221 l 1,17,-1
 222 38 l 2,18,19
 208 0 208 0 181 0 c 0,20,21
 150 0 150 0 168 38 c 2,22,-1
 237 221 l 1,23,-1
 161 221 l 2,24,25
 121 221 121 221 131 247 c 0,26,27
 143 277 143 277 181 277 c 2,28,-1
 259 277 l 1,29,-1
 331 461 l 1,30,-1
 253 461 l 2,31,32
 214 461 214 461 225 488 c 0,33,34
 237 517 237 517 275 517 c 2,35,-1
 354 517 l 1,36,-1
 415 675 l 2,37,38
 430 715 430 715 460 715 c 0,39,40
 485 715 485 715 470 675 c 2,41,-1
 408 517 l 1,42,-1
 558 517 l 1,43,-1
 620 675 l 2,44,45
 635 715 635 715 664 715 c 0,46,47
 691 715 691 715 676 675 c 2,48,-1
 614 517 l 1,49,-1
 678 517 l 2,50,51
 719 517 719 517 707 488 c 0,0,1
387 461 m 1,52,-1
 314 277 l 1,53,-1
 464 277 l 1,54,-1
 536 461 l 1,55,-1
 387 461 l 1,52,-1
EndSplineSet
EndChar
StartChar: dollar
Encoding: 36 36 5
Width: 623
VWidth: 1473
Flags: W
HStem: -6 59<196.718 281 349 389.375> 330 57<301.515 352 420 502.715> 661 59<349.156 423 491 583.477>
Fore
638 199 m 0,0,1
 622 124 622 124 557 69 c 0,2,3
 516 35 516 35 460 16 c 128,-1,4
 404 -3 404 -3 337 -6 c 1,5,-1
 329 -47 l 2,6,7
 320 -87 320 -87 293 -87 c 0,8,9
 264 -87 264 -87 273 -47 c 2,10,-1
 281 -6 l 1,11,12
 199 1 199 1 140.5 33.5 c 128,-1,13
 82 66 82 66 63 118 c 1,14,15
 57 128 57 128 63 139 c 128,-1,16
 69 150 69 150 81 158 c 0,17,18
 93 164 93 164 104 161 c 128,-1,19
 115 158 115 158 118 147 c 0,20,21
 133 109 133 109 180 83 c 128,-1,22
 227 57 227 57 293 53 c 1,23,-1
 352 330 l 1,24,25
 308 334 308 334 266 345.5 c 128,-1,26
 224 357 224 357 193 379 c 128,-1,27
 162 401 162 401 147.5 434 c 128,-1,28
 133 467 133 467 143 514 c 0,29,30
 162 604 162 604 239.5 658 c 128,-1,31
 317 712 317 712 435 719 c 1,32,-1
 445 765 l 2,33,34
 454 804 454 804 483 804 c 0,35,36
 510 804 510 804 501 765 c 2,37,-1
 491 720 l 1,38,39
 576 716 576 716 637 683 c 128,-1,40
 698 650 698 650 719 597 c 0,41,42
 723 586 723 586 717.5 575 c 128,-1,43
 712 564 712 564 700 557 c 0,44,45
 688 551 688 551 677 554 c 128,-1,46
 666 557 666 557 661 567 c 0,47,48
 647 607 647 607 597.5 633 c 128,-1,49
 548 659 548 659 479 661 c 1,50,-1
 420 385 l 1,51,52
 488 382 488 382 538 362 c 128,-1,53
 588 342 588 342 614 308 c 0,54,55
 651 259 651 259 638 199 c 0,0,1
423 661 m 1,56,57
 385 659 385 659 348 649 c 128,-1,58
 311 639 311 639 280.5 622 c 128,-1,59
 250 605 250 605 229 578.5 c 128,-1,60
 208 552 208 552 200 514 c 0,61,62
 193 480 193 480 206.5 457.5 c 128,-1,63
 220 435 220 435 244 421 c 128,-1,64
 268 407 268 407 300.5 399.5 c 128,-1,65
 333 392 333 392 364 387 c 1,66,-1
 423 661 l 1,56,57
580 199 m 0,67,68
 589 237 589 237 566 267 c 0,69,70
 545 293 545 293 504 308.5 c 128,-1,71
 463 324 463 324 408 327 c 1,72,-1
 349 52 l 1,73,74
 387 53 387 53 425 62.5 c 128,-1,75
 463 72 463 72 495 90 c 128,-1,76
 527 108 527 108 550 134.5 c 128,-1,77
 573 161 573 161 580 199 c 0,67,68
EndSplineSet
EndChar
StartChar: percent
Encoding: 37 37 6
Width: 593
VWidth: 1473
Flags: W
HStem: 0 43<375.696 472.493> 221 44<424.996 520.767> 486 44<228.748 325.206> 709 42<277.795 374.062>
Fore
435 619 m 0,0,1
 429 592 429 592 413.5 568 c 128,-1,2
 398 544 398 544 376 525.5 c 128,-1,3
 354 507 354 507 328 496.5 c 128,-1,4
 302 486 302 486 274 486 c 0,5,6
 218 486 218 486 188 525 c 128,-1,7
 158 564 158 564 169 619 c 0,8,9
 175 647 175 647 190.5 671 c 128,-1,10
 206 695 206 695 227.5 713 c 128,-1,11
 249 731 249 731 275.5 741 c 128,-1,12
 302 751 302 751 330 751 c 0,13,14
 386 751 386 751 416 713 c 128,-1,15
 446 675 446 675 435 619 c 0,0,1
94 9 m 2,16,17
 77 -12 77 -12 59 1 c 0,18,19
 52 7 52 7 51 17 c 128,-1,20
 50 27 50 27 57 35 c 2,21,-1
 647 742 l 2,22,23
 654 751 654 751 664.5 753.5 c 128,-1,24
 675 756 675 756 682 750 c 256,25,26
 689 744 689 744 690 734.5 c 128,-1,27
 691 725 691 725 684 716 c 2,28,-1
 94 9 l 2,16,17
582 133 m 0,29,30
 576 105 576 105 560.5 80.5 c 128,-1,31
 545 56 545 56 523 38.5 c 128,-1,32
 501 21 501 21 475 10.5 c 128,-1,33
 449 0 449 0 421 0 c 0,34,35
 365 0 365 0 335 38.5 c 128,-1,36
 305 77 305 77 317 133 c 0,37,38
 323 159 323 159 338.5 183.5 c 128,-1,39
 354 208 354 208 375 226.5 c 128,-1,40
 396 245 396 245 422.5 255 c 128,-1,41
 449 265 449 265 477 265 c 256,42,43
 505 265 505 265 526.5 255 c 128,-1,44
 548 245 548 245 562.5 226.5 c 128,-1,45
 577 208 577 208 582.5 183.5 c 128,-1,46
 588 159 588 159 582 133 c 0,29,30
390 619 m 0,47,48
 398 657 398 657 378 683 c 128,-1,49
 358 709 358 709 321 709 c 0,50,51
 283 709 283 709 251.5 683 c 128,-1,52
 220 657 220 657 212 619 c 0,53,54
 205 582 205 582 225 556 c 128,-1,55
 245 530 245 530 283 530 c 0,56,57
 320 530 320 530 351.5 556 c 128,-1,58
 383 582 383 582 390 619 c 0,47,48
538 133 m 0,59,60
 545 169 545 169 524.5 195 c 128,-1,61
 504 221 504 221 467 221 c 256,62,63
 430 221 430 221 399 195 c 128,-1,64
 368 169 368 169 361 133 c 0,65,66
 352 94 352 94 372.5 68.5 c 128,-1,67
 393 43 393 43 430 43 c 256,68,69
 467 43 467 43 498 68.5 c 128,-1,70
 529 94 529 94 538 133 c 0,59,60
EndSplineSet
EndChar
StartChar: ampersand
Encoding: 38 38 7
Width: 769
VWidth: 1473
Flags: W
HStem: -7 21G<235 316> 709 51<482.681 571.833>
VStem: 679 62<339.327 385>
Fore
722 28 m 0,0,1
 719 19 719 19 704 10 c 0,2,3
 685 -1 685 -1 672.5 6 c 128,-1,4
 660 13 660 13 656 21 c 0,5,6
 654 22 654 22 644.5 34.5 c 128,-1,7
 635 47 635 47 623 62.5 c 128,-1,8
 611 78 611 78 599.5 93 c 128,-1,9
 588 108 588 108 583 113 c 1,10,11
 560.5 94 l 2,12,13
 538 75 538 75 498 53 c 128,-1,14
 458 31 458 31 403 12 c 128,-1,15
 348 -7 348 -7 284 -7 c 0,16,17
 186 -7 186 -7 136 56 c 0,18,19
 87 115 87 115 106 205 c 0,20,21
 118 261 118 261 153.5 306 c 128,-1,22
 189 351 189 351 228.5 382.5 c 128,-1,23
 268 414 268 414 303.5 433 c 128,-1,24
 339 452 339 452 351 457 c 1,25,26
 345 466 345 466 335.5 480 c 128,-1,27
 326 494 326 494 317.5 513 c 128,-1,28
 309 532 309 532 305 554.5 c 128,-1,29
 301 577 301 577 303 603 c 0,30,31
 308 638 308 638 331 667.5 c 128,-1,32
 354 697 354 697 384.5 717.5 c 128,-1,33
 415 738 415 738 452 749 c 128,-1,34
 489 760 489 760 523 760 c 0,35,36
 558 760 558 760 587 751 c 128,-1,37
 616 742 616 742 636 724.5 c 128,-1,38
 656 707 656 707 664.5 680.5 c 128,-1,39
 673 654 673 654 666 619 c 0,40,41
 656 576 656 576 625 543 c 128,-1,42
 594 510 594 510 538 482 c 0,43,44
 498 461 498 461 478 451.5 c 128,-1,45
 458 442 458 442 448 438 c 1,46,47
 452 429 452 429 469 404 c 128,-1,48
 486 379 486 379 508 347 c 128,-1,49
 530 315 530 315 554.5 279 c 128,-1,50
 579 243 579 243 600 212 c 1,51,52
 605 218 605 218 616.5 239.5 c 128,-1,53
 628 261 628 261 640.5 286.5 c 128,-1,54
 653 312 653 312 664 338.5 c 128,-1,55
 675 365 675 365 679 385 c 0,56,57
 685 402 685 402 698.5 411.5 c 128,-1,58
 712 421 712 421 729 415 c 0,59,60
 751 408 751 408 741 379 c 0,61,62
 728 339 728 339 711 303 c 128,-1,63
 694 267 694 267 677.5 238 c 128,-1,64
 661 209 661 209 648.5 190 c 128,-1,65
 636 171 636 171 632 165 c 1,66,67
 632 166 632 166 639.5 156.5 c 128,-1,68
 647 147 647 147 659.5 131 c 128,-1,69
 672 115 672 115 679.5 104.5 c 0,70,-1
 716 53 l 0,71,72
 726 38 726 38 722 28 c 0,0,1
410 477 m 1,73,74
 427 485 427 485 459.5 499 c 128,-1,75
 492 513 492 513 524.5 532 c 128,-1,76
 557 551 557 551 582 573 c 128,-1,77
 607 595 607 595 608 620 c 0,78,79
 611 654 611 654 588.5 681.5 c 128,-1,80
 566 709 566 709 511 709 c 0,81,82
 492 709 492 709 467.5 702 c 128,-1,83
 443 695 443 695 421 682.5 c 128,-1,84
 399 670 399 670 383.5 651.5 c 128,-1,85
 368 633 368 633 365 611 c 0,86,87
 361 589 361 589 366 567 c 128,-1,88
 371 545 371 545 380 526.5 c 128,-1,89
 389 508 389 508 398 495 c 128,-1,90
 407 482 407 482 410 477 c 1,73,74
533 190 m 2,91,92
 517 215 517 215 483 266.5 c 128,-1,93
 449 318 449 318 385 415 c 1,94,95
 376 411 376 411 345 395.5 c 128,-1,96
 314 380 314 380 278.5 355.5 c 128,-1,97
 243 331 243 331 211.5 298 c 128,-1,98
 180 265 180 265 168 224 c 0,99,100
 147 150 147 150 180 105 c 0,101,102
 205 71 205 71 252 59 c 128,-1,103
 299 47 299 47 353.5 55 c 128,-1,104
 408 63 408 63 462 89 c 128,-1,105
 516 115 516 115 554 158 c 1,106,-1
 533 190 l 2,91,92
EndSplineSet
EndChar
StartChar: quotesingle
Encoding: 39 39 8
Width: 197
VWidth: 1473
Flags: W
HStem: 474 248<194 246>
VStem: 172 93<514 684 514 514>
Fore
231 514 m 1,0,1
 228 495 228 495 220 485.5 c 128,-1,2
 212 476 212 476 194 474 c 0,3,4
 164 474 164 474 172 514 c 2,5,-1
 208 684 l 2,6,7
 214 722 214 722 246 722 c 0,8,9
 273 722 273 722 265 684 c 2,10,-1
 231 514 l 1,0,1
EndSplineSet
EndChar
StartChar: parenleft
Encoding: 40 40 9
Width: 294
VWidth: 1473
Flags: W
VStem: 122 51<-161 -126.055 -123.931 -123.704 -123.704 -62.3999 -62.3999 44.9841>
Fore
175 -140 m 0,0,1
 178 -152 178 -152 171.5 -162 c 128,-1,2
 165 -172 165 -172 153 -177 c 256,3,4
 141 -181 141 -181 132.5 -176.5 c 128,-1,5
 124 -172 124 -172 122 -161 c 0,6,7
 122 -159 122 -159 119 -125 c 128,-1,8
 116 -91 116 -91 117 -31.5 c 128,-1,9
 118 28 118 28 126 110.5 c 128,-1,10
 134 193 134 193 155 292 c 256,11,12
 175 390 175 390 202.5 472.5 c 128,-1,13
 230 555 230 555 254 614 c 128,-1,14
 278 673 278 673 296 706.5 c 128,-1,15
 314 740 314 740 315 742 c 0,16,17
 321 754 321 754 332 758.5 c 128,-1,18
 343 763 343 763 352 759 c 0,19,20
 362 754 362 754 364.5 744 c 128,-1,21
 367 734 367 734 359 722 c 2,22,23
 343 690.5 l 2,24,25
 327 659 327 659 303.5 602 c 128,-1,26
 280 545 280 545 254 465.5 c 128,-1,27
 228 386 228 386 209 292 c 0,28,29
 189 197 189 197 181.5 118.5 c 128,-1,30
 174 40 174 40 172.5 -17.5 c 128,-1,31
 171 -75 171 -75 173 -106.5 c 128,-1,32
 175 -138 175 -138 175 -140 c 0,0,1
EndSplineSet
EndChar
StartChar: parenright
Encoding: 41 41 10
Width: 294
VWidth: 1473
Flags: W
VStem: 245.5 56<535.653 602 614 646.158 646.158 705.447 707.539 742>
Fore
264 292 m 256,0,1
 243 193 243 193 216 110.5 c 128,-1,2
 189 28 189 28 164.5 -31.5 c 128,-1,3
 140 -91 140 -91 122.5 -125 c 128,-1,4
 105 -159 105 -159 103 -161 c 0,5,6
 96 -172 96 -172 85.5 -176.5 c 128,-1,7
 75 -181 75 -181 65 -177 c 0,8,9
 56 -172 56 -172 53 -162 c 128,-1,10
 50 -152 50 -152 57 -140 c 2,11,12
 74 -107.5 l 2,13,14
 91 -75 91 -75 114 -17.5 c 128,-1,15
 137 40 137 40 163.5 118.5 c 128,-1,16
 190 197 190 197 211 292 c 0,17,18
 230 386 230 386 237.5 465.5 c 128,-1,19
 245 545 245 545 245.5 602 c 128,-1,20
 246 659 246 659 244 689.5 c 128,-1,21
 242 720 242 720 242 722 c 0,22,23
 239 734 239 734 245.5 744 c 128,-1,24
 252 754 252 754 264 759 c 256,25,26
 275 763 275 763 284 758.5 c 128,-1,27
 293 754 293 754 296 742 c 1,28,29
 296 740 296 740 299 706.5 c 128,-1,30
 302 673 302 673 301.5 614 c 128,-1,31
 301 555 301 555 292.5 472.5 c 128,-1,32
 284 390 284 390 264 292 c 256,0,1
EndSplineSet
EndChar
StartChar: asterisk
Encoding: 42 42 11
Width: 674
VWidth: 1473
Flags: W
HStem: 314 430<404 495 865.986 907.209>
VStem: 247 406<405 653 775.986 817.209>
Fore
608 424 m 1,0,1
 608 415 608 415 600 407 c 128,-1,2
 592 399 592 399 582.5 395.5 c 128,-1,3
 573 392 573 392 566 398 c 0,4,5
 550 411 550 411 537 423.5 c 128,-1,6
 524 436 524 436 512.5 449.5 c 128,-1,7
 501 463 501 463 487.5 477 c 128,-1,8
 474 491 474 491 455 508 c 1,9,10
 451 480 451 480 448.5 458 c 128,-1,11
 446 436 446 436 445 426.5 c 0,12,13
 441 388 l 0,14,15
 438 359 438 359 433 336 c 0,16,17
 430 327 430 327 421 320.5 c 128,-1,18
 412 314 412 314 404 314 c 128,-1,19
 396 314 396 314 388 320.5 c 128,-1,20
 380 327 380 327 383 336 c 0,21,22
 393 382 393 382 407 417 c 128,-1,23
 421 452 421 452 436 508 c 1,24,25
 410 492 410 492 390 478 c 128,-1,26
 370 464 370 464 361 457.5 c 0,27,-1
 325.5 431 l 0,28,29
 299 411 299 411 277 398 c 0,30,31
 270 392 270 392 260 395 c 128,-1,32
 250 398 250 398 247 405 c 0,33,34
 237 424 237 424 258 438 c 0,35,36
 280 451 280 451 290 456 c 0,37,-1
 329.5 476.5 l 0,38,39
 359 492 359 492 381.5 503 c 128,-1,40
 404 514 404 514 432 529 c 1,41,42
 410 544 410 544 393 555 c 128,-1,43
 376 566 376 566 359.5 576 c 128,-1,44
 343 586 343 586 328.5 596.5 c 128,-1,45
 314 607 314 607 296 620 c 0,46,47
 289 626 289 626 291 635.5 c 128,-1,48
 293 645 293 645 301 653 c 1,49,50
 305 659 305 659 317 663 c 128,-1,51
 329 667 329 667 333 661 c 1,52,53
 351 648 351 648 356.5 641.5 c 0,54,-1
 380 615 l 0,55,56
 398 595 398 595 411 581 c 128,-1,57
 424 567 424 567 445 550 c 1,58,59
 449 577 449 577 451.5 599.5 c 128,-1,60
 454 622 454 622 455.5 641 c 128,-1,61
 457 660 457 660 459 680 c 128,-1,62
 461 700 461 700 466 723 c 0,63,64
 468 732 468 732 477 738 c 128,-1,65
 486 744 486 744 495 744 c 0,66,67
 505 744 505 744 512 738 c 128,-1,68
 519 732 519 732 516 723 c 0,69,70
 505 676 505 676 492 640.5 c 128,-1,71
 479 605 479 605 464 550 c 1,72,73
 491 567 491 567 510.5 581 c 128,-1,74
 530 595 530 595 547 608.5 c 128,-1,75
 564 622 564 622 582 634.5 c 128,-1,76
 600 647 600 647 622 660 c 0,77,78
 631 666 631 666 639.5 663 c 128,-1,79
 648 660 648 660 653 653 c 1,80,81
 660 635 660 635 642 619 c 1,82,83
 619 605 619 605 609 600.5 c 0,84,-1
 569 581.5 l 0,85,86
 539 567 539 567 517.5 555.5 c 128,-1,87
 496 544 496 544 468 529 c 1,88,89
 510 498 510 498 540 482.5 c 128,-1,90
 570 467 570 467 604 439 c 1,91,-1
 608 424 l 1,0,1
EndSplineSet
EndChar
StartChar: plus
Encoding: 43 43 12
Width: 606
VWidth: 1473
Flags: W
HStem: 224 56<135.719 323 390 576.283>
VStem: 134 445<228.078 276.513 253 253 253 253>
Fore
579 253 m 0,0,1
 572 224 572 224 533 224 c 2,2,-1
 379 224 l 1,3,-1
 345 65 l 2,4,5
 336 25 336 25 309 25 c 0,6,7
 280 25 280 25 289 65 c 2,8,-1
 323 224 l 1,9,-1
 168 224 l 2,10,11
 127 224 127 224 134 253 c 0,12,13
 140 280 140 280 180 280 c 2,14,-1
 334 280 l 1,15,-1
 368 443 l 2,16,17
 377 483 377 483 407 483 c 0,18,19
 433 483 433 483 424 443 c 2,20,-1
 390 280 l 1,21,-1
 545 280 l 2,22,23
 585 280 585 280 579 253 c 0,0,1
EndSplineSet
EndChar
StartChar: comma
Encoding: 44 44 13
Width: 293
VWidth: 1473
Flags: W
HStem: -108 221<70.5 143 143 143>
VStem: 55.5 171.5<-85.5 60 -85.5 -85.5>
Fore
91 52 m 0,0,1
 96 72 96 72 110.5 89 c 128,-1,2
 125 106 125 106 143 113 c 0,3,4
 177 127 177 127 203.5 110.5 c 128,-1,5
 230 94 230 94 227 60 c 0,6,7
 227 32 227 32 214.5 5.5 c 128,-1,8
 202 -21 202 -21 183 -43.5 c 128,-1,9
 164 -66 164 -66 141 -83 c 128,-1,10
 118 -100 118 -100 97 -106 c 0,11,12
 81 -110 81 -110 70.5 -108 c 128,-1,13
 60 -106 60 -106 56 -100 c 128,-1,14
 52 -94 52 -94 55.5 -85.5 c 128,-1,15
 59 -77 59 -77 72 -69 c 0,16,17
 94 -60 94 -60 121.5 -45.5 c 128,-1,18
 149 -31 149 -31 165 0 c 1,19,20
 153 -6 153 -6 147 -6 c 0,21,22
 118 -9 118 -9 101.5 9 c 128,-1,23
 85 27 85 27 91 52 c 0,0,1
EndSplineSet
EndChar
StartChar: hyphen
Encoding: 45 45 14
Width: 515
VWidth: 1473
Flags: W
HStem: 225 56<138.234 482.969>
VStem: 136 349<228.616 277.384 253 253 253 253>
Fore
485 253 m 0,0,1
 479 225 479 225 439 225 c 2,2,-1
 169 225 l 2,3,4
 130 225 130 225 136 253 c 0,5,6
 143 281 143 281 181 281 c 2,7,-1
 451 281 l 2,8,9
 492 281 492 281 485 253 c 0,0,1
EndSplineSet
EndChar
StartChar: period
Encoding: 46 46 15
Width: 297
VWidth: 1473
Flags: W
HStem: 1 124<131.688 198.312>
VStem: 103 124<43.8282 111.11>
Fore
103 63 m 256,0,1
 109 88 109 88 131 106.5 c 128,-1,2
 153 125 153 125 178 125 c 256,3,4
 203 125 203 125 218 106.5 c 128,-1,5
 233 88 233 88 227 63 c 256,6,7
 221 38 221 38 199 19.5 c 128,-1,8
 177 1 177 1 152 1 c 256,9,10
 127 1 127 1 112 19.5 c 128,-1,11
 97 38 97 38 103 63 c 256,0,1
EndSplineSet
EndChar
StartChar: slash
Encoding: 47 47 16
Width: 484
VWidth: 1473
Flags: W
Fore
77 -75 m 2,0,1
 69 -84 69 -84 59 -87.5 c 128,-1,2
 49 -91 49 -91 41 -87 c 0,3,4
 32 -82 32 -82 30 -72.5 c 128,-1,5
 28 -63 28 -63 35 -55 c 2,6,-1
 535 698 l 2,7,8
 542 707 542 707 552.5 711 c 128,-1,9
 563 715 563 715 572 710 c 0,10,11
 579 706 579 706 581 696.5 c 128,-1,12
 583 687 583 687 576 678 c 2,13,-1
 77 -75 l 2,0,1
EndSplineSet
EndChar
StartChar: zero
Encoding: 48 48 17
Width: 658
VWidth: 1473
Flags: W
HStem: -3 63<249.648 441.21> 654 63<406.491 562.354>
VStem: 118.5 64<186.274 281.417> 628.5 63.5<359.341 532.283>
Fore
676 357 m 256,0,1
 660 281 660 281 632 215.5 c 128,-1,2
 604 150 604 150 561.5 101.5 c 128,-1,3
 519 53 519 53 461.5 25 c 128,-1,4
 404 -3 404 -3 329 -3 c 256,5,6
 253 -3 253 -3 207.5 25 c 128,-1,7
 162 53 162 53 140.5 101.5 c 128,-1,8
 119 150 119 150 118.5 215.5 c 128,-1,9
 118 281 118 281 134 357 c 0,10,11
 159 476 159 476 205.5 547.5 c 128,-1,12
 252 619 252 619 303 656.5 c 128,-1,13
 354 694 354 694 402.5 705.5 c 128,-1,14
 451 717 451 717 482 717 c 0,15,16
 557 717 557 717 602.5 689 c 128,-1,17
 648 661 648 661 670 612 c 128,-1,18
 692 563 692 563 692 497.5 c 128,-1,19
 692 432 692 432 676 357 c 256,0,1
613 357 m 0,20,21
 626 418 626 418 628.5 472.5 c 128,-1,22
 631 527 631 527 615.5 567.5 c 128,-1,23
 600 608 600 608 564.5 631 c 128,-1,24
 529 654 529 654 468 654 c 256,25,26
 408 654 408 654 363 630.5 c 128,-1,27
 318 607 318 607 285.5 567 c 128,-1,28
 253 527 253 527 232 472.5 c 128,-1,29
 211 418 211 418 197 357 c 256,30,31
 184 295 184 295 182.5 241 c 128,-1,32
 181 187 181 187 196.5 147.5 c 128,-1,33
 212 108 212 108 246.5 84 c 128,-1,34
 281 60 281 60 342 60 c 0,35,36
 407 60 407 60 453 88 c 128,-1,37
 499 116 499 116 531 159 c 128,-1,38
 563 202 563 202 583 255 c 128,-1,39
 603 308 603 308 613 357 c 0,20,21
EndSplineSet
EndChar
StartChar: one
Encoding: 49 49 18
Width: 478
VWidth: 1473
Flags: W
HStem: 0 21G<289.5 302.5>
VStem: 206 269<610 707 610 610>
Fore
334 31 m 1,0,1
 331 19 331 19 320 9.5 c 128,-1,2
 309 0 309 0 296 0 c 256,3,4
 283 0 283 0 275 9.5 c 128,-1,5
 267 19 267 19 270 31 c 2,6,-1
 401 647 l 1,7,-1
 245 591 l 2,8,9
 231 586 231 586 220 592 c 128,-1,10
 209 598 209 598 206 610 c 0,11,12
 205 622 205 622 213.5 634.5 c 128,-1,13
 222 647 222 647 234 651 c 2,14,-1
 438 722 l 2,15,16
 452 725 452 725 463 720 c 0,17,18
 471 717 471 717 475 707 c 128,-1,19
 479 697 479 697 471 675 c 2,20,-1
 334 31 l 1,0,1
EndSplineSet
EndChar
StartChar: two
Encoding: 50 50 19
Width: 642
VWidth: 1473
Flags: W
HStem: 0 63<177 567.215> 657 60<363.812 536.735>
VStem: 174 59<482.6 546.32>
Fore
589 32 m 0,0,1
 586 19 586 19 576 9.5 c 128,-1,2
 566 0 566 0 552 0 c 2,3,-1
 91 0 l 2,4,5
 80 0 80 0 73 7.5 c 128,-1,6
 66 15 66 15 64.5 25 c 128,-1,7
 63 35 63 35 68.5 46 c 128,-1,8
 74 57 74 57 84 65 c 2,9,-1
 539 386 l 2,10,11
 588 421 588 421 612 467.5 c 128,-1,12
 636 514 636 514 629 557 c 0,13,14
 625 579 625 579 611 597.5 c 128,-1,15
 597 616 597 616 575.5 629 c 128,-1,16
 554 642 554 642 528 649.5 c 128,-1,17
 502 657 502 657 474 657 c 0,18,19
 412 657 412 657 369.5 641.5 c 128,-1,20
 327 626 327 626 300 601 c 128,-1,21
 273 576 273 576 257.5 545 c 128,-1,22
 242 514 242 514 233 482 c 0,23,24
 228 468 228 468 217 459.5 c 128,-1,25
 206 451 206 451 193 452 c 256,26,27
 180 454 180 454 175.5 464 c 128,-1,28
 171 474 171 474 174 486 c 0,29,30
 240 717 240 717 488 717 c 0,31,32
 563 717 563 717 620.5 679 c 128,-1,33
 678 641 678 641 689 576 c 0,34,35
 700 514 700 514 666 452 c 128,-1,36
 632 390 632 390 564 339 c 2,37,-1
 177 63 l 1,38,-1
 566 63 l 2,39,40
 579 63 579 63 585.5 53.5 c 128,-1,41
 592 44 592 44 589 32 c 0,0,1
EndSplineSet
EndChar
StartChar: three
Encoding: 51 51 20
Width: 624
VWidth: 1473
Flags: W
HStem: -15 59<268.39 379.627> 351 60<320.585 489> 672 60<403.375 535.75>
VStem: 97 63<135 154.723 154.723 170.331 170.331 222.006>
Fore
605 190 m 0,0,1
 591 138 591 138 560 100 c 128,-1,2
 529 62 529 62 487.5 37 c 128,-1,3
 446 12 446 12 399 -1.5 c 128,-1,4
 352 -15 352 -15 303 -15 c 0,5,6
 262 -15 262 -15 219.5 -3 c 128,-1,7
 177 9 177 9 145 35.5 c 128,-1,8
 113 62 113 62 97 104 c 128,-1,9
 81 146 81 146 94 206 c 0,10,11
 97 220 97 220 109 228.5 c 128,-1,12
 121 237 121 237 134 237 c 256,13,14
 147 237 147 237 154 228.5 c 128,-1,15
 161 220 161 220 158 206 c 0,16,17
 149 165 149 165 160 135 c 128,-1,18
 171 105 171 105 194 85 c 128,-1,19
 217 65 217 65 249 54.5 c 128,-1,20
 281 44 281 44 317 44 c 0,21,22
 354 44 354 44 390 53 c 128,-1,23
 426 62 426 62 457 80.5 c 128,-1,24
 488 99 488 99 511.5 126 c 128,-1,25
 535 153 535 153 545 190 c 0,26,27
 551 212 551 212 554.5 235.5 c 128,-1,28
 558 259 558 259 554 281 c 128,-1,29
 550 303 550 303 535 321.5 c 128,-1,30
 520 340 520 340 489 351 c 1,31,-1
 321 351 l 2,32,33
 309 351 309 351 301 358 c 128,-1,34
 293 365 293 365 296 379 c 256,35,36
 299 392 299 392 311 401.5 c 128,-1,37
 323 411 323 411 334 411 c 2,38,-1
 496 411 l 1,39,40
 554 439 554 439 577.5 483 c 128,-1,41
 601 527 601 527 593 569 c 128,-1,42
 585 611 585 611 548 641.5 c 128,-1,43
 511 672 511 672 448 672 c 0,44,45
 414 672 414 672 380 664 c 128,-1,46
 346 656 346 656 316.5 640.5 c 128,-1,47
 287 625 287 625 263.5 600.5 c 128,-1,48
 240 576 240 576 227 544 c 0,49,50
 221 530 221 530 213.5 521.5 c 128,-1,51
 206 513 206 513 190 514 c 0,52,53
 177 514 177 514 171 523 c 128,-1,54
 165 532 165 532 168 545 c 0,55,56
 177 572 177 572 197.5 604 c 128,-1,57
 218 636 218 636 254 664 c 128,-1,58
 290 692 290 692 341 711.5 c 128,-1,59
 392 731 392 731 461 732 c 0,60,61
 544 734 544 734 594 697 c 128,-1,62
 644 660 644 660 658 606 c 128,-1,63
 672 552 672 552 647.5 492 c 128,-1,64
 623 432 623 432 557 386 c 1,65,66
 600 359 600 359 613 310 c 128,-1,67
 626 261 626 261 605 190 c 0,0,1
EndSplineSet
EndChar
StartChar: four
Encoding: 52 52 21
Width: 654
VWidth: 1473
Flags: W
HStem: 0 21G<469 485.5> 143 59<178 476 550 613.778> 587 20G<555.395 570.753>
Fore
638 174 m 256,0,1
 635 161 635 161 623 152 c 128,-1,2
 611 143 611 143 600 143 c 2,3,-1
 536 143 l 1,4,-1
 513 32 l 2,5,6
 510 19 510 19 502 9.5 c 128,-1,7
 494 0 494 0 477 0 c 256,8,9
 461 0 461 0 455 9.5 c 128,-1,10
 449 19 449 19 452 32 c 2,11,-1
 476 143 l 1,12,-1
 99 143 l 1,13,-1
 97 143 l 2,14,15
 77 143 77 143 74 161.5 c 128,-1,16
 71 180 71 180 85 194 c 2,17,-1
 604 710 l 1,18,19
 622 722 622 722 639 714.5 c 128,-1,20
 656 707 656 707 653 687 c 2,21,-1
 550 202 l 1,22,-1
 613 202 l 2,23,24
 625 202 625 202 633 194.5 c 128,-1,25
 641 187 641 187 638 174 c 256,0,1
575 607 m 1,26,-1
 178 202 l 1,27,-1
 489 202 l 1,28,-1
 575 607 l 1,26,-1
EndSplineSet
EndChar
StartChar: five
Encoding: 53 53 22
Width: 651
VWidth: 1473
Flags: W
HStem: 442.5 61<332.984 505.295> 654 61<329 684.986>
VStem: 103 62<134.582 216.184>
Fore
616 174 m 0,0,1
 583 109 583 109 528.5 65 c 128,-1,2
 474 21 474 21 404 4 c 0,3,4
 348 -10 348 -10 294 -3.5 c 128,-1,5
 240 3 240 3 197.5 28 c 128,-1,6
 155 53 155 53 129 97 c 128,-1,7
 103 141 103 141 103 203 c 0,8,9
 103 215 103 215 113.5 226 c 128,-1,10
 124 237 124 237 136 240 c 0,11,12
 165 245 165 245 165 217 c 0,13,14
 165 168 165 168 184 133.5 c 128,-1,15
 203 99 203 99 236.5 79 c 128,-1,16
 270 59 270 59 312.5 54.5 c 128,-1,17
 355 50 355 50 401 62 c 0,18,19
 436 71 436 71 463.5 86.5 c 128,-1,20
 491 102 491 102 509 120 c 128,-1,21
 527 138 527 138 539.5 156.5 c 128,-1,22
 552 175 552 175 560 189 c 0,23,24
 591 252 591 252 590 300 c 128,-1,25
 589 348 589 348 567 379.5 c 128,-1,26
 545 411 545 411 506.5 426.5 c 128,-1,27
 468 442 468 442 423.5 442.5 c 128,-1,28
 379 443 379 443 331.5 427.5 c 128,-1,29
 284 412 284 412 245 383 c 0,30,31
 233 374 233 374 219.5 362.5 c 128,-1,32
 206 351 206 351 192 354 c 128,-1,33
 178 357 178 357 172 367 c 128,-1,34
 166 377 166 377 172 389 c 2,35,-1
 290 715 l 1,36,-1
 682 715 l 2,37,38
 695 715 695 715 702 705 c 128,-1,39
 709 695 709 695 706 682 c 0,40,41
 703 670 703 670 692.5 662 c 128,-1,42
 682 654 682 654 669 654 c 2,43,-1
 329 654 l 1,44,-1
 256 451 l 1,45,46
 348 502 348 502 434 503.5 c 128,-1,47
 520 505 520 505 576.5 465.5 c 128,-1,48
 633 426 633 426 648.5 350.5 c 128,-1,49
 664 275 664 275 616 174 c 0,0,1
EndSplineSet
EndChar
StartChar: six
Encoding: 54 54 23
Width: 674
VWidth: 1473
Flags: W
HStem: -18 61<285.912 440.515> 415 59<346.742 516.833> 664 68<403.155 573.683>
VStem: 654 72<545.348 599.808>
Fore
663 233 m 0,0,1
 654 180 654 180 623 133.5 c 128,-1,2
 592 87 592 87 547 54 c 128,-1,3
 502 21 502 21 446 1.5 c 128,-1,4
 390 -18 390 -18 331 -18 c 0,5,6
 253 -18 253 -18 206 10 c 128,-1,7
 159 38 159 38 137 88 c 128,-1,8
 115 138 115 138 115 206 c 128,-1,9
 115 274 115 274 133 352 c 0,10,11
 152 438 152 438 188.5 507.5 c 128,-1,12
 225 577 225 577 276 627.5 c 128,-1,13
 327 678 327 678 389.5 705 c 128,-1,14
 452 732 452 732 526 732 c 0,15,16
 569 732 569 732 604 719.5 c 128,-1,17
 639 707 639 707 665 687 c 128,-1,18
 691 667 691 667 706.5 641.5 c 128,-1,19
 722 616 722 616 726 591 c 0,20,21
 728 575 728 575 720.5 561.5 c 128,-1,22
 713 548 713 548 698 544 c 0,23,24
 661 533 661 533 654 566 c 0,25,26
 651 583 651 583 641 600 c 128,-1,27
 631 617 631 617 612.5 632 c 128,-1,28
 594 647 594 647 569 655.5 c 128,-1,29
 544 664 544 664 511 664 c 0,30,31
 440 664 440 664 388 634.5 c 128,-1,32
 336 605 336 605 298.5 560.5 c 128,-1,33
 261 516 261 516 238 460.5 c 128,-1,34
 215 405 215 405 203 354 c 1,35,36
 253 415 253 415 317.5 444.5 c 128,-1,37
 382 474 382 474 449 474 c 0,38,39
 522 474 522 474 567.5 453 c 128,-1,40
 613 432 613 432 636.5 397 c 128,-1,41
 660 362 660 362 665 318.5 c 128,-1,42
 670 275 670 275 663 233 c 0,0,1
597 228 m 0,43,44
 605 265 605 265 596.5 299 c 128,-1,45
 588 333 588 333 566 359 c 128,-1,46
 544 385 544 385 510.5 400 c 128,-1,47
 477 415 477 415 436 415 c 256,48,49
 395 415 395 415 354.5 400.5 c 128,-1,50
 314 386 314 386 280 360 c 128,-1,51
 246 334 246 334 221.5 299 c 128,-1,52
 197 264 197 264 189 222 c 0,53,54
 180 180 180 180 189.5 146 c 128,-1,55
 199 112 199 112 223 89 c 128,-1,56
 247 66 247 66 282 54.5 c 128,-1,57
 317 43 317 43 358 43 c 256,58,59
 399 43 399 43 438 57.5 c 128,-1,60
 477 72 477 72 510.5 97 c 128,-1,61
 544 122 544 122 566.5 156 c 128,-1,62
 589 190 589 190 597 228 c 0,43,44
EndSplineSet
EndChar
StartChar: seven
Encoding: 55 55 24
Width: 598
VWidth: 1473
Flags: W
HStem: 653 63<213.091 614>
Fore
196 13 m 2,0,1
 187 1 187 1 174 -2.5 c 128,-1,2
 161 -6 161 -6 152 1 c 0,3,4
 140 9 140 9 140 20.5 c 128,-1,5
 140 32 140 32 149 44 c 2,6,-1
 614 653 l 1,7,-1
 215 653 l 2,8,9
 202 653 202 653 194 662.5 c 128,-1,10
 186 672 186 672 189 684 c 0,11,12
 192 697 192 697 203.5 706.5 c 128,-1,13
 215 716 215 716 228 716 c 2,14,-1
 692 716 l 1,15,-1
 673 629 l 1,16,-1
 196 13 l 2,0,1
EndSplineSet
EndChar
StartChar: eight
Encoding: 56 56 25
Width: 662
VWidth: 1473
Flags: W
HStem: -22 63<248.756 403.137> 364 62<384.123 448.834> 672 63<417.415 532.193>
Fore
645 205 m 0,0,1
 633 153 633 153 601 111 c 128,-1,2
 569 69 569 69 524 39.5 c 128,-1,3
 479 10 479 10 426.5 -6 c 128,-1,4
 374 -22 374 -22 326 -22 c 0,5,6
 275 -22 275 -22 230.5 -6 c 128,-1,7
 186 10 186 10 153.5 39.5 c 128,-1,8
 121 69 121 69 106 111 c 128,-1,9
 91 153 91 153 103 205 c 0,10,11
 116 267 116 267 163.5 318.5 c 128,-1,12
 211 370 211 370 278 399 c 1,13,14
 245 423 245 423 229.5 464 c 128,-1,15
 214 505 214 505 224 548 c 0,16,17
 231 586 231 586 256 620 c 128,-1,18
 281 654 281 654 317.5 680 c 128,-1,19
 354 706 354 706 397 720.5 c 128,-1,20
 440 735 440 735 488 735 c 0,21,22
 527 735 527 735 564 722 c 128,-1,23
 601 709 601 709 627.5 684.5 c 128,-1,24
 654 660 654 660 666.5 625.5 c 128,-1,25
 679 591 679 591 670 548 c 0,26,27
 660 505 660 505 628.5 463 c 128,-1,28
 597 421 597 421 552 399 c 1,29,30
 604 373 604 373 631.5 320 c 128,-1,31
 659 267 659 267 645 205 c 0,0,1
605 547 m 0,32,33
 611 576 611 576 601.5 599.5 c 128,-1,34
 592 623 592 623 572 639.5 c 128,-1,35
 552 656 552 656 525.5 664 c 128,-1,36
 499 672 499 672 473 672 c 256,37,38
 446 672 446 672 416.5 664 c 128,-1,39
 387 656 387 656 360.5 640.5 c 128,-1,40
 334 625 334 625 314.5 601 c 128,-1,41
 295 577 295 577 289 548 c 0,42,43
 284 526 284 526 291 504 c 128,-1,44
 298 482 298 482 315.5 465 c 128,-1,45
 333 448 333 448 359.5 437 c 128,-1,46
 386 426 386 426 420 426 c 256,47,48
 454 426 454 426 485.5 436 c 128,-1,49
 517 446 517 446 542 464 c 128,-1,50
 567 482 567 482 584 503 c 128,-1,51
 601 524 601 524 605 547 c 0,32,33
582 205 m 0,52,53
 589 242 589 242 576.5 272 c 128,-1,54
 564 302 564 302 539 322 c 128,-1,55
 514 342 514 342 479.5 353 c 128,-1,56
 445 364 445 364 408 364 c 256,57,58
 371 364 371 364 331.5 353 c 128,-1,59
 292 342 292 342 257 322 c 128,-1,60
 222 302 222 302 197 272 c 128,-1,61
 172 242 172 242 165 205 c 0,62,63
 158 172 158 172 167.5 142.5 c 128,-1,64
 177 113 177 113 199.5 90.5 c 128,-1,65
 222 68 222 68 257.5 54.5 c 128,-1,66
 293 41 293 41 339 41 c 0,67,68
 380 41 380 41 421.5 53.5 c 128,-1,69
 463 66 463 66 496 88 c 128,-1,70
 529 110 529 110 552 140.5 c 128,-1,71
 575 171 575 171 582 205 c 0,52,53
EndSplineSet
EndChar
StartChar: nine
Encoding: 57 57 26
Width: 646
VWidth: 1473
Flags: W
HStem: -6 66<240.255 404.467> 243 58<290.102 456.36> 661 61<362.665 526.531>
VStem: 90 65<111.582 157.852>
Fore
664 361 m 0,0,1
 645 277 645 277 610 209 c 128,-1,2
 575 141 575 141 526 93.5 c 128,-1,3
 477 46 477 46 415.5 20 c 128,-1,4
 354 -6 354 -6 283 -6 c 0,5,6
 240 -6 240 -6 206 6.5 c 128,-1,7
 172 19 172 19 148 39 c 128,-1,8
 124 59 124 59 109 84 c 128,-1,9
 94 109 94 109 90 134 c 0,10,11
 87 147 87 147 96 160.5 c 128,-1,12
 105 174 105 174 119 178 c 0,13,14
 134 184 134 184 143 178 c 128,-1,15
 152 172 152 172 155 159 c 0,16,17
 158 141 158 141 169.5 124.5 c 128,-1,18
 181 108 181 108 200.5 93 c 128,-1,19
 220 78 220 78 244 69 c 128,-1,20
 268 60 268 60 298 60 c 0,21,22
 365 60 365 60 416.5 87.5 c 128,-1,23
 468 115 468 115 504.5 157 c 128,-1,24
 541 199 541 199 563 250.5 c 128,-1,25
 585 302 585 302 595 352 c 1,26,27
 548 296 548 296 485.5 269.5 c 128,-1,28
 423 243 423 243 358 243 c 0,29,30
 303 243 303 243 259 258.5 c 128,-1,31
 215 274 215 274 185.5 304 c 128,-1,32
 156 334 156 334 145 377 c 128,-1,33
 134 420 134 420 147 476 c 0,34,35
 159 529 159 529 188.5 574 c 128,-1,36
 218 619 218 619 260 652 c 128,-1,37
 302 685 302 685 353.5 703.5 c 128,-1,38
 405 722 405 722 463 722 c 0,39,40
 539 722 539 722 587.5 695.5 c 128,-1,41
 636 669 636 669 659 621 c 128,-1,42
 682 573 682 573 682 506.5 c 128,-1,43
 682 440 682 440 664 361 c 0,0,1
604 482 m 0,44,45
 611 519 611 519 603 551 c 128,-1,46
 595 583 595 583 573.5 607.5 c 128,-1,47
 552 632 552 632 520 646.5 c 128,-1,48
 488 661 488 661 448 661 c 256,49,50
 408 661 408 661 369 647 c 128,-1,51
 330 633 330 633 298.5 609 c 128,-1,52
 267 585 267 585 244 552.5 c 128,-1,53
 221 520 221 520 214 483 c 0,54,55
 205 445 205 445 213.5 411 c 128,-1,56
 222 377 222 377 243.5 353 c 128,-1,57
 265 329 265 329 297.5 315 c 128,-1,58
 330 301 330 301 370 301 c 256,59,60
 410 301 410 301 448 315 c 128,-1,61
 486 329 486 329 518.5 353 c 128,-1,62
 551 377 551 377 573 410 c 128,-1,63
 595 443 595 443 604 482 c 0,44,45
EndSplineSet
EndChar
StartChar: colon
Encoding: 58 58 27
Width: 294
VWidth: 1473
Flags: W
HStem: -7 123<128.688 195.312> 354 123<205.688 273.312>
VStem: 100 201<55 415 32.5456 102.444>
Fore
177 415 m 0,0,1
 183 440 183 440 205 458.5 c 128,-1,2
 227 477 227 477 252 477 c 256,3,4
 277 477 277 477 291.5 458.5 c 128,-1,5
 306 440 306 440 301 415 c 128,-1,6
 296 390 296 390 274 372 c 128,-1,7
 252 354 252 354 227 354 c 256,8,9
 202 354 202 354 187 372 c 128,-1,10
 172 390 172 390 177 415 c 0,0,1
100 55 m 256,11,12
 106 80 106 80 128 98 c 128,-1,13
 150 116 150 116 175 116 c 256,14,15
 200 116 200 116 215 98 c 128,-1,16
 230 80 230 80 224 55 c 256,17,18
 218 29 218 29 196 11 c 128,-1,19
 174 -7 174 -7 149 -7 c 256,20,21
 124 -7 124 -7 109 11 c 128,-1,22
 94 29 94 29 100 55 c 256,11,12
EndSplineSet
EndChar
StartChar: semicolon
Encoding: 59 59 28
Width: 294
VWidth: 1473
Flags: W
HStem: -20 20G<157 159> 354 123<205.688 273.312>
VStem: 177 124<392.546 462.444>
Fore
177 415 m 0,0,1
 183 440 183 440 205 458.5 c 128,-1,2
 227 477 227 477 252 477 c 256,3,4
 277 477 277 477 291.5 458.5 c 128,-1,5
 306 440 306 440 301 415 c 128,-1,6
 296 390 296 390 274 372 c 128,-1,7
 252 354 252 354 227 354 c 256,8,9
 202 354 202 354 187 372 c 128,-1,10
 172 390 172 390 177 415 c 0,0,1
91 52 m 0,11,12
 96 72 96 72 110.5 89 c 128,-1,13
 125 106 125 106 143 113 c 0,14,15
 177 127 177 127 203.5 110.5 c 128,-1,16
 230 94 230 94 227 60 c 0,17,18
 227 32 227 32 214.5 5.5 c 128,-1,19
 202 -21 202 -21 183 -43.5 c 128,-1,20
 164 -66 164 -66 141 -83 c 128,-1,21
 118 -100 118 -100 97 -106 c 0,22,23
 81 -110 81 -110 70.5 -108 c 128,-1,24
 60 -106 60 -106 56 -100 c 128,-1,25
 52 -94 52 -94 55.5 -85.5 c 128,-1,26
 59 -77 59 -77 72 -69 c 0,27,28
 94 -60 94 -60 121.5 -45.5 c 128,-1,29
 149 -31 149 -31 165 0 c 1,30,31
 153 -6 153 -6 147 -6 c 0,32,33
 118 -9 118 -9 101.5 9 c 128,-1,34
 85 27 85 27 91 52 c 0,11,12
EndSplineSet
EndChar
StartChar: less
Encoding: 60 60 29
Width: 677
VWidth: 1473
Flags: W
Fore
570 6 m 256,0,1
 561 -6 561 -6 548 -9.5 c 128,-1,2
 535 -13 535 -13 526 -6 c 2,3,-1
 158 234 l 1,4,5
 159 236 159 236 158 236 c 1,6,7
 152 239 152 239 150.5 246 c 128,-1,8
 149 253 149 253 150.5 261.5 c 128,-1,9
 152 270 152 270 157 277 c 128,-1,10
 162 284 162 284 169 289 c 2,11,-1
 639 529 l 2,12,13
 651 536 651 536 663 533 c 128,-1,14
 675 530 675 530 679 519 c 256,15,16
 684 507 684 507 677 495 c 128,-1,17
 670 483 670 483 659 476 c 2,18,-1
 225 262 l 1,19,-1
 569 49 l 2,20,21
 577 41 577 41 578 29.5 c 128,-1,22
 579 18 579 18 570 6 c 256,0,1
EndSplineSet
EndChar
StartChar: equal
Encoding: 61 61 30
Width: 692
VWidth: 1473
Flags: W
HStem: 127 249<158 186 613 638 197 601 197 197> 127 56<113.695 642.438> 321 55<154.5 684.984>
Fore
645 156 m 0,0,1
 638 127 638 127 601 127 c 2,2,-1
 144 127 l 2,3,4
 105 127 105 127 112 156 c 0,5,6
 118 183 118 183 156 183 c 2,7,-1
 613 183 l 2,8,9
 651 183 651 183 645 156 c 0,0,1
687 349 m 0,10,11
 681 321 681 321 642 321 c 2,12,-1
 186 321 l 2,13,14
 147 321 147 321 153 349 c 0,15,16
 158 376 158 376 197 376 c 2,17,-1
 654 376 l 2,18,19
 691 376 691 376 687 349 c 0,10,11
EndSplineSet
EndChar
StartChar: greater
Encoding: 62 62 31
Width: 677
VWidth: 1473
Flags: W
Fore
635 258 m 0,0,1
 631 246 631 246 625 241.5 c 128,-1,2
 619 237 619 237 617 236 c 1,3,4
 616 236 616 236 614 234 c 2,5,-1
 146 -6 l 2,6,7
 133 -13 133 -13 121 -9.5 c 128,-1,8
 109 -6 109 -6 105 6 c 256,9,10
 100 18 100 18 106.5 29.5 c 128,-1,11
 113 41 113 41 127 49 c 2,12,-1
 558 262 l 1,13,-1
 217 476 l 2,14,15
 206 483 206 483 205.5 495 c 128,-1,16
 205 507 205 507 214 519 c 256,17,18
 222 530 222 530 235.5 533 c 128,-1,19
 249 536 249 536 259 529 c 2,20,-1
 626 289 l 2,21,22
 633 284 633 284 635.5 275.5 c 128,-1,23
 638 267 638 267 635 258 c 0,0,1
EndSplineSet
EndChar
StartChar: question
Encoding: 63 63 32
Width: 634
VWidth: 1473
Flags: W
HStem: -7 104<228.079 285.406> 691 54<348.806 525.089>
VStem: 205 104<8.41357 81.014>
Fore
663 529 m 0,0,1
 650 468 650 468 619 432 c 128,-1,2
 588 396 588 396 549 374 c 128,-1,3
 510 352 510 352 466.5 337.5 c 128,-1,4
 423 323 423 323 385 305 c 0,5,6
 357 293 357 293 340 263 c 128,-1,7
 323 233 323 233 317 206 c 2,8,-1
 311 178 l 2,9,10
 302 138 302 138 275 138 c 0,11,12
 247 138 247 138 256 178 c 2,13,-1
 262 206 l 2,14,15
 273 253 273 253 298 288.5 c 128,-1,16
 323 324 323 324 374 351 c 0,17,18
 411 370 411 370 448.5 381.5 c 128,-1,19
 486 393 486 393 518 409.5 c 128,-1,20
 550 426 550 426 573.5 453 c 128,-1,21
 597 480 597 480 607 529 c 256,22,23
 617 577 617 577 606 609 c 128,-1,24
 595 641 595 641 571.5 658.5 c 128,-1,25
 548 676 548 676 516.5 683.5 c 128,-1,26
 485 691 485 691 452 691 c 0,27,28
 336 691 336 691 252 597 c 0,29,30
 243 586 243 586 231.5 587 c 128,-1,31
 220 588 220 588 212 597 c 0,32,33
 205 604 205 604 207 615 c 128,-1,34
 209 626 209 626 218 636 c 0,35,36
 267 688 267 688 328 716.5 c 128,-1,37
 389 745 389 745 461 745 c 0,38,39
 570 745 570 745 627.5 690 c 128,-1,40
 685 635 685 635 663 529 c 0,0,1
309 44 m 256,41,42
 305 22 305 22 286 7.5 c 128,-1,43
 267 -7 267 -7 245 -7 c 256,44,45
 222 -7 222 -7 211 7.5 c 128,-1,46
 200 22 200 22 205 44 c 256,47,48
 209 66 209 66 227.5 81.5 c 128,-1,49
 246 97 246 97 268 97 c 256,50,51
 290 97 290 97 302 81.5 c 128,-1,52
 314 66 314 66 309 44 c 256,41,42
EndSplineSet
EndChar
StartChar: at
Encoding: 64 64 33
Width: 947
VWidth: 1473
Flags: W
HStem: -39 49<421.859 576.967> 133 44<386.924 532.835> 402 49<488.816 631.271> 554 46.5<587.248 688.06>
VStem: 892.5 51<442.574 481 481 533.5>
Fore
915 348 m 0,0,1
 885 268 885 268 839 218.5 c 128,-1,2
 793 169 793 169 742 143 c 0,3,4
 713 128 713 128 686.5 127.5 c 128,-1,5
 660 127 660 127 644 143 c 0,6,7
 636 150 636 150 633.5 166.5 c 128,-1,8
 631 183 631 183 639 199 c 1,9,10
 597 168 597 168 552 150.5 c 128,-1,11
 507 133 507 133 451 133 c 0,12,13
 405 133 405 133 376.5 148.5 c 128,-1,14
 348 164 348 164 333 188 c 128,-1,15
 318 212 318 212 316 240 c 128,-1,16
 314 268 314 268 323 295 c 0,17,18
 346 370 346 370 418.5 410.5 c 128,-1,19
 491 451 491 451 585 451 c 0,20,21
 623 449 623 449 651 440 c 0,22,23
 676 433 676 433 696 416 c 128,-1,24
 716 399 716 399 713 370 c 1,25,26
 731 410 731 410 737.5 441.5 c 128,-1,27
 744 473 744 473 732 498 c 0,28,29
 719 526 719 526 689 540 c 128,-1,30
 659 554 659 554 619.5 554 c 128,-1,31
 580 554 580 554 539 543 c 128,-1,32
 498 532 498 532 464 511 c 0,33,34
 454 505 454 505 444.5 503.5 c 128,-1,35
 435 502 435 502 432 511 c 0,36,37
 429 519 429 519 434.5 529 c 128,-1,38
 440 539 440 539 457 550 c 0,39,40
 495 575 495 575 543.5 588 c 128,-1,41
 592 601 592 601 639.5 600.5 c 128,-1,42
 687 600 687 600 724.5 583.5 c 128,-1,43
 762 567 762 567 778 532 c 0,44,45
 794 498 794 498 786 459.5 c 128,-1,46
 778 421 778 421 765 389 c 2,47,-1
 681 202 l 2,48,49
 669 178 669 178 680.5 172 c 128,-1,50
 692 166 692 166 720 178 c 0,51,52
 763 197 763 197 800.5 240 c 128,-1,53
 838 283 838 283 866 357 c 0,54,55
 877 382 877 382 884 414 c 128,-1,56
 891 446 891 446 892.5 481 c 128,-1,57
 894 516 894 516 885.5 551 c 128,-1,58
 877 586 877 586 854 619 c 0,59,60
 810 679 810 679 729 699 c 128,-1,61
 648 719 648 719 560 695 c 0,62,63
 510 682 510 682 463.5 657.5 c 128,-1,64
 417 633 417 633 377 600 c 128,-1,65
 337 567 337 567 306 527.5 c 128,-1,66
 275 488 275 488 256 443 c 0,67,68
 212 343 212 343 210.5 272.5 c 128,-1,69
 209 202 209 202 229 154 c 128,-1,70
 249 106 249 106 281.5 78 c 128,-1,71
 314 50 314 50 337 38 c 0,72,73
 377 18 377 18 420.5 12.5 c 128,-1,74
 464 7 464 7 504.5 10 c 128,-1,75
 545 13 545 13 578 20.5 c 128,-1,76
 611 28 611 28 628 35 c 1,77,78
 638 38 638 38 650.5 36.5 c 128,-1,79
 663 35 663 35 666 27 c 0,80,81
 669 16 669 16 664 6.5 c 128,-1,82
 659 -3 659 -3 648 -9 c 0,83,84
 625 -19 625 -19 583.5 -28 c 128,-1,85
 542 -37 542 -37 493.5 -39 c 128,-1,86
 445 -41 445 -41 395 -34.5 c 128,-1,87
 345 -28 345 -28 305 -7 c 0,88,89
 192 52 192 52 166.5 175 c 128,-1,90
 141 298 141 298 211 455 c 0,91,92
 233 505 233 505 268 551.5 c 128,-1,93
 303 598 303 598 348 635.5 c 128,-1,94
 393 673 393 673 445.5 702 c 128,-1,95
 498 731 498 731 555 745 c 0,96,97
 607 759 607 759 658 759 c 128,-1,98
 709 759 709 759 754.5 746.5 c 128,-1,99
 800 734 800 734 837 710.5 c 128,-1,100
 874 687 874 687 899 653 c 0,101,102
 941 592 941 592 943.5 512 c 128,-1,103
 946 432 946 432 915 348 c 0,0,1
673 289 m 0,104,105
 682 309 682 309 684.5 330 c 128,-1,106
 687 351 687 351 675.5 367 c 128,-1,107
 664 383 664 383 637.5 392.5 c 128,-1,108
 611 402 611 402 563 402 c 0,109,110
 533 402 533 402 501.5 395.5 c 128,-1,111
 470 389 470 389 442 375.5 c 128,-1,112
 414 362 414 362 392.5 342.5 c 128,-1,113
 371 323 371 323 362 295 c 0,114,115
 346 242 346 242 375 209.5 c 128,-1,116
 404 177 404 177 466 177 c 0,117,118
 513 177 513 177 548 188 c 128,-1,119
 583 199 583 199 608 215 c 128,-1,120
 633 231 633 231 648.5 251 c 128,-1,121
 664 271 664 271 673 289 c 0,104,105
EndSplineSet
EndChar
StartChar: A
Encoding: 65 65 34
Width: 723
VWidth: 1473
Flags: W
HStem: 0 21G<73.5 100.5 623 650.5> 330 55<197 679> 666 56<373.793 625.235>
VStem: 704 55<440.671 463.926 512.907 547.5 573 597.219> 712 55<470.862 537.244>
Fore
672 40 m 2,0,1
 663 0 663 0 638 0 c 0,2,3
 608 0 608 0 617 40 c 2,4,-1
 679 330 l 1,5,-1
 184 330 l 1,6,-1
 122 40 l 2,7,8
 113 0 113 0 88 0 c 0,9,10
 59 0 59 0 68 40 c 0,11,12
 100 192 100 192 118 273 c 128,-1,13
 136 354 136 354 143 392 c 2,14,-1
 153 442 l 2,15,16
 153 443 153 443 157.5 462.5 c 128,-1,17
 162 482 162 482 173 510 c 128,-1,18
 184 538 184 538 205.5 571 c 128,-1,19
 227 604 227 604 261 635 c 0,20,21
 359 722 359 722 517 722 c 0,22,23
 673 722 673 722 735 635 c 0,24,25
 754 605 754 605 761 573 c 128,-1,26
 768 541 768 541 767 512 c 128,-1,27
 766 483 766 483 762.5 464.5 c 128,-1,28
 759 446 759 446 759 445 c 2,29,-1
 672 40 l 2,0,1
704 448 m 0,30,31
 710 473 710 473 712 499 c 0,32,33
 712 522 712 522 706.5 547.5 c 128,-1,34
 701 573 701 573 685 598 c 0,35,36
 635 666 635 666 505 666 c 0,37,38
 373 666 373 666 295 597 c 0,39,40
 268 573 268 573 252 547.5 c 128,-1,41
 236 522 236 522 226.5 499 c 128,-1,42
 217 476 217 476 214 461 c 128,-1,43
 211 446 211 446 211 445 c 2,44,-1
 197 385 l 1,45,-1
 691 385 l 1,46,47
 692 392 692 392 694.5 403 c 128,-1,48
 697 414 697 414 699 424.5 c 128,-1,49
 701 435 701 435 702.5 440.5 c 128,-1,50
 704 446 704 446 704 448 c 0,30,31
EndSplineSet
EndChar
StartChar: B
Encoding: 66 66 35
Width: 721
VWidth: 1473
Flags: W
HStem: 0 53<275.24 479.891> 331 55<243.512 575.972> 669 53<451.063 586.803>
Fore
165 234 m 2,0,1
 156 189 156 189 165 155 c 128,-1,2
 174 121 174 121 195.5 98 c 128,-1,3
 217 75 217 75 247.5 64 c 128,-1,4
 278 53 278 53 314 53 c 2,5,-1
 443 53 l 2,6,7
 479 55 479 55 513 63 c 128,-1,8
 547 71 547 71 575 88.5 c 128,-1,9
 603 106 603 106 623.5 133.5 c 128,-1,10
 644 161 644 161 653 199 c 0,11,12
 667 262 667 262 629 296.5 c 128,-1,13
 591 331 591 331 527 331 c 2,14,-1
 275 331 l 2,15,16
 237 331 237 331 242 359 c 0,17,18
 247 386 247 386 287 386 c 2,19,-1
 541 386 l 2,20,21
 570 386 570 386 598 395 c 128,-1,22
 626 404 626 404 648 419.5 c 128,-1,23
 670 435 670 435 685.5 456 c 128,-1,24
 701 477 701 477 706 501 c 0,25,26
 715 541 715 541 702 572.5 c 128,-1,27
 689 604 689 604 660.5 625.5 c 128,-1,28
 632 647 632 647 590 658 c 128,-1,29
 548 669 548 669 498 669 c 0,30,31
 455 669 455 669 410 658 c 128,-1,32
 365 647 365 647 325.5 622.5 c 128,-1,33
 286 598 286 598 256.5 561 c 128,-1,34
 227 524 227 524 217 471 c 2,35,-1
 165 234 l 2,0,1
161 471 m 2,36,37
 175 545 175 545 213.5 593.5 c 128,-1,38
 252 642 252 642 302 671 c 128,-1,39
 352 700 352 700 406.5 711 c 128,-1,40
 461 722 461 722 510 722 c 0,41,42
 572 722 572 722 623.5 708 c 128,-1,43
 675 694 675 694 709.5 666 c 128,-1,44
 744 638 744 638 758.5 596.5 c 128,-1,45
 773 555 773 555 762 501 c 256,46,47
 750 446 750 446 712.5 408 c 128,-1,48
 675 370 675 370 632 358 c 1,49,50
 675 336 675 336 697.5 294.5 c 128,-1,51
 720 253 720 253 709 199 c 0,52,53
 697 147 697 147 669 109.5 c 128,-1,54
 641 72 641 72 603.5 48 c 128,-1,55
 566 24 566 24 521.5 12 c 128,-1,56
 477 0 477 0 433 0 c 2,57,-1
 315 0 l 2,58,59
 262 0 262 0 218.5 15.5 c 128,-1,60
 175 31 175 31 147 62 c 128,-1,61
 119 93 119 93 109 138 c 128,-1,62
 99 183 99 183 110 240 c 2,63,-1
 161 471 l 2,36,37
EndSplineSet
EndChar
StartChar: C
Encoding: 67 67 36
Width: 676
VWidth: 1473
Flags: W
HStem: -4 57<291.19 523.896> 664 58<412.3 648.345>
Fore
776 613 m 0,0,1
 781 604 781 604 779.5 592 c 128,-1,2
 778 580 778 580 766 573 c 0,3,4
 742 555 742 555 725 573 c 1,5,6
 698 625 698 625 646.5 644.5 c 128,-1,7
 595 664 595 664 535 664 c 0,8,9
 466 664 466 664 407 641.5 c 128,-1,10
 348 619 348 619 301.5 578.5 c 128,-1,11
 255 538 255 538 222.5 481 c 128,-1,12
 190 424 190 424 175 358 c 0,13,14
 162 292 162 292 170 236 c 128,-1,15
 178 180 178 180 208.5 139.5 c 128,-1,16
 239 99 239 99 288 76 c 128,-1,17
 337 53 337 53 405 53 c 0,18,19
 466 53 466 53 524 71.5 c 128,-1,20
 582 90 582 90 633 141 c 0,21,22
 644 150 644 150 655 150 c 128,-1,23
 666 150 666 150 673 143 c 0,24,25
 681 134 681 134 678.5 122 c 128,-1,26
 676 110 676 110 666 102 c 0,27,28
 610 47 610 47 537 21.5 c 128,-1,29
 464 -4 464 -4 393 -4 c 0,30,31
 314 -4 314 -4 254 23 c 128,-1,32
 194 50 194 50 159 98.5 c 128,-1,33
 124 147 124 147 113 213.5 c 128,-1,34
 102 280 102 280 118 358 c 0,35,36
 136 438 136 438 174 505 c 128,-1,37
 212 572 212 572 269 619.5 c 128,-1,38
 326 667 326 667 396.5 694.5 c 128,-1,39
 467 722 467 722 548 722 c 0,40,41
 620 722 620 722 681 697 c 128,-1,42
 742 672 742 672 776 613 c 0,0,1
EndSplineSet
EndChar
StartChar: D
Encoding: 68 68 37
Width: 717
VWidth: 1473
Flags: W
HStem: 0 53<219.805 292.842 292.842 300.389 300.389 348.456> 664 53<294.023 429.631 429.631 444.358 444.358 477.739>
Fore
745 358 m 0,0,1
 729 278 729 278 688.5 214 c 128,-1,2
 648 150 648 150 588 103 c 0,3,4
 535 62 535 62 481 40.5 c 128,-1,5
 427 19 427 19 383 10 c 128,-1,6
 339 1 339 1 309.5 0.5 c 128,-1,7
 280 0 280 0 277 0 c 2,8,-1
 243 0 l 2,9,10
 217 0 217 0 186.5 8 c 128,-1,11
 156 16 156 16 132.5 34 c 128,-1,12
 109 52 109 52 96.5 80 c 128,-1,13
 84 108 84 108 93 149 c 2,14,-1
 181 567 l 2,15,16
 196 633 196 633 255 675 c 128,-1,17
 314 717 314 717 395 717 c 2,18,-1
 429 717 l 2,19,20
 432 717 432 717 460.5 716.5 c 128,-1,21
 489 716 489 716 530.5 707 c 128,-1,22
 572 698 572 698 616.5 676 c 128,-1,23
 661 654 661 654 697 613 c 0,24,25
 735 566 735 566 749 502.5 c 128,-1,26
 763 439 763 439 745 358 c 0,0,1
691 358 m 256,27,28
 706 427 706 427 694 481 c 128,-1,29
 682 535 682 535 650 573 c 0,30,31
 620 608 620 608 580.5 627.5 c 128,-1,32
 541 647 541 647 504.5 655 c 128,-1,33
 468 663 468 663 443 663.5 c 128,-1,34
 418 664 418 664 417 664 c 2,35,-1
 383 664 l 2,36,37
 327 664 327 664 287 638.5 c 128,-1,38
 247 613 247 613 237 570 c 2,39,-1
 147 147 l 2,40,41
 141 119 141 119 150 101.5 c 128,-1,42
 159 84 159 84 176 73 c 128,-1,43
 193 62 193 62 214.5 57.5 c 128,-1,44
 236 53 236 53 253 53 c 2,45,-1
 287 53 l 2,46,47
 289 53 289 53 314.5 54 c 128,-1,48
 340 55 340 55 380 63 c 128,-1,49
 420 71 420 71 467 89.5 c 128,-1,50
 514 108 514 108 558 143 c 0,51,52
 607 181 607 181 641.5 235 c 128,-1,53
 676 289 676 289 691 358 c 256,27,28
EndSplineSet
EndChar
StartChar: E
Encoding: 69 69 38
Width: 649
VWidth: 1473
Flags: W
HStem: -7 54<262.969 433.086> 330 55<177 526.969> 667 55<405.401 573.822>
Fore
140 477 m 2,0,1
 153 542 153 542 190.5 588.5 c 128,-1,2
 228 635 228 635 277 664.5 c 128,-1,3
 326 694 326 694 379.5 708 c 128,-1,4
 433 722 433 722 480 722 c 0,5,6
 542 722 542 722 587 711 c 128,-1,7
 632 700 632 700 663 682 c 128,-1,8
 694 664 694 664 711 641.5 c 128,-1,9
 728 619 728 619 734 595 c 0,10,11
 737 585 737 585 734.5 574 c 128,-1,12
 732 563 732 563 720 557 c 0,13,14
 709 550 709 550 697 552.5 c 128,-1,15
 685 555 685 555 682 566 c 0,16,17
 666 611 666 611 616.5 639 c 128,-1,18
 567 667 567 667 463 667 c 0,19,20
 420 667 420 667 376.5 653 c 128,-1,21
 333 639 333 639 296 613.5 c 128,-1,22
 259 588 259 588 232 553.5 c 128,-1,23
 205 519 205 519 196 476 c 2,24,-1
 177 385 l 1,25,-1
 495 385 l 2,26,27
 535 385 535 385 529 358 c 0,28,29
 523 330 523 330 483 330 c 2,30,-1
 165 330 l 1,31,-1
 146 239 l 2,32,33
 136 192 136 192 147.5 156.5 c 128,-1,34
 159 121 159 121 185.5 96.5 c 128,-1,35
 212 72 212 72 249.5 59.5 c 128,-1,36
 287 47 287 47 330 47 c 0,37,38
 435 47 435 47 496.5 75 c 128,-1,39
 558 103 558 103 594 149 c 0,40,41
 601 159 601 159 614.5 162 c 128,-1,42
 628 165 628 165 635 158 c 1,43,44
 644 152 644 152 643 141 c 128,-1,45
 642 130 642 130 635 119 c 0,46,47
 619 96 619 96 591 73 c 128,-1,48
 563 50 563 50 524.5 32.5 c 128,-1,49
 486 15 486 15 436 4 c 128,-1,50
 386 -7 386 -7 324 -7 c 0,51,52
 277 -7 277 -7 229 6 c 128,-1,53
 181 19 181 19 145 48.5 c 128,-1,54
 109 78 109 78 92 123.5 c 128,-1,55
 75 169 75 169 88 234 c 2,56,-1
 140 477 l 2,0,1
EndSplineSet
EndChar
StartChar: F
Encoding: 70 70 39
Width: 655
VWidth: 1473
Flags: W
HStem: -1 21G<74 101.5> 330 55<199 548.969> 667 55<427.401 595.822>
Fore
124 37 m 2,0,1
 115 -1 115 -1 88 -1 c 0,2,3
 60 -1 60 -1 69 37 c 2,4,-1
 164 479 l 2,5,6
 177 544 177 544 213.5 589.5 c 128,-1,7
 250 635 250 635 299 664.5 c 128,-1,8
 348 694 348 694 401.5 708 c 128,-1,9
 455 722 455 722 502 722 c 0,10,11
 564 722 564 722 609 711 c 128,-1,12
 654 700 654 700 685 681.5 c 128,-1,13
 716 663 716 663 733.5 639.5 c 128,-1,14
 751 616 751 616 759 592 c 0,15,16
 762 582 762 582 758 572.5 c 128,-1,17
 754 563 754 563 742 557 c 0,18,19
 731 550 731 550 719 552.5 c 128,-1,20
 707 555 707 555 704 566 c 0,21,22
 688 611 688 611 638.5 639 c 128,-1,23
 589 667 589 667 485 667 c 0,24,25
 442 667 442 667 398.5 653 c 128,-1,26
 355 639 355 639 318 613.5 c 128,-1,27
 281 588 281 588 254 553.5 c 128,-1,28
 227 519 227 519 218 476 c 2,29,-1
 199 385 l 1,30,-1
 517 385 l 2,31,32
 557 385 557 385 551 358 c 0,33,34
 545 330 545 330 505 330 c 2,35,-1
 186 330 l 1,36,-1
 124 37 l 2,0,1
EndSplineSet
EndChar
StartChar: G
Encoding: 71 71 40
Width: 736
VWidth: 1473
Flags: W
HStem: -7 54<287.307 486.375> 329 57<349.555 700.712> 667 55<411.676 662.176>
Fore
554 722 m 0,0,1
 645 722 645 722 714.5 688 c 128,-1,2
 784 654 784 654 809 600 c 0,3,4
 812 591 812 591 809 577 c 128,-1,5
 806 563 806 563 794 557 c 0,6,7
 782 550 782 550 771 552.5 c 128,-1,8
 760 555 760 555 756 566 c 0,9,10
 729 617 729 617 670 642 c 128,-1,11
 611 667 611 667 541 667 c 0,12,13
 467 667 467 667 406 643.5 c 128,-1,14
 345 620 345 620 298.5 579 c 128,-1,15
 252 538 252 538 221 480.5 c 128,-1,16
 190 423 190 423 175 355 c 0,17,18
 146 212 146 212 208.5 129.5 c 128,-1,19
 271 47 271 47 408 47 c 0,20,21
 474 47 474 47 525.5 67 c 128,-1,22
 577 87 577 87 613.5 113.5 c 128,-1,23
 650 140 650 140 669.5 167 c 128,-1,24
 689 194 689 194 692 211 c 2,25,-1
 704 268 l 2,26,27
 710 295 710 295 701 312 c 128,-1,28
 692 329 692 329 657 329 c 2,29,-1
 362 329 l 2,30,31
 351 329 351 329 335.5 332.5 c 128,-1,32
 320 336 320 336 324 357 c 256,33,34
 329 377 329 377 345.5 381.5 c 128,-1,35
 362 386 362 386 374 386 c 2,36,-1
 669 386 l 2,37,38
 731 386 731 386 752 353 c 128,-1,39
 773 320 773 320 762 268 c 2,40,-1
 750 211 l 2,41,42
 740 166 740 166 714.5 137.5 c 128,-1,43
 689 109 689 109 656 81 c 0,44,45
 641 69 641 69 616 53.5 c 128,-1,46
 591 38 591 38 557.5 25 c 128,-1,47
 524 12 524 12 483 2.5 c 128,-1,48
 442 -7 442 -7 396 -7 c 0,49,50
 315 -7 315 -7 254.5 18.5 c 128,-1,51
 194 44 194 44 158 91 c 128,-1,52
 122 138 122 138 111 205.5 c 128,-1,53
 100 273 100 273 118 355 c 256,54,55
 136 438 136 438 175 505.5 c 128,-1,56
 214 573 214 573 270 621 c 128,-1,57
 326 669 326 669 398 695.5 c 128,-1,58
 470 722 470 722 554 722 c 0,0,1
EndSplineSet
EndChar
StartChar: H
Encoding: 72 72 41
Width: 738
VWidth: 1473
Flags: W
HStem: 1 21G<82 109 632 660> 330 56<203 687> 700 20G<234 261 784 812>
Fore
681 41 m 1,0,1
 673 1 673 1 647 1 c 0,2,3
 617 1 617 1 625 41 c 2,4,-1
 687 330 l 1,5,-1
 192 330 l 1,6,-1
 130 41 l 2,7,8
 122 1 122 1 96 1 c 0,9,10
 68 1 68 1 75 41 c 2,11,-1
 212 681 l 2,12,13
 221 720 221 720 247 720 c 0,14,15
 275 720 275 720 267 681 c 2,16,-1
 203 386 l 1,17,-1
 698 386 l 1,18,-1
 762 681 l 2,19,20
 770 720 770 720 798 720 c 256,21,22
 826 720 826 720 818 681 c 2,23,-1
 681 41 l 1,0,1
EndSplineSet
EndChar
StartChar: I
Encoding: 73 73 42
Width: 190
VWidth: 1473
Flags: W
HStem: 1 21G<83 110.5> 700 20G<235.5 263>
VStem: 77 191<41 681 41 739.569>
Fore
131 41 m 1,0,1
 124 1 124 1 97 1 c 0,2,3
 69 1 69 1 77 41 c 2,4,-1
 214 681 l 2,5,6
 222 720 222 720 249 720 c 0,7,8
 277 720 277 720 268 681 c 2,9,-1
 131 41 l 1,0,1
EndSplineSet
EndChar
StartChar: J
Encoding: 74 74 43
Width: 577
VWidth: 1473
Flags: W
HStem: -7 53<193.037 309.557>
Fore
557 230 m 1,0,1
 541 156 541 156 504 109.5 c 128,-1,2
 467 63 467 63 425 37.5 c 128,-1,3
 383 12 383 12 343 2.5 c 128,-1,4
 303 -7 303 -7 283 -7 c 2,5,-1
 258 -7 l 2,6,7
 215 -7 215 -7 176.5 7 c 128,-1,8
 138 21 138 21 111 49.5 c 128,-1,9
 84 78 84 78 73 120 c 128,-1,10
 62 162 62 162 74 218 c 2,11,-1
 93 308 l 2,12,13
 102 348 102 348 130 348 c 0,14,15
 156 348 156 348 147 308 c 2,16,-1
 128 218 l 2,17,18
 122 192 122 192 124.5 161 c 128,-1,19
 127 130 127 130 143 105 c 128,-1,20
 159 80 159 80 192 63 c 128,-1,21
 225 46 225 46 281 46 c 0,22,23
 298 46 298 46 329.5 54 c 128,-1,24
 361 62 361 62 395 82.5 c 128,-1,25
 429 103 429 103 459 138.5 c 128,-1,26
 489 174 489 174 501 230 c 2,27,-1
 594 672 l 2,28,29
 603 712 603 712 631 712 c 256,30,31
 659 712 659 712 650 672 c 2,32,-1
 557 230 l 1,0,1
EndSplineSet
EndChar
StartChar: K
Encoding: 75 75 44
Width: 664
VWidth: 1473
Flags: W
HStem: 0 21G<81.5 109.5> 697 20G<234.5 262>
VStem: 598 58<4.48901 7 7 83.4514>
Fore
656 18 m 0,0,1
 656 6 656 6 647 -3 c 128,-1,2
 638 -12 638 -12 626 -15 c 256,3,4
 614 -18 614 -18 605.5 -11 c 128,-1,5
 597 -4 597 -4 598 7 c 0,6,7
 600 81 600 81 583 140 c 128,-1,8
 566 199 566 199 538.5 244.5 c 128,-1,9
 511 290 511 290 479.5 323.5 c 128,-1,10
 448 357 448 357 419 379 c 128,-1,11
 390 401 390 401 371 411 c 128,-1,12
 352 421 352 421 351 421 c 1,13,-1
 190 326 l 1,14,-1
 131 38 l 2,15,16
 122 0 122 0 97 0 c 0,17,18
 66 0 66 0 75 38 c 2,19,-1
 211 678 l 2,20,21
 220 717 220 717 249 717 c 0,22,23
 275 717 275 717 267 678 c 2,24,-1
 206 389 l 1,25,26
 308 451 308 451 385.5 497.5 c 128,-1,27
 463 544 463 544 521.5 578.5 c 128,-1,28
 580 613 580 613 621.5 636.5 c 128,-1,29
 663 660 663 660 689 676 c 0,30,31
 753 713 753 713 766 717 c 0,32,33
 776 722 776 722 783.5 718.5 c 128,-1,34
 791 715 791 715 794.5 707.5 c 128,-1,35
 798 700 798 700 796 691 c 128,-1,36
 794 682 794 682 784 678 c 2,37,-1
 415 460 l 1,38,39
 442 443 442 443 484 409.5 c 128,-1,40
 526 376 526 376 565 322 c 128,-1,41
 604 268 604 268 631.5 192 c 128,-1,42
 659 116 659 116 656 18 c 0,0,1
EndSplineSet
EndChar
StartChar: L
Encoding: 76 76 45
Width: 649
VWidth: 1473
Flags: W
HStem: 0 55<156.896 632.969> 697 20G<238 266>
Fore
635 28 m 0,0,1
 629 0 629 0 589 0 c 2,2,-1
 193 0 l 2,3,4
 141 0 141 0 113 32.5 c 128,-1,5
 85 65 85 65 97 121 c 2,6,-1
 215 678 l 2,7,8
 224 717 224 717 252 717 c 256,9,10
 280 717 280 717 271 678 c 2,11,-1
 152 119 l 2,12,13
 144 90 144 90 156.5 72.5 c 128,-1,14
 169 55 169 55 203 55 c 2,15,-1
 600 55 l 2,16,17
 639 55 639 55 635 28 c 0,0,1
EndSplineSet
EndChar
StartChar: M
Encoding: 77 77 46
Width: 1007
VWidth: 1473
Flags: W
HStem: -7 21G<78 105 487 515 896 923.5> 672 56<409.092 508.705 785.637 901.128>
Fore
946 32 m 1,0,1
 937 -7 937 -7 910 -7 c 0,2,3
 882 -7 882 -7 891 32 c 2,4,-1
 991 502 l 2,5,6
 1002 551 1002 551 994 583.5 c 128,-1,7
 986 616 986 616 966 636 c 128,-1,8
 946 656 946 656 916.5 664 c 128,-1,9
 887 672 887 672 853 672 c 0,10,11
 825 672 825 672 792.5 664.5 c 128,-1,12
 760 657 760 657 729 638 c 128,-1,13
 698 619 698 619 673 585.5 c 128,-1,14
 648 552 648 552 638 502 c 2,15,-1
 538 32 l 2,16,17
 529 -7 529 -7 501 -7 c 256,18,19
 473 -7 473 -7 482 32 c 2,20,-1
 582 502 l 2,21,22
 592 550 592 550 584 582 c 128,-1,23
 576 614 576 614 555.5 634 c 128,-1,24
 535 654 535 654 506 663 c 128,-1,25
 477 672 477 672 445 672 c 0,26,27
 410 672 410 672 375 663 c 128,-1,28
 340 654 340 654 310.5 634 c 128,-1,29
 281 614 281 614 260 582 c 128,-1,30
 239 550 239 550 228 502 c 2,31,-1
 128 32 l 2,32,33
 119 -7 119 -7 91 -7 c 0,34,35
 65 -7 65 -7 74 32 c 2,36,-1
 174 502 l 2,37,38
 189 576 189 576 225.5 621 c 128,-1,39
 262 666 262 666 305 689.5 c 128,-1,40
 348 713 348 713 390 720.5 c 128,-1,41
 432 728 432 728 458 728 c 0,42,43
 533 728 533 728 577.5 691 c 128,-1,44
 622 654 622 654 632 605 c 1,45,46
 667 661 667 661 731.5 694.5 c 128,-1,47
 796 728 796 728 866 728 c 0,48,49
 893 728 893 728 929.5 720.5 c 128,-1,50
 966 713 966 713 997 689.5 c 128,-1,51
 1028 666 1028 666 1044.5 621 c 128,-1,52
 1061 576 1061 576 1046 502 c 2,53,-1
 946 32 l 1,0,1
EndSplineSet
EndChar
StartChar: N
Encoding: 78 78 47
Width: 704
VWidth: 1473
Flags: W
HStem: 0 21G<79.5 106.5 596.5 623.5> 699 20G<749 776.5>
Fore
645 40 m 1,0,1
 636 0 636 0 611 0 c 0,2,3
 582 0 582 0 591 40 c 2,4,-1
 642 278 l 1,5,6
 617 374 617 374 588.5 441 c 128,-1,7
 560 508 560 508 530.5 551 c 128,-1,8
 501 594 501 594 472 617.5 c 128,-1,9
 443 641 443 641 417 651 c 0,10,11
 355 675 355 675 293 639 c 0,12,13
 265 622 265 622 252 588.5 c 128,-1,14
 239 555 239 555 231 526 c 2,15,-1
 128 40 l 2,16,17
 119 0 119 0 94 0 c 0,18,19
 65 0 65 0 74 40 c 2,20,-1
 181 542 l 2,21,22
 189 582 189 582 211.5 620.5 c 128,-1,23
 234 659 234 659 273 684 c 0,24,25
 346 723 346 723 417 710 c 0,26,27
 448 704 448 704 480.5 686.5 c 128,-1,28
 513 669 513 669 546 632 c 128,-1,29
 579 595 579 595 609 537.5 c 128,-1,30
 639 480 639 480 666 395 c 1,31,-1
 726 679 l 2,32,33
 735 719 735 719 763 719 c 0,34,35
 790 719 790 719 781 679 c 2,36,-1
 645 40 l 1,0,1
EndSplineSet
EndChar
StartChar: O
Encoding: 79 79 48
Width: 766
VWidth: 1473
Flags: W
HStem: -7 57<288.079 510.075> 664 58<408.896 632.268>
Fore
796 357 m 0,0,1
 778 275 778 275 739 208 c 128,-1,2
 700 141 700 141 645.5 93.5 c 128,-1,3
 591 46 591 46 523 19.5 c 128,-1,4
 455 -7 455 -7 380 -7 c 0,5,6
 309 -7 309 -7 253 19.5 c 128,-1,7
 197 46 197 46 162.5 93.5 c 128,-1,8
 128 141 128 141 116.5 208 c 128,-1,9
 105 275 105 275 122 357 c 256,10,11
 140 438 140 438 179 505.5 c 128,-1,12
 218 573 218 573 273.5 621 c 128,-1,13
 329 669 329 669 396.5 695.5 c 128,-1,14
 464 722 464 722 536 722 c 0,15,16
 611 722 611 722 667 694.5 c 128,-1,17
 723 667 723 667 757 618.5 c 128,-1,18
 791 570 791 570 801.5 503 c 128,-1,19
 812 436 812 436 796 357 c 0,0,1
741 357 m 0,20,21
 754 420 754 420 747 476.5 c 128,-1,22
 740 533 740 533 712.5 574.5 c 128,-1,23
 685 616 685 616 637 640 c 128,-1,24
 589 664 589 664 523 664 c 0,25,26
 458 664 458 664 401.5 640.5 c 128,-1,27
 345 617 345 617 299 576.5 c 128,-1,28
 253 536 253 536 221.5 479.5 c 128,-1,29
 190 423 190 423 177 357 c 0,30,31
 161 284 161 284 171 227.5 c 128,-1,32
 181 171 181 171 211.5 131 c 128,-1,33
 242 91 242 91 289 70.5 c 128,-1,34
 336 50 336 50 393 50 c 0,35,36
 457 50 457 50 513.5 73 c 128,-1,37
 570 96 570 96 615.5 136.5 c 128,-1,38
 661 177 661 177 693.5 233 c 128,-1,39
 726 289 726 289 741 357 c 0,20,21
EndSplineSet
EndChar
StartChar: P
Encoding: 80 80 49
Width: 690
VWidth: 1473
Flags: W
HStem: -1 21G<68.5 95.5> 666 56<452.083 578.827>
Fore
247 358 m 1,0,1
 233 373 233 373 236.5 386 c 128,-1,2
 240 399 240 399 253 407 c 0,3,4
 270 417 270 417 283 406.5 c 128,-1,5
 296 396 296 396 301 390 c 0,6,7
 333 357 333 357 392.5 338.5 c 128,-1,8
 452 320 452 320 514.5 326.5 c 128,-1,9
 577 333 577 333 629 370.5 c 128,-1,10
 681 408 681 408 698 485 c 0,11,12
 709 529 709 529 698.5 562 c 128,-1,13
 688 595 688 595 661.5 618.5 c 128,-1,14
 635 642 635 642 594.5 654 c 128,-1,15
 554 666 554 666 501 666 c 256,16,17
 448 666 448 666 399.5 653.5 c 128,-1,18
 351 641 351 641 312.5 616.5 c 128,-1,19
 274 592 274 592 247.5 556 c 128,-1,20
 221 520 221 520 211 474 c 2,21,-1
 118 38 l 2,22,23
 109 -1 109 -1 82 -1 c 128,-1,24
 55 -1 55 -1 63 38 c 2,25,-1
 158 485 l 2,26,27
 171 548 171 548 208 593.5 c 128,-1,28
 245 639 245 639 293.5 667 c 128,-1,29
 342 695 342 695 399.5 708.5 c 128,-1,30
 457 722 457 722 513 722 c 0,31,32
 561 722 561 722 610.5 710 c 128,-1,33
 660 698 660 698 696 670 c 128,-1,34
 732 642 732 642 750 597 c 128,-1,35
 768 552 768 552 754 486 c 128,-1,36
 740 420 740 420 703.5 375.5 c 128,-1,37
 667 331 667 331 618.5 306 c 128,-1,38
 570 281 570 281 515 274 c 128,-1,39
 460 267 460 267 408.5 275 c 128,-1,40
 357 283 357 283 314 304.5 c 128,-1,41
 271 326 271 326 247 358 c 1,0,1
EndSplineSet
EndChar
StartChar: Q
Encoding: 81 81 50
Width: 770
VWidth: 1473
Flags: W
HStem: -7 57<315.079 500.234> 186 56<421.396 500.486> 664 58<407.812 634.404>
VStem: 644 53<-21.2172 18.0347>
Fore
797 357 m 0,0,1
 782 290 782 290 750.5 227.5 c 128,-1,2
 719 165 719 165 669 115 c 1,3,4
 681 90 681 90 687.5 62.5 c 128,-1,5
 694 35 694 35 697 -3 c 0,6,7
 698 -15 698 -15 690 -25 c 128,-1,8
 682 -35 682 -35 670 -38 c 256,9,10
 659 -41 659 -41 651.5 -36 c 128,-1,11
 644 -31 644 -31 644 -19 c 1,12,13
 639 10 639 10 635 32.5 c 128,-1,14
 631 55 631 55 622 74 c 1,15,16
 566 31 566 31 504.5 12 c 128,-1,17
 443 -7 443 -7 382 -7 c 0,18,19
 306 -7 306 -7 250 19.5 c 128,-1,20
 194 46 194 46 159.5 93.5 c 128,-1,21
 125 141 125 141 115 208 c 128,-1,22
 105 275 105 275 122 357 c 0,23,24
 140 436 140 436 178.5 503 c 128,-1,25
 217 570 217 570 270.5 618.5 c 128,-1,26
 324 667 324 667 392.5 694.5 c 128,-1,27
 461 722 461 722 538 722 c 0,28,29
 617 722 617 722 673 692.5 c 128,-1,30
 729 663 729 663 762.5 613 c 128,-1,31
 796 563 796 563 804 496.5 c 128,-1,32
 812 430 812 430 797 357 c 0,0,1
741 357 m 0,33,34
 754 418 754 418 747.5 474 c 128,-1,35
 741 530 741 530 714.5 572 c 128,-1,36
 688 614 688 614 641 639 c 128,-1,37
 594 664 594 664 524 664 c 0,38,39
 461 664 461 664 404.5 642 c 128,-1,40
 348 620 348 620 302 579.5 c 128,-1,41
 256 539 256 539 224 482.5 c 128,-1,42
 192 426 192 426 177 357 c 0,43,44
 162 289 162 289 173 225 c 128,-1,45
 184 161 184 161 225 118 c 1,46,47
 240 140 240 140 264.5 163.5 c 128,-1,48
 289 187 289 187 320.5 204.5 c 128,-1,49
 352 222 352 222 392 232.5 c 128,-1,50
 432 243 432 243 477 242 c 0,51,52
 488 242 488 242 507.5 237.5 c 128,-1,53
 527 233 527 233 549.5 224 c 128,-1,54
 572 215 572 215 595.5 199 c 128,-1,55
 619 183 619 183 639 158 c 1,56,57
 678 197 678 197 703.5 249.5 c 128,-1,58
 729 302 729 302 741 357 c 0,33,34
595 118 m 1,59,60
 564 156 564 156 525 170 c 128,-1,61
 486 184 486 184 463 186 c 0,62,63
 424 187 424 187 391 178 c 128,-1,64
 358 169 358 169 332 153.5 c 128,-1,65
 306 138 306 138 288.5 119 c 128,-1,66
 271 100 271 100 262 84 c 1,67,68
 289 65 289 65 324 57.5 c 128,-1,69
 359 50 359 50 395 50 c 0,70,71
 448 50 448 50 499.5 67 c 128,-1,72
 551 84 551 84 595 118 c 1,59,60
EndSplineSet
EndChar
StartChar: R
Encoding: 82 82 51
Width: 711
VWidth: 1473
Flags: W
HStem: -1 21G<80 107.5> 666 56<463.579 603.643>
Fore
426 283 m 1,0,1
 458 270 458 270 495 234.5 c 128,-1,2
 532 199 532 199 563.5 159 c 128,-1,3
 595 119 595 119 616.5 83 c 128,-1,4
 638 47 638 47 639 32 c 0,5,6
 641 22 641 22 638.5 13 c 128,-1,7
 636 4 636 4 625 -1 c 0,8,9
 603 -13 603 -13 588 12 c 0,10,11
 551 80 551 80 504.5 133 c 128,-1,12
 458 186 458 186 415.5 225 c 128,-1,13
 373 264 373 264 339 287.5 c 128,-1,14
 305 311 305 311 293 320 c 1,15,16
 277 329 277 329 274 342 c 128,-1,17
 271 355 271 355 283 367 c 0,18,19
 298 380 298 380 310.5 376.5 c 128,-1,20
 323 373 323 373 330 370 c 0,21,22
 389 336 389 336 451 326.5 c 128,-1,23
 513 317 513 317 566 331 c 128,-1,24
 619 345 619 345 658 384 c 128,-1,25
 697 423 697 423 710 485 c 0,26,27
 729 572 729 572 673 619 c 128,-1,28
 617 666 617 666 513 666 c 0,29,30
 460 666 460 666 411 653.5 c 128,-1,31
 362 641 362 641 324 616.5 c 128,-1,32
 286 592 286 592 259.5 556 c 128,-1,33
 233 520 233 520 222 474 c 2,34,-1
 130 38 l 2,35,36
 121 -1 121 -1 94 -1 c 0,37,38
 66 -1 66 -1 75 38 c 2,39,-1
 169 485 l 2,40,41
 183 548 183 548 219.5 593.5 c 128,-1,42
 256 639 256 639 305 667 c 128,-1,43
 354 695 354 695 411 708.5 c 128,-1,44
 468 722 468 722 524 722 c 0,45,46
 573 722 573 722 622.5 710 c 128,-1,47
 672 698 672 698 708 670 c 128,-1,48
 744 642 744 642 761.5 597 c 128,-1,49
 779 552 779 552 766 486 c 0,50,51
 753 429 753 429 721 384.5 c 128,-1,52
 689 340 689 340 643.5 313.5 c 128,-1,53
 598 287 598 287 542 279 c 128,-1,54
 486 271 486 271 426 283 c 1,0,1
EndSplineSet
EndChar
StartChar: S
Encoding: 83 83 52
Width: 642
VWidth: 1473
Flags: W
HStem: -7 57<204.689 377.153> 327 58<347.117 439.875> 661 59<384.636 588.192>
Fore
641 199 m 0,0,1
 629 143 629 143 597.5 104 c 128,-1,2
 566 65 566 65 521 40.5 c 128,-1,3
 476 16 476 16 422 4.5 c 128,-1,4
 368 -7 368 -7 314 -7 c 0,5,6
 221 -7 221 -7 153 26.5 c 128,-1,7
 85 60 85 60 65 116 c 0,8,9
 60 128 60 128 65.5 139 c 128,-1,10
 71 150 71 150 82 156 c 0,11,12
 94 164 94 164 105 160 c 128,-1,13
 116 156 116 156 121 146 c 0,14,15
 137 103 137 103 193.5 76.5 c 128,-1,16
 250 50 250 50 327 50 c 0,17,18
 368 50 368 50 410 58 c 128,-1,19
 452 66 452 66 487.5 84 c 128,-1,20
 523 102 523 102 549 130 c 128,-1,21
 575 158 575 158 583 199 c 0,22,23
 592 236 592 236 574.5 261 c 128,-1,24
 557 286 557 286 526 300.5 c 128,-1,25
 495 315 495 315 458 321 c 128,-1,26
 421 327 421 327 390 327 c 0,27,28
 340 327 340 327 291.5 337.5 c 128,-1,29
 243 348 243 348 207 370 c 128,-1,30
 171 392 171 392 152.5 427.5 c 128,-1,31
 134 463 134 463 144 513 c 0,32,33
 155 558 155 558 183.5 595.5 c 128,-1,34
 212 633 212 633 255.5 661 c 128,-1,35
 299 689 299 689 355.5 704.5 c 128,-1,36
 412 720 412 720 477 720 c 0,37,38
 570 720 570 720 635.5 687 c 128,-1,39
 701 654 701 654 722 598 c 0,40,41
 725 588 725 588 720 577 c 128,-1,42
 715 566 715 566 703 560 c 0,43,44
 691 552 691 552 680.5 555 c 128,-1,45
 670 558 670 558 666 569 c 0,46,47
 650 611 650 611 596 636 c 128,-1,48
 542 661 542 661 466 661 c 0,49,50
 418 661 418 661 374.5 651 c 128,-1,51
 331 641 331 641 295 622 c 128,-1,52
 259 603 259 603 234 575.5 c 128,-1,53
 209 548 209 548 202 513 c 0,54,55
 194 476 194 476 210.5 451.5 c 128,-1,56
 227 427 227 427 257 412.5 c 128,-1,57
 287 398 287 398 325.5 391.5 c 128,-1,58
 364 385 364 385 402 385 c 0,59,60
 442 385 442 385 488.5 375 c 128,-1,61
 535 365 535 365 572.5 344 c 128,-1,62
 610 323 610 323 630.5 287.5 c 128,-1,63
 651 252 651 252 641 199 c 0,0,1
EndSplineSet
EndChar
StartChar: T
Encoding: 84 84 53
Width: 637
VWidth: 1473
Flags: W
HStem: -4 21G<305 332> 667 52<377.981 435 489 622.275>
Fore
355 35 m 2,0,1
 346 -4 346 -4 318 -4 c 0,2,3
 292 -4 292 -4 301 35 c 2,4,-1
 435 667 l 1,5,6
 401 666 401 666 367.5 662.5 c 128,-1,7
 334 659 334 659 302.5 650 c 128,-1,8
 271 641 271 641 240 626 c 128,-1,9
 209 611 209 611 181 586 c 1,10,11
 174 577 174 577 161.5 576 c 128,-1,12
 149 575 149 575 140 582 c 0,13,14
 133 589 133 589 135 599.5 c 128,-1,15
 137 610 137 610 144 617 c 0,16,17
 184 664 184 664 266.5 691.5 c 128,-1,18
 349 719 349 719 471 719 c 0,19,20
 597 719 597 719 667 691.5 c 128,-1,21
 737 664 737 664 757 617 c 0,22,23
 760 610 760 610 758 599.5 c 128,-1,24
 756 589 756 589 744 582 c 256,25,26
 732 575 732 575 722 577 c 128,-1,27
 712 579 712 579 706 586 c 0,28,29
 679 628 679 628 624 647 c 128,-1,30
 569 666 569 666 489 667 c 1,31,-1
 355 35 l 2,0,1
EndSplineSet
EndChar
StartChar: U
Encoding: 85 85 54
Width: 741
VWidth: 1473
Flags: W
HStem: -7 56<259.799 511.611>
VStem: 115.5 56.5<177.121 244.229> 121.5 56<116.751 143.5 166.5 204.124 255.883 286.293>
Fore
728 270 m 1,0,1
 728 267 728 267 724 248.5 c 128,-1,2
 720 230 720 230 709 202.5 c 128,-1,3
 698 175 698 175 677.5 142.5 c 128,-1,4
 657 110 657 110 623 80 c 0,5,6
 527 -7 527 -7 368 -7 c 0,7,8
 212 -7 212 -7 150 80 c 0,9,10
 128 110 128 110 121.5 143.5 c 128,-1,11
 115 177 115 177 115.5 205 c 128,-1,12
 116 233 116 233 120.5 251.5 c 128,-1,13
 125 270 125 270 125 273 c 1,14,-1
 136 323 l 2,15,16
 143 361 143 361 160.5 442 c 128,-1,17
 178 523 178 523 211 675 c 0,18,19
 220 715 220 715 247 715 c 128,-1,20
 274 715 274 715 265 675 c 2,21,-1
 178 270 l 2,22,23
 178 268 178 268 175 253.5 c 128,-1,24
 172 239 172 239 172 216 c 128,-1,25
 172 193 172 193 177.5 166.5 c 128,-1,26
 183 140 183 140 199 116 c 0,27,28
 250 49 250 49 382 49 c 256,29,30
 513 49 513 49 589 116 c 0,31,32
 614 137 614 137 629.5 163.5 c 128,-1,33
 645 190 645 190 656 214 c 0,34,35
 667 240 667 240 673 267 c 2,36,-1
 760 675 l 2,37,38
 769 715 769 715 797 715 c 0,39,40
 824 715 824 715 815 675 c 2,41,-1
 728 270 l 1,0,1
EndSplineSet
EndChar
StartChar: V
Encoding: 86 86 55
Width: 630
VWidth: 1473
Flags: W
HStem: 0.5 47.5<255.563 267.5 292 293.062 293.062 309.062 301.062 341.271 339.635 342.908 342.908 403.735>
VStem: 156 58<114.038 688.473>
Fore
561 206 m 2,0,1
 529 128 529 128 494.5 86 c 128,-1,2
 460 44 460 44 426.5 24 c 128,-1,3
 393 4 393 4 364.5 0.5 c 128,-1,4
 336 -3 336 -3 315 -3 c 256,5,6
 295 -3 295 -3 267.5 0.5 c 128,-1,7
 240 4 240 4 216 24 c 128,-1,8
 192 44 192 44 174 86 c 128,-1,9
 156 128 156 128 156 206 c 2,10,-1
 156 670 l 2,11,12
 158 688 158 688 163.5 699 c 128,-1,13
 169 710 169 710 186 715 c 0,14,15
 197 719 197 719 205.5 708 c 128,-1,16
 214 697 214 697 214 676 c 2,17,-1
 212 206 l 2,18,19
 212 146 212 146 224.5 113 c 128,-1,20
 237 80 237 80 255 65 c 128,-1,21
 273 50 273 50 292 48 c 128,-1,22
 311 46 311 46 326 46 c 256,23,24
 340 46 340 46 360 48 c 128,-1,25
 380 50 380 50 404.5 65 c 128,-1,26
 429 80 429 80 454.5 113 c 128,-1,27
 480 146 480 146 507 206 c 2,28,-1
 706 676 l 2,29,30
 715 697 715 697 726.5 708 c 128,-1,31
 738 719 738 719 751 715 c 0,32,33
 766 710 766 710 766 699 c 128,-1,34
 766 688 766 688 759 670 c 2,35,-1
 561 206 l 2,0,1
EndSplineSet
EndChar
StartChar: W
Encoding: 87 87 56
Width: 972
VWidth: 1473
Flags: W
HStem: -18 56<246.124 360.422 636.103 737.764> 697 20G<215 242 624 652 1033 1060.5>
Fore
1065 678 m 2,0,-1
 965 208 l 2,1,2
 949 134 949 134 914.5 89 c 128,-1,3
 880 44 880 44 838.5 20.5 c 128,-1,4
 797 -3 797 -3 756.5 -10.5 c 128,-1,5
 716 -18 716 -18 689 -18 c 0,6,7
 619 -18 619 -18 569.5 15.5 c 128,-1,8
 520 49 520 49 508 105 c 1,9,10
 477 56 477 56 417 19 c 128,-1,11
 357 -18 357 -18 281 -18 c 0,12,13
 255 -18 255 -18 216.5 -10.5 c 128,-1,14
 178 -3 178 -3 145 20.5 c 128,-1,15
 112 44 112 44 94.5 89 c 128,-1,16
 77 134 77 134 93 208 c 2,17,-1
 193 678 l 2,18,19
 202 717 202 717 228 717 c 0,20,21
 256 717 256 717 247 678 c 2,22,-1
 147 208 l 2,23,24
 137 161 137 161 145 128.5 c 128,-1,25
 153 96 153 96 174.5 76 c 128,-1,26
 196 56 196 56 227 47 c 128,-1,27
 258 38 258 38 293 38 c 0,28,29
 326 38 326 38 358 47 c 128,-1,30
 390 56 390 56 419 76 c 128,-1,31
 448 96 448 96 469.5 128.5 c 128,-1,32
 491 161 491 161 501 208 c 2,33,-1
 601 678 l 2,34,35
 610 717 610 717 638 717 c 256,36,37
 666 717 666 717 657 678 c 2,38,-1
 557 208 l 2,39,40
 547 156 547 156 558 123.5 c 128,-1,41
 569 91 569 91 591.5 72 c 128,-1,42
 614 53 614 53 643.5 45.5 c 128,-1,43
 673 38 673 38 701 38 c 0,44,45
 735 38 735 38 768 46.5 c 128,-1,46
 801 55 801 55 829 74.5 c 128,-1,47
 857 94 857 94 878.5 126.5 c 128,-1,48
 900 159 900 159 910 208 c 2,49,-1
 1011 678 l 2,50,51
 1019 717 1019 717 1047 717 c 0,52,53
 1074 717 1074 717 1065 678 c 2,0,-1
EndSplineSet
EndChar
StartChar: X
Encoding: 88 88 57
Width: 639
VWidth: 1473
Flags: W
HStem: 339 57<372.531 436.219>
Fore
628 34 m 1,0,1
 631 24 631 24 625 12.5 c 128,-1,2
 619 1 619 1 607 -4 c 256,3,4
 595 -10 595 -10 585 -6.5 c 128,-1,5
 575 -3 575 -3 572 9 c 2,6,-1
 505 240 l 2,7,8
 486 301 486 301 457.5 320 c 128,-1,9
 429 339 429 339 393 339 c 128,-1,10
 357 339 357 339 320.5 320 c 128,-1,11
 284 301 284 301 239 240 c 2,12,-1
 75 9 l 2,13,14
 68 -3 68 -3 56 -6.5 c 128,-1,15
 44 -10 44 -10 34 -4 c 0,16,17
 25 1 25 1 23 12.5 c 128,-1,18
 21 24 21 24 28 34 c 2,19,-1
 199 270 l 2,20,21
 214 287 214 287 224 300.5 c 128,-1,22
 234 314 234 314 245 325 c 128,-1,23
 256 336 256 336 269.5 346.5 c 128,-1,24
 283 357 283 357 303 367 c 1,25,26
 265 395 265 395 237 467 c 2,27,-1
 165 676 l 2,28,29
 162 688 162 688 168.5 699 c 128,-1,30
 175 710 175 710 187 716 c 0,31,32
 199 720 199 720 209.5 716.5 c 128,-1,33
 220 713 220 713 222 703 c 2,34,-1
 292 488 l 2,35,36
 302 455 302 455 314.5 436.5 c 128,-1,37
 327 418 327 418 341 409.5 c 128,-1,38
 355 401 355 401 372 398.5 c 128,-1,39
 389 396 389 396 407 396 c 256,40,41
 424 396 424 396 441 398.5 c 128,-1,42
 458 401 458 401 476.5 409.5 c 128,-1,43
 495 418 495 418 515 436.5 c 128,-1,44
 535 455 535 455 558 488 c 2,45,-1
 719 703 l 2,46,47
 726 713 726 713 738 716.5 c 128,-1,48
 750 720 750 720 760 716 c 1,49,50
 769 710 769 710 770.5 699 c 128,-1,51
 772 688 772 688 765 676 c 2,52,-1
 604 466 l 2,53,54
 575 429 575 429 547.5 405.5 c 128,-1,55
 520 382 520 382 494 367 c 1,56,57
 514 354 514 354 530.5 331 c 128,-1,58
 547 308 547 308 561 267 c 2,59,-1
 628 34 l 1,0,1
EndSplineSet
EndChar
StartChar: Y
Encoding: 89 89 58
Width: 655
VWidth: 1473
Flags: W
HStem: 0 56<156.752 505.443> 227 56<281.426 503.26> 696 20G<209 235.5 724 751.5>
VStem: 140.5 55.5<409.506 478.229> 146.5 54.5<352.441 378 400.5 438.124 489.883 520.27>
Fore
653 193 m 1,0,1
 635 110 635 110 564 57 c 0,2,3
 491 0 491 0 408 0 c 2,4,-1
 189 0 l 2,5,6
 147 0 147 0 155 28 c 0,7,8
 159 56 159 56 200 56 c 2,9,-1
 420 56 l 2,10,11
 482 56 482 56 533 94 c 0,12,13
 588 137 588 137 598 193 c 2,14,-1
 626 324 l 1,15,16
 580 280 580 280 517 253.5 c 128,-1,17
 454 227 454 227 376 227 c 256,18,19
 298 227 298 227 251.5 249 c 128,-1,20
 205 271 205 271 175 314 c 0,21,22
 153 345 153 345 146.5 378 c 128,-1,23
 140 411 140 411 140.5 439 c 128,-1,24
 141 467 141 467 145.5 485.5 c 128,-1,25
 150 504 150 504 150 507 c 1,26,-1
 155 527 l 2,27,28
 158 544 158 544 164.5 577.5 c 128,-1,29
 171 611 171 611 186 676 c 0,30,31
 194 716 194 716 224 716 c 0,32,33
 247 716 247 716 239 676 c 2,34,-1
 202 504 l 2,35,36
 202 502 202 502 199 487.5 c 128,-1,37
 196 473 196 473 196 450 c 128,-1,38
 196 427 196 427 201 400.5 c 128,-1,39
 206 374 206 374 224 351 c 0,40,41
 249 317 249 317 285 300 c 128,-1,42
 321 283 321 283 387 283 c 256,43,44
 454 283 454 283 503 301.5 c 128,-1,45
 552 320 552 320 591 354 c 0,46,47
 619 379 619 379 634.5 407 c 128,-1,48
 650 435 650 435 654 457 c 2,49,-1
 701 676 l 2,50,51
 710 716 710 716 738 716 c 0,52,53
 765 716 765 716 756 676 c 2,54,-1
 653 193 l 1,0,1
EndSplineSet
EndChar
StartChar: Z
Encoding: 90 90 59
Width: 679
VWidth: 1473
Flags: W
HStem: 0 55<124.896 639.984> 663 54<188.149 701.589>
Fore
141 197 m 0,0,1
 281 295 281 295 395 374 c 0,2,3
 443 408 443 408 489.5 440.5 c 128,-1,4
 536 473 536 473 573 499.5 c 128,-1,5
 610 526 610 526 633.5 542 c 128,-1,6
 657 558 657 558 660 561 c 0,7,8
 682 577 682 577 696 592 c 128,-1,9
 710 607 710 607 713 625 c 0,10,11
 715 644 715 644 702 653.5 c 128,-1,12
 689 663 689 663 656 663 c 2,13,-1
 220 663 l 2,14,15
 178 663 178 663 186 689 c 0,16,17
 192 717 192 717 231 717 c 2,18,-1
 667 717 l 2,19,20
 719 717 719 717 749 694.5 c 128,-1,21
 779 672 779 672 769 625 c 0,22,23
 762 591 762 591 742.5 569.5 c 128,-1,24
 723 548 723 548 687 520 c 2,25,26
 664 504 l 2,27,28
 641 488 641 488 605 462 c 128,-1,29
 569 436 569 436 521.5 403.5 c 128,-1,30
 474 371 474 371 426 337 c 0,31,32
 312 256 312 256 166 156 c 0,33,34
 143 141 143 141 129.5 125.5 c 128,-1,35
 116 110 116 110 115 93 c 0,36,37
 112 74 112 74 124.5 64.5 c 128,-1,38
 137 55 137 55 171 55 c 2,39,-1
 607 55 l 2,40,41
 647 55 647 55 642 28 c 0,42,43
 636 0 636 0 597 0 c 2,44,-1
 161 0 l 2,45,46
 109 0 109 0 79 23 c 128,-1,47
 49 46 49 46 59 93 c 0,48,49
 66 127 66 127 85.5 148 c 128,-1,50
 105 169 105 169 141 197 c 0,0,1
EndSplineSet
EndChar
StartChar: bracketleft
Encoding: 91 91 60
Width: 362
VWidth: 1473
Flags: W
HStem: -181 54<108 294.916> 706 54<283 483.188>
VStem: 52 433<-137 734 -137 -137>
Fore
296 -155 m 0,0,1
 292 -181 292 -181 250 -181 c 2,2,-1
 81 -181 l 2,3,4
 57 -181 57 -181 52 -168 c 128,-1,5
 47 -155 47 -155 52 -137 c 2,6,-1
 233 716 l 2,7,8
 236 734 236 734 247 747 c 128,-1,9
 258 760 258 760 281 760 c 2,10,-1
 451 760 l 2,11,12
 491 760 491 760 485 734 c 0,13,14
 480 706 480 706 439 706 c 2,15,-1
 283 706 l 1,16,-1
 108 -127 l 1,17,-1
 262 -127 l 2,18,19
 302 -127 302 -127 296 -155 c 0,0,1
EndSplineSet
EndChar
StartChar: backslash
Encoding: 92 92 61
Width: 312
VWidth: 1473
Flags: W
VStem: 128 220<25 706 706 706>
Fore
348 25 m 1,0,1
 351 16 351 16 345 6.5 c 128,-1,2
 339 -3 339 -3 329 -7 c 256,3,4
 318 -12 318 -12 309.5 -8 c 128,-1,5
 301 -4 301 -4 298 4 c 2,6,-1
 128 706 l 2,7,8
 125 716 125 716 131 725.5 c 128,-1,9
 137 735 137 735 147 738 c 0,10,11
 159 742 159 742 167 739.5 c 128,-1,12
 175 737 175 737 177 726 c 2,13,-1
 348 25 l 1,0,1
EndSplineSet
EndChar
StartChar: bracketright
Encoding: 93 93 62
Width: 360
VWidth: 1473
Flags: W
HStem: -181 54<-1.4375 197> 706 54<187.406 374>
VStem: -3 435<-155 716 -155 -155>
Fore
250 -137 m 2,0,1
 246 -155 246 -155 235 -168 c 128,-1,2
 224 -181 224 -181 199 -181 c 2,3,-1
 29 -181 l 2,4,5
 -7 -181 -7 -181 -3 -155 c 0,6,7
 1 -127 1 -127 41 -127 c 2,8,-1
 197 -127 l 1,9,-1
 374 706 l 1,10,-1
 218 706 l 2,11,12
 181 706 181 706 186 734 c 0,13,14
 192 760 192 760 230 760 c 2,15,-1
 399 760 l 2,16,17
 424 760 424 760 429.5 747 c 128,-1,18
 435 734 435 734 432 716 c 2,19,-1
 250 -137 l 2,0,1
EndSplineSet
EndChar
StartChar: asciicircum
Encoding: 94 94 63
Width: 677
VWidth: 1473
Flags: W
HStem: 253.5 462.5<200.5 487.5 791.205 880.257>
VStem: 176 437<281 286 274 289 274 274>
Fore
613 289 m 1,0,1
 613 281 613 281 611.5 276 c 128,-1,2
 610 271 610 271 601 264 c 0,3,4
 589 255 589 255 578 255 c 128,-1,5
 567 255 567 255 560 264 c 1,6,-1
 473 647 l 1,7,-1
 224 264 l 1,8,9
 212 255 212 255 200.5 253.5 c 128,-1,10
 189 252 189 252 181 261 c 0,11,12
 175 268 175 268 176 274 c 128,-1,13
 178 286 l 1,14,-1
 466 707 l 1,15,16
 476 716 476 716 487.5 716 c 128,-1,17
 499 716 499 716 507 707 c 1,18,-1
 613 289 l 1,0,1
EndSplineSet
EndChar
StartChar: underscore
Encoding: 95 95 64
Width: 677
VWidth: 1473
Flags: W
HStem: -124 50<-15 651>
Fore
-25 -124 m 1,0,-1
 -15 -74 l 1,1,-1
 661 -74 l 1,2,-1
 651 -124 l 1,3,-1
 -25 -124 l 1,0,-1
EndSplineSet
EndChar
StartChar: grave
Encoding: 96 96 65
Width: 223
VWidth: 1473
Flags: W
HStem: 480 248<212 268 212 268 268 268>
Fore
252 520 m 1,0,1
 245 482 245 482 212 480 c 0,2,3
 183 480 183 480 193 520 c 2,4,-1
 228 689 l 2,5,6
 231 710 231 710 242 719 c 128,-1,7
 253 728 253 728 268 728 c 0,8,9
 295 728 295 728 287 689 c 2,10,-1
 252 520 l 1,0,1
EndSplineSet
EndChar
StartChar: a
Encoding: 97 97 66
Width: 633
VWidth: 1473
Flags: W
HStem: -7 50<185.833 414.387> 305 54<280.973 467.035> 474 55<308.855 510.215>
VStem: 581 57<311.586 413.092>
Fore
575 27 m 2,0,1
 572 15 572 15 562 7.5 c 128,-1,2
 552 0 552 0 541 0 c 256,3,4
 529 0 529 0 523 7.5 c 128,-1,5
 517 15 517 15 519 27 c 2,6,-1
 529 74 l 1,7,8
 483 35 483 35 422.5 14 c 128,-1,9
 362 -7 362 -7 287 -7 c 0,10,11
 215 -7 215 -7 171.5 10.5 c 128,-1,12
 128 28 128 28 106 54.5 c 128,-1,13
 84 81 84 81 80.5 113.5 c 128,-1,14
 77 146 77 146 84 175 c 0,15,16
 106 259 106 259 183.5 309 c 128,-1,17
 261 359 261 359 382 359 c 0,18,19
 430 358 430 358 470 348 c 0,20,21
 504 339 504 339 533.5 320 c 128,-1,22
 563 301 563 301 570 267 c 1,23,24
 582 312 582 312 581 348.5 c 128,-1,25
 580 385 580 385 560 414 c 0,26,27
 517 474 517 474 389 474 c 0,28,29
 337 474 337 474 296.5 462.5 c 128,-1,30
 256 451 256 451 214 430 c 0,31,32
 200 423 200 423 188.5 421.5 c 128,-1,33
 177 420 177 420 169 429 c 0,34,35
 164 438 164 438 168 450.5 c 128,-1,36
 172 463 172 463 192 474 c 0,37,38
 228 495 228 495 280.5 512 c 128,-1,39
 333 529 333 529 404 529 c 0,40,41
 552 529 552 529 610 452 c 0,42,43
 638 414 638 414 638 370 c 128,-1,44
 638 326 638 326 631 289 c 2,45,-1
 575 27 l 2,0,1
542 172 m 0,46,47
 548 196 548 196 545 219.5 c 128,-1,48
 542 243 542 243 523 262 c 128,-1,49
 504 281 504 281 466.5 293 c 128,-1,50
 429 305 429 305 367 305 c 0,51,52
 329 305 329 305 291 297 c 128,-1,53
 253 289 253 289 221 272 c 128,-1,54
 189 255 189 255 166 230.5 c 128,-1,55
 143 206 143 206 136 175 c 0,56,57
 119 108 119 108 166.5 75.5 c 128,-1,58
 214 43 214 43 306 43 c 0,59,60
 367 43 367 43 409.5 55.5 c 128,-1,61
 452 68 452 68 480 87 c 128,-1,62
 508 106 508 106 523 129 c 128,-1,63
 538 152 538 152 542 172 c 0,46,47
EndSplineSet
Substitution2: "Single Substitution lookup 22 subtable" uni0E38
Substitution2: "Single Substitution lookup 22 subtable" uni0E38
EndChar
StartChar: b
Encoding: 98 98 67
Width: 674
VWidth: 1473
Flags: W
HStem: -4 57<247.668 468.055> 468 58<364.667 554.601> 826 20G<268 288>
Fore
681 261 m 0,0,1
 669 205 669 205 639.5 156.5 c 128,-1,2
 610 108 610 108 567 72.5 c 128,-1,3
 524 37 524 37 467.5 16.5 c 128,-1,4
 411 -4 411 -4 345 -4 c 0,5,6
 192 -4 192 -4 140 91 c 1,7,-1
 125 22 l 2,8,9
 122 10 122 10 112 1.5 c 128,-1,10
 102 -7 102 -7 90 -7 c 256,11,12
 78 -7 78 -7 72 1.5 c 128,-1,13
 66 10 66 10 69 22 c 2,14,-1
 237 818 l 2,15,16
 240 829 240 829 251 837.5 c 128,-1,17
 262 846 262 846 274 846 c 0,18,19
 302 846 302 846 295 818 c 2,20,-1
 214 433 l 1,21,22
 256 474 256 474 315 500 c 128,-1,23
 374 526 374 526 457 526 c 0,24,25
 524 526 524 526 572 505.5 c 128,-1,26
 620 485 620 485 648 448.5 c 128,-1,27
 676 412 676 412 684 363.5 c 128,-1,28
 692 315 692 315 681 261 c 0,0,1
625 261 m 0,29,30
 645 352 645 352 599.5 410 c 128,-1,31
 554 468 554 468 445 468 c 0,32,33
 405 468 405 468 362.5 457 c 128,-1,34
 320 446 320 446 282.5 421 c 128,-1,35
 245 396 245 396 216 357 c 128,-1,36
 187 318 187 318 177 261 c 0,37,38
 158 171 158 171 202.5 112 c 128,-1,39
 247 53 247 53 357 53 c 0,40,41
 436 53 436 53 487 80.5 c 128,-1,42
 538 108 538 108 568 144 c 128,-1,43
 598 180 598 180 610 213.5 c 128,-1,44
 622 247 622 247 625 261 c 0,29,30
EndSplineSet
Substitution2: "Single Substitution lookup 22 subtable" uni0E39
Substitution2: "Single Substitution lookup 22 subtable" uni0E39
EndChar
StartChar: c
Encoding: 99 99 68
Width: 595
VWidth: 1473
Flags: W
HStem: -4 57<229.124 460.93> 468 58<312.184 541.907>
Fore
641 443 m 0,0,1
 648 435 648 435 644.5 422.5 c 128,-1,2
 641 410 641 410 631 402 c 256,3,4
 620 395 620 395 609 395.5 c 128,-1,5
 598 396 598 396 592 405 c 0,6,7
 551 468 551 468 424 468 c 0,8,9
 321 468 321 468 249 413 c 128,-1,10
 177 358 177 358 156 261 c 0,11,12
 137 169 137 169 183.5 111 c 128,-1,13
 230 53 230 53 336 53 c 0,14,15
 463 53 463 53 530 116 c 0,16,17
 541 125 541 125 552 126 c 128,-1,18
 563 127 563 127 570 118 c 0,19,20
 577 110 577 110 574.5 98.5 c 128,-1,21
 572 87 572 87 563 78 c 0,22,23
 473 -4 473 -4 324 -4 c 0,24,25
 262 -4 262 -4 214 16.5 c 128,-1,26
 166 37 166 37 137 72.5 c 128,-1,27
 108 108 108 108 98 156.5 c 128,-1,28
 88 205 88 205 100 261 c 0,29,30
 110 306 110 306 137 353.5 c 128,-1,31
 164 401 164 401 205.5 439 c 128,-1,32
 247 477 247 477 304.5 501.5 c 128,-1,33
 362 526 362 526 436 526 c 0,34,35
 585 526 585 526 641 443 c 0,0,1
EndSplineSet
Substitution2: "Single Substitution lookup 22 subtable" uni0E3A
Substitution2: "Single Substitution lookup 22 subtable" uni0E3A
EndChar
StartChar: d
Encoding: 100 100 69
Width: 674
VWidth: 1473
Flags: W
HStem: -3 58<225.532 446.417> 470 57<313.061 498.659> 827 20G<751 763>
Fore
100 262 m 0,0,1
 112 317 112 317 140.5 365.5 c 128,-1,2
 169 414 169 414 212.5 450 c 128,-1,3
 256 486 256 486 313 506.5 c 128,-1,4
 370 527 370 527 438 527 c 0,5,6
 520 527 520 527 568 501.5 c 128,-1,7
 616 476 616 476 641 435 c 1,8,-1
 723 819 l 2,9,10
 726 831 726 831 735.5 839 c 128,-1,11
 745 847 745 847 757 847 c 256,12,13
 769 847 769 847 776.5 839 c 128,-1,14
 784 831 784 831 781 819 c 2,15,-1
 611 24 l 2,16,17
 608 12 608 12 598.5 3 c 128,-1,18
 589 -6 589 -6 577 -6 c 256,19,20
 566 -6 566 -6 559 3 c 128,-1,21
 552 12 552 12 555 24 c 2,22,-1
 570 93 l 1,23,24
 476 -3 476 -3 324 -3 c 0,25,26
 258 -3 258 -3 210 17.5 c 128,-1,27
 162 38 162 38 134 73.5 c 128,-1,28
 106 109 106 109 97 157.5 c 128,-1,29
 88 206 88 206 100 262 c 0,0,1
156 262 m 0,30,31
 153 249 153 249 151 215 c 128,-1,32
 149 181 149 181 163 145 c 128,-1,33
 177 109 177 109 216.5 82 c 128,-1,34
 256 55 256 55 336 55 c 0,35,36
 446 55 446 55 515.5 113.5 c 128,-1,37
 585 172 585 172 604 262 c 0,38,39
 617 320 617 320 606 359 c 128,-1,40
 595 398 595 398 567 423 c 128,-1,41
 539 448 539 448 501.5 459 c 128,-1,42
 464 470 464 470 424 470 c 0,43,44
 315 470 315 470 246 412 c 128,-1,45
 177 354 177 354 156 262 c 0,30,31
EndSplineSet
EndChar
StartChar: e
Encoding: 101 101 70
Width: 645
VWidth: 1473
Flags: W
HStem: -6 58<235.836 455.253> 239 56<168 589.687> 474 58<314.898 530.6>
VStem: 602 64.5<328.943 340 340 379.829>
Fore
589 141 m 0,0,1
 597 133 597 133 593 117.5 c 128,-1,2
 589 102 589 102 577 94 c 1,3,4
 532 47 532 47 469.5 20.5 c 128,-1,5
 407 -6 407 -6 327 -6 c 0,6,7
 197 -6 197 -6 137.5 67.5 c 128,-1,8
 78 141 78 141 105 267 c 0,9,10
 115 314 115 314 142 361 c 128,-1,11
 169 408 169 408 211 446.5 c 128,-1,12
 253 485 253 485 310 508.5 c 128,-1,13
 367 532 367 532 436 532 c 0,14,15
 520 532 520 532 565.5 507 c 128,-1,16
 611 482 611 482 631 457 c 0,17,18
 664 412 664 412 666.5 372.5 c 128,-1,19
 669 333 669 333 653.5 303 c 128,-1,20
 638 273 638 273 612 256 c 128,-1,21
 586 239 586 239 566 239 c 2,22,-1
 155 239 l 1,23,24
 143 150 143 150 195 101 c 128,-1,25
 247 52 247 52 339 52 c 0,26,27
 405 52 405 52 456.5 74 c 128,-1,28
 508 96 508 96 542 130 c 0,29,30
 554 141 554 141 567 145.5 c 128,-1,31
 580 150 580 150 589 141 c 0,0,1
567 295 m 2,32,33
 580 295 580 295 590 308 c 128,-1,34
 600 321 600 321 602 340 c 128,-1,35
 604 359 604 359 599.5 380.5 c 128,-1,36
 595 402 595 402 582 417 c 0,37,38
 564 435 564 435 529 454.5 c 128,-1,39
 494 474 494 474 424 474 c 0,40,41
 358 474 358 474 311.5 452 c 128,-1,42
 265 430 265 430 235 400 c 128,-1,43
 205 370 205 370 189.5 339.5 c 128,-1,44
 174 309 174 309 168 295 c 1,45,-1
 567 295 l 2,32,33
EndSplineSet
EndChar
StartChar: f
Encoding: 102 102 71
Width: 303
VWidth: 1473
Flags: W
HStem: -6 21G<88.5 115.5> 460 56<304.938 387.438> 787 56<346.889 516.177>
VStem: 82 437<34 816 -121.259 151.599>
Fore
519 816 m 0,0,1
 511 787 511 787 474 787 c 2,2,-1
 430 787 l 2,3,4
 352 787 352 787 315 742.5 c 128,-1,5
 278 698 278 698 264 631 c 2,6,-1
 230 468 l 1,7,8
 245 486 245 486 262.5 495.5 c 128,-1,9
 280 505 280 505 296 510 c 0,10,11
 314 516 314 516 331 516 c 2,12,-1
 358 516 l 2,13,14
 396 516 396 516 390 489 c 0,15,16
 383 460 383 460 346 460 c 2,17,-1
 315 460 l 2,18,19
 290 460 290 460 271 448 c 128,-1,20
 252 436 252 436 238.5 419 c 128,-1,21
 225 402 225 402 216.5 383 c 128,-1,22
 208 364 208 364 205 349 c 2,23,-1
 137 34 l 2,24,25
 128 -6 128 -6 103 -6 c 0,26,27
 74 -6 74 -6 82 34 c 2,28,-1
 209 631 l 2,29,30
 231 732 231 732 294 787.5 c 128,-1,31
 357 843 357 843 454 843 c 2,32,-1
 486 843 l 2,33,34
 524 843 524 843 519 816 c 0,0,1
EndSplineSet
EndChar
StartChar: g
Encoding: 103 103 72
Width: 667
VWidth: 1473
Flags: W
HStem: -260 54<250.198 335.498> -3 58<226.978 415.096> 470 57<313.445 531.43>
Fore
604 -6 m 2,0,1
 583 -99 583 -99 523 -162 c 128,-1,2
 463 -225 463 -225 371 -249 c 0,3,4
 327 -261 327 -261 284.5 -260 c 128,-1,5
 242 -259 242 -259 205.5 -249.5 c 128,-1,6
 169 -240 169 -240 143.5 -221.5 c 128,-1,7
 118 -203 118 -203 108 -177 c 0,8,9
 100 -153 100 -153 125 -140 c 0,10,11
 136 -134 136 -134 147 -137 c 128,-1,12
 158 -140 158 -140 161 -149 c 0,13,14
 166 -165 166 -165 185.5 -178.5 c 128,-1,15
 205 -192 205 -192 233 -199 c 128,-1,16
 261 -206 261 -206 295.5 -206 c 128,-1,17
 330 -206 330 -206 367 -196 c 0,18,19
 387 -192 387 -192 414.5 -180 c 128,-1,20
 442 -168 442 -168 468.5 -146 c 128,-1,21
 495 -124 495 -124 517 -90 c 128,-1,22
 539 -56 539 -56 550 -6 c 2,23,-1
 572 99 l 1,24,25
 529 57 529 57 468 27 c 128,-1,26
 407 -3 407 -3 324 -3 c 0,27,28
 256 -3 256 -3 208.5 17.5 c 128,-1,29
 161 38 161 38 133 74 c 128,-1,30
 105 110 105 110 96.5 158 c 128,-1,31
 88 206 88 206 100 262 c 256,32,33
 112 318 112 318 141.5 366.5 c 128,-1,34
 171 415 171 415 214.5 450.5 c 128,-1,35
 258 486 258 486 314.5 506.5 c 128,-1,36
 371 527 371 527 438 527 c 0,37,38
 588 527 588 527 642 432 c 1,39,-1
 657 501 l 2,40,41
 660 513 660 513 669.5 521.5 c 128,-1,42
 679 530 679 530 691 530 c 256,43,44
 703 530 703 530 709 521.5 c 128,-1,45
 715 513 715 513 712 501 c 2,46,-1
 604 -6 l 2,0,1
156 262 m 0,47,48
 137 171 137 171 182 113 c 128,-1,49
 227 55 227 55 336 55 c 0,50,51
 376 55 376 55 418.5 66 c 128,-1,52
 461 77 461 77 498.5 102 c 128,-1,53
 536 127 536 127 565 166 c 128,-1,54
 594 205 594 205 604 262 c 0,55,56
 623 352 623 352 578 411 c 128,-1,57
 533 470 533 470 424 470 c 0,58,59
 345 470 345 470 294 442.5 c 128,-1,60
 243 415 243 415 213 379 c 128,-1,61
 183 343 183 343 171 309 c 128,-1,62
 159 275 159 275 156 262 c 0,47,48
EndSplineSet
EndChar
StartChar: h
Encoding: 104 104 73
Width: 662
VWidth: 1473
Flags: W
HStem: -6 21G<85.5 97 560 571.5> 473 57<339.746 537.916> 842 20G<269.5 281>
Fore
600 24 m 1,0,1
 597 12 597 12 587 3 c 128,-1,2
 577 -6 577 -6 566 -6 c 256,3,4
 554 -6 554 -6 547.5 3 c 128,-1,5
 541 12 541 12 544 24 c 2,6,-1
 595 265 l 2,7,8
 639 473 639 473 432 473 c 0,9,10
 386 473 386 473 343.5 455.5 c 128,-1,11
 301 438 301 438 266 407.5 c 128,-1,12
 231 377 231 377 207 338 c 128,-1,13
 183 299 183 299 174 256 c 2,14,-1
 125 24 l 2,15,16
 122 12 122 12 112.5 3 c 128,-1,17
 103 -6 103 -6 91 -6 c 256,18,19
 80 -6 80 -6 74 3 c 128,-1,20
 68 12 68 12 71 24 c 2,21,-1
 243 832 l 2,22,23
 246 844 246 844 255 853 c 128,-1,24
 264 862 264 862 275 862 c 256,25,26
 287 862 287 862 294 853 c 128,-1,27
 301 844 301 844 298 832 c 2,28,-1
 209 417 l 1,29,30
 247 464 247 464 307.5 497 c 128,-1,31
 368 530 368 530 443 530 c 0,32,33
 507 530 507 530 552 509.5 c 128,-1,34
 597 489 597 489 622.5 453.5 c 128,-1,35
 648 418 648 418 655.5 369.5 c 128,-1,36
 663 321 663 321 651 265 c 2,37,-1
 600 24 l 1,0,1
EndSplineSet
EndChar
StartChar: i
Encoding: 105 105 74
Width: 184
VWidth: 1473
Flags: W
HStem: -6 21G<77 104.5> 506 20G<188.5 215.5> 597 21G<210.5 225.5>
VStem: 71 193<34 633 644.689 660.864>
Fore
125 34 m 2,0,1
 118 -6 118 -6 91 -6 c 0,2,3
 63 -6 63 -6 71 34 c 2,4,-1
 168 486 l 2,5,6
 174 526 174 526 203 526 c 0,7,8
 228 526 228 526 222 486 c 2,9,-1
 125 34 l 2,0,1
264 633 m 128,-1,11
 261 619 261 619 247 608 c 128,-1,12
 233 597 233 597 218 597 c 256,13,14
 203 597 203 597 194.5 608 c 128,-1,15
 186 619 186 619 189 633 c 128,-1,16
 192 647 192 647 205 658.5 c 128,-1,17
 218 670 218 670 233 670 c 256,18,19
 247 670 247 670 257 658.5 c 128,-1,10
 267 647 267 647 264 633 c 128,-1,11
EndSplineSet
EndChar
StartChar: j
Encoding: 106 106 75
Width: 184
VWidth: 1473
Flags: W
HStem: -299 54<-115.392 -29.0972> 506 20G<194.5 211.5> 597 21G<210.5 225.5>
VStem: -133 397<-271 633 -271 317.226>
Fore
105 -68 m 2,0,1
 93 -119 93 -119 76 -161 c 128,-1,2
 59 -203 59 -203 33 -234 c 128,-1,3
 7 -265 7 -265 -28 -282 c 128,-1,4
 -63 -299 -63 -299 -112 -299 c 0,5,6
 -137 -299 -137 -299 -133 -271 c 0,7,8
 -130 -259 -130 -259 -121 -252 c 128,-1,9
 -112 -245 -112 -245 -100 -245 c 0,10,11
 -38 -245 -38 -245 -4.5 -203.5 c 128,-1,12
 29 -162 29 -162 50 -68 c 2,13,-1
 168 488 l 2,14,15
 171 499 171 499 178.5 512.5 c 128,-1,16
 186 526 186 526 203 526 c 128,-1,17
 220 526 220 526 222.5 512.5 c 128,-1,18
 225 499 225 499 222 488 c 2,19,-1
 105 -68 l 2,0,1
264 633 m 128,-1,21
 261 619 261 619 247 608 c 128,-1,22
 233 597 233 597 218 597 c 256,23,24
 203 597 203 597 194.5 608 c 128,-1,25
 186 619 186 619 189 633 c 128,-1,26
 192 647 192 647 205 658.5 c 128,-1,27
 218 670 218 670 233 670 c 256,28,29
 247 670 247 670 257 658.5 c 128,-1,20
 267 647 267 647 264 633 c 128,-1,21
EndSplineSet
EndChar
StartChar: k
Encoding: 107 107 76
Width: 578
VWidth: 1473
Flags: W
HStem: 0 21G<84 111.5> 827 20G<265.5 293>
VStem: 494 57<17.489 21 21 163.865>
Fore
660 505 m 0,0,1
 669 489 669 489 647 470 c 1,2,3
 627 459.5 l 2,4,5
 607 449 607 449 573 433.5 c 128,-1,6
 539 418 539 418 496.5 398.5 c 128,-1,7
 454 379 454 379 410 358 c 1,8,9
 468 312 468 312 510 227.5 c 128,-1,10
 552 143 552 143 551 31 c 0,11,12
 551 19 551 19 542 10 c 128,-1,13
 533 1 533 1 522 -1 c 256,14,15
 510 -4 510 -4 502 2.5 c 128,-1,16
 494 9 494 9 494 21 c 0,17,18
 496 128 496 128 453.5 208.5 c 128,-1,19
 411 289 411 289 348 330 c 1,20,-1
 292 303 l 0,21,22
 267 292 267 292 252 285 c 0,23,-1
 178 252 l 1,24,25
 162 177 162 177 153 135 c 128,-1,26
 144 93 144 93 140 72 c 0,27,28
 134 47 134 47 133 41 c 1,29,-1
 133 40 l 1,30,31
 124 0 124 0 99 0 c 0,32,33
 69 0 69 0 78 40 c 2,34,-1
 242 806 l 2,35,36
 250 847 250 847 281 847 c 0,37,38
 305 847 305 847 296 806 c 2,39,-1
 192 312 l 1,40,41
 215 323 215 323 256.5 342 c 128,-1,42
 298 361 298 361 345.5 384 c 128,-1,43
 393 407 393 407 443.5 429.5 c 128,-1,44
 494 452 494 452 535 470.5 c 128,-1,45
 576 489 576 489 602.5 501.5 c 128,-1,46
 629 514 629 514 632 514 c 2,47,48
 644 520 644 520 650.5 516.5 c 128,-1,49
 657 513 657 513 660 505 c 0,0,1
EndSplineSet
EndChar
StartChar: l
Encoding: 108 108 77
Width: 184
VWidth: 1473
Flags: W
HStem: 0 21G<78 105.5> 830 20G<259 286>
VStem: 72 218<40 809 40 871.725>
Fore
127 40 m 1,0,1
 118 0 118 0 93 0 c 0,2,3
 63 0 63 0 72 40 c 2,4,-1
 236 809 l 2,5,6
 245 850 245 850 273 850 c 0,7,8
 299 850 299 850 290 809 c 2,9,-1
 127 40 l 1,0,1
EndSplineSet
EndChar
StartChar: m
Encoding: 109 109 78
Width: 932
VWidth: 1473
Flags: W
HStem: 0 21G<84 103 461 473 837 848.5> 480 53<308.017 470.482 683.081 832.404>
Fore
169 505 m 2,0,1
 172 517 172 517 182 525 c 128,-1,2
 192 533 192 533 203 533 c 256,3,4
 215 533 215 533 221 525 c 128,-1,5
 227 517 227 517 224 505 c 2,6,-1
 209 436 l 1,7,8
 239 476 239 476 292 504.5 c 128,-1,9
 345 533 345 533 407 533 c 0,10,11
 466 533 466 533 505 509 c 128,-1,12
 544 485 544 485 560 438 c 1,13,14
 589 476 589 476 635 504.5 c 128,-1,15
 681 533 681 533 750 533 c 0,16,17
 865 533 865 533 910.5 469 c 128,-1,18
 956 405 956 405 927 268 c 2,19,-1
 877 28 l 2,20,21
 874 16 874 16 864 8 c 128,-1,22
 854 0 854 0 843 0 c 256,23,24
 831 0 831 0 824.5 8 c 128,-1,25
 818 16 818 16 821 28 c 2,26,-1
 871 268 l 2,27,28
 894 374 894 374 863 427 c 128,-1,29
 832 480 832 480 740 480 c 0,30,31
 710 480 710 480 681.5 469 c 128,-1,32
 653 458 653 458 630 439 c 128,-1,33
 607 420 607 420 590 395 c 128,-1,34
 573 370 573 370 567 342 c 2,35,-1
 501 28 l 2,36,37
 498 16 498 16 488.5 8 c 128,-1,38
 479 0 479 0 467 0 c 256,39,40
 455 0 455 0 448.5 8 c 128,-1,41
 442 16 442 16 445 28 c 2,42,-1
 511 342 l 2,43,44
 522 396 522 396 491 438 c 128,-1,45
 460 480 460 480 396 480 c 0,46,47
 346 480 346 480 309.5 462.5 c 128,-1,48
 273 445 273 445 246.5 416 c 128,-1,49
 220 387 220 387 202 351 c 128,-1,50
 184 315 184 315 175 277 c 2,51,-1
 124 28 l 2,52,53
 116 0 116 0 90 0 c 0,54,55
 78 0 78 0 72 8 c 128,-1,56
 66 16 66 16 69 28 c 2,57,-1
 119 270 l 1,58,-1
 169 505 l 2,0,1
EndSplineSet
EndChar
StartChar: n
Encoding: 110 110 79
Width: 662
VWidth: 1473
Flags: W
HStem: 0 21G<88 107.5 561 573> 476 56<325.511 530.361>
Fore
601 28 m 1,0,1
 598 16 598 16 588.5 8 c 128,-1,2
 579 0 579 0 567 0 c 256,3,4
 555 0 555 0 549.5 8 c 128,-1,5
 544 16 544 16 547 28 c 2,6,-1
 597 268 l 2,7,8
 617 361 617 361 573 418.5 c 128,-1,9
 529 476 529 476 432 476 c 0,10,11
 337 476 337 476 268 419 c 128,-1,12
 199 362 199 362 178 264 c 2,13,-1
 128 28 l 2,14,15
 121 0 121 0 94 0 c 0,16,17
 82 0 82 0 76.5 8 c 128,-1,18
 71 16 71 16 74 28 c 2,19,-1
 174 504 l 2,20,21
 177 516 177 516 185.5 524 c 128,-1,22
 194 532 194 532 206 532 c 256,23,24
 218 532 218 532 224 524 c 128,-1,25
 230 516 230 516 227 504 c 2,26,-1
 211 429 l 1,27,28
 253 476 253 476 310.5 504.5 c 128,-1,29
 368 533 368 533 443 533 c 0,30,31
 563 533 563 533 620.5 463 c 128,-1,32
 678 393 678 393 651 268 c 2,33,-1
 601 28 l 1,0,1
EndSplineSet
EndChar
StartChar: o
Encoding: 111 111 80
Width: 659
VWidth: 1473
Flags: W
HStem: 0 55<235.105 447.419> 476 54<327.909 522.264>
Fore
664 265 m 0,0,1
 650 199 650 199 617.5 149.5 c 128,-1,2
 585 100 585 100 540.5 67 c 128,-1,3
 496 34 496 34 441.5 17 c 128,-1,4
 387 0 387 0 329 0 c 128,-1,5
 271 0 271 0 224 17.5 c 128,-1,6
 177 35 177 35 146 70 c 128,-1,7
 115 105 115 105 103 154 c 128,-1,8
 91 203 91 203 105 265 c 0,9,10
 115 314 115 314 139.5 361 c 128,-1,11
 164 408 164 408 205 445.5 c 128,-1,12
 246 483 246 483 304 506.5 c 128,-1,13
 362 530 362 530 440 530 c 0,14,15
 504 530 504 530 552 511 c 128,-1,16
 600 492 600 492 629.5 456.5 c 128,-1,17
 659 421 659 421 668.5 372.5 c 128,-1,18
 678 324 678 324 664 265 c 0,0,1
613 265 m 0,19,20
 623 314 623 314 613.5 353 c 128,-1,21
 604 392 604 392 579 419 c 128,-1,22
 554 446 554 446 515.5 461 c 128,-1,23
 477 476 477 476 429 476 c 0,24,25
 382 476 382 476 337.5 462 c 128,-1,26
 293 448 293 448 257 421.5 c 128,-1,27
 221 395 221 395 193.5 356 c 128,-1,28
 166 317 166 317 156 265 c 0,29,30
 136 168 136 168 188 111.5 c 128,-1,31
 240 55 240 55 339 55 c 0,32,33
 420 55 420 55 472 82.5 c 128,-1,34
 524 110 524 110 554.5 146.5 c 128,-1,35
 585 183 585 183 597.5 217.5 c 128,-1,36
 610 252 610 252 613 265 c 0,19,20
EndSplineSet
EndChar
StartChar: p
Encoding: 112 112 81
Width: 674
VWidth: 1473
Flags: W
HStem: 0 57<284.739 471.034> 473 60<336.075 555.473>
Fore
682 265 m 256,0,1
 670 209 670 209 641.5 161 c 128,-1,2
 613 113 613 113 570 77 c 128,-1,3
 527 41 527 41 470.5 20.5 c 128,-1,4
 414 0 414 0 346 0 c 0,5,6
 264 0 264 0 215 26 c 128,-1,7
 166 52 166 52 141 93 c 1,8,-1
 59 -292 l 2,9,10
 56 -303 56 -303 46.5 -311.5 c 128,-1,11
 37 -320 37 -320 25 -320 c 256,12,13
 13 -320 13 -320 6.5 -311.5 c 128,-1,14
 0 -303 0 -303 1 -292 c 2,15,-1
 171 504 l 2,16,17
 174 516 174 516 183.5 524.5 c 128,-1,18
 193 533 193 533 205 533 c 256,19,20
 217 533 217 533 223.5 524.5 c 128,-1,21
 230 516 230 516 227 504 c 2,22,-1
 212 435 l 1,23,24
 308 530 308 530 458 530 c 0,25,26
 524 530 524 530 572 509.5 c 128,-1,27
 620 489 620 489 648 453.5 c 128,-1,28
 676 418 676 418 685 369.5 c 128,-1,29
 694 321 694 321 682 265 c 256,0,1
626 265 m 0,30,31
 629 278 629 278 631 312 c 128,-1,32
 633 346 633 346 618.5 382 c 128,-1,33
 604 418 604 418 565 445.5 c 128,-1,34
 526 473 526 473 446 473 c 0,35,36
 336 473 336 473 266.5 414 c 128,-1,37
 197 355 197 355 178 265 c 0,38,39
 165 208 165 208 176 169 c 128,-1,40
 187 130 187 130 215 105 c 128,-1,41
 243 80 243 80 280.5 68.5 c 128,-1,42
 318 57 318 57 358 57 c 0,43,44
 467 57 467 57 536 115.5 c 128,-1,45
 605 174 605 174 626 265 c 0,30,31
EndSplineSet
EndChar
StartChar: q
Encoding: 113 113 82
Width: 674
VWidth: 1473
Flags: W
HStem: 0 57<231.22 418.799> 473 57<316.957 537.732>
Fore
105 265 m 256,0,1
 116 321 116 321 145 369.5 c 128,-1,2
 174 418 174 418 217.5 453.5 c 128,-1,3
 261 489 261 489 317.5 509.5 c 128,-1,4
 374 530 374 530 440 530 c 0,5,6
 594 530 594 530 645 435 c 1,7,-1
 660 504 l 2,8,9
 663 516 663 516 672.5 524.5 c 128,-1,10
 682 533 682 533 694 533 c 256,11,12
 706 533 706 533 712.5 524.5 c 128,-1,13
 719 516 719 516 716 504 c 2,14,-1
 547 -292 l 2,15,16
 544 -303 544 -303 533.5 -311.5 c 128,-1,17
 523 -320 523 -320 511 -320 c 0,18,19
 485 -320 485 -320 489 -292 c 2,20,-1
 572 93 l 1,21,22
 529 52 529 52 470 26 c 128,-1,23
 411 0 411 0 329 0 c 0,24,25
 261 0 261 0 213 20.5 c 128,-1,26
 165 41 165 41 137 77 c 128,-1,27
 109 113 109 113 101 161 c 128,-1,28
 93 209 93 209 105 265 c 256,0,1
161 265 m 0,29,30
 140 174 140 174 185.5 115.5 c 128,-1,31
 231 57 231 57 340 57 c 0,32,33
 380 57 380 57 423 68.5 c 128,-1,34
 466 80 466 80 503.5 105 c 128,-1,35
 541 130 541 130 569.5 169 c 128,-1,36
 598 208 598 208 608 265 c 0,37,38
 628 355 628 355 583 414 c 128,-1,39
 538 473 538 473 429 473 c 0,40,41
 349 473 349 473 298 445.5 c 128,-1,42
 247 418 247 418 217 382 c 128,-1,43
 187 346 187 346 175.5 312 c 128,-1,44
 164 278 164 278 161 265 c 0,29,30
EndSplineSet
EndChar
StartChar: r
Encoding: 114 114 83
Width: 416
VWidth: 1473
Flags: W
HStem: 0 21G<76.5 103.5> 470 56<402.452 517.322>
VStem: 71 449<40 499 -49.9529 84.9686>
Fore
166 486 m 2,0,1
 175 526 175 526 202 526 c 0,2,3
 230 526 230 526 221 486 c 2,4,-1
 199 387 l 1,5,6
 214 412 214 412 241 437.5 c 128,-1,7
 268 463 268 463 301 482.5 c 128,-1,8
 334 502 334 502 369.5 514 c 128,-1,9
 405 526 405 526 439 526 c 2,10,-1
 485 526 l 2,11,12
 524 526 524 526 520 499 c 0,13,14
 513 470 513 470 473 470 c 2,15,-1
 426 470 l 2,16,17
 377 470 377 470 334.5 448.5 c 128,-1,18
 292 427 292 427 257 392.5 c 128,-1,19
 222 358 222 358 198.5 314 c 128,-1,20
 175 270 175 270 165 222 c 2,21,-1
 125 40 l 2,22,23
 116 0 116 0 91 0 c 0,24,25
 62 0 62 0 71 40 c 2,26,-1
 166 486 l 2,0,1
EndSplineSet
EndChar
StartChar: s
Encoding: 115 115 84
Width: 511
VWidth: 1473
Flags: W
HStem: -15 50<230.864 283.449 283.449 289.031 289.031 391.558> 489 50<322.77 466.028>
VStem: 66 65<68.7219 119.842>
Fore
564 455 m 0,0,1
 575 433 575 433 548 418 c 0,2,3
 522 407 522 407 508 429 c 1,4,5
 498 454 498 454 467 470 c 128,-1,6
 436 486 436 486 393 489 c 256,7,8
 351 492 351 492 306 482.5 c 128,-1,9
 261 473 261 473 236 452 c 0,10,11
 197 418 197 418 203 378.5 c 128,-1,12
 209 339 209 339 262 321 c 2,13,14
 282 313 l 2,15,16
 302 305 302 305 325 296 c 128,-1,17
 348 287 348 287 366.5 280 c 128,-1,18
 385 273 385 273 386 273 c 1,19,20
 405 265 405 265 424 255.5 c 128,-1,21
 443 246 443 246 459.5 233.5 c 128,-1,22
 476 221 476 221 487 205.5 c 128,-1,23
 498 190 498 190 501 171 c 0,24,25
 507 121 507 121 485 84 c 128,-1,26
 463 47 463 47 424.5 23.5 c 128,-1,27
 386 0 386 0 337.5 -9.5 c 128,-1,28
 289 -19 289 -19 240 -15 c 0,29,30
 168 -9 168 -9 121 22 c 128,-1,31
 74 53 74 53 66 108 c 0,32,33
 65 119 65 119 73 129.5 c 128,-1,34
 81 140 81 140 94 144 c 0,35,36
 109 147 109 147 119.5 142 c 128,-1,37
 130 137 130 137 131 125 c 0,38,39
 136 97 136 97 150.5 80 c 128,-1,40
 165 63 165 63 183.5 53.5 c 128,-1,41
 202 44 202 44 220.5 40.5 c 128,-1,42
 239 37 239 37 249 35 c 0,43,44
 290 31 290 31 329 37 c 128,-1,45
 368 43 368 43 396 59 c 128,-1,46
 424 75 424 75 438 99.5 c 128,-1,47
 452 124 452 124 446 155 c 0,48,49
 443 172 443 172 428.5 185.5 c 128,-1,50
 414 199 414 199 393.5 210 c 128,-1,51
 373 221 373 221 348.5 230 c 128,-1,52
 324 239 324 239 301 247 c 0,53,54
 284 253 284 253 255.5 264 c 128,-1,55
 227 275 227 275 215 281 c 0,56,57
 186 296 186 296 169 319.5 c 128,-1,58
 152 343 152 343 148 370.5 c 128,-1,59
 144 398 144 398 157.5 428 c 128,-1,60
 171 458 171 458 203 485 c 0,61,62
 242 516 242 516 297 530.5 c 128,-1,63
 352 545 352 545 410 539 c 0,64,65
 466 535 466 535 507 513 c 128,-1,66
 548 491 548 491 564 455 c 0,0,1
EndSplineSet
EndChar
StartChar: t
Encoding: 116 116 85
Width: 327
VWidth: 1473
Flags: W
HStem: 0 56<190.301 331.703> 460 56<225 359.424> 812 20G<253 280>
VStem: 106 255<214 486 214 477.169>
Fore
334 28 m 0,0,1
 327 0 327 0 289 0 c 2,2,-1
 262 0 l 2,3,4
 165 0 165 0 125 58 c 128,-1,5
 85 116 85 116 106 214 c 2,6,-1
 230 793 l 2,7,8
 239 832 239 832 267 832 c 0,9,10
 293 832 293 832 284 793 c 2,11,-1
 225 516 l 1,12,-1
 329 516 l 2,13,14
 365 516 365 516 361 486 c 0,15,16
 354 460 354 460 317 460 c 2,17,-1
 214 460 l 1,18,-1
 161 214 l 2,19,20
 144 138 144 138 170.5 97 c 128,-1,21
 197 56 197 56 274 56 c 2,22,-1
 301 56 l 2,23,24
 339 56 339 56 334 28 c 0,0,1
EndSplineSet
EndChar
StartChar: u
Encoding: 117 117 86
Width: 658
VWidth: 1473
Flags: W
HStem: -7 57<230.304 446.2> 506 20G<196 208 661.5 681>
VStem: 110 57<112.781 211.219>
Fore
595 22 m 1,0,1
 588 -6 588 -6 563 -6 c 0,2,3
 551 -6 551 -6 545 2 c 128,-1,4
 539 10 539 10 542 22 c 2,5,-1
 557 93 l 1,6,7
 514 46 514 46 456.5 19.5 c 128,-1,8
 399 -7 399 -7 324 -7 c 0,9,10
 197 -7 197 -7 144 65 c 0,11,12
 128 87 128 87 120 112 c 128,-1,13
 112 137 112 137 110 162 c 128,-1,14
 108 187 108 187 110.5 212 c 128,-1,15
 113 237 113 237 118 258 c 2,16,-1
 168 498 l 2,17,18
 171 510 171 510 180.5 518 c 128,-1,19
 190 526 190 526 202 526 c 256,20,21
 214 526 214 526 220.5 518 c 128,-1,22
 227 510 227 510 224 498 c 2,23,-1
 174 258 l 2,24,25
 166 224 166 224 167 180.5 c 128,-1,26
 168 137 168 137 193 105 c 0,27,28
 230 50 230 50 337 50 c 256,29,30
 445 50 445 50 508 105 c 0,31,32
 569 156 569 156 591 258 c 2,33,-1
 641 498 l 2,34,35
 648 526 648 526 675 526 c 0,36,37
 687 526 687 526 692.5 518 c 128,-1,38
 698 510 698 510 695 498 c 2,39,-1
 595 22 l 1,0,1
EndSplineSet
EndChar
StartChar: v
Encoding: 118 118 87
Width: 562
VWidth: 1473
Flags: W
HStem: -6 49<236.482 352.617>
Fore
448 103 m 2,0,1
 423 62 423 62 384 28 c 128,-1,2
 345 -6 345 -6 280 -6 c 0,3,4
 247 -6 247 -6 226 3.5 c 128,-1,5
 205 13 205 13 191 28.5 c 128,-1,6
 177 44 177 44 169 64 c 128,-1,7
 161 84 161 84 156 106 c 2,8,-1
 106 489 l 2,9,10
 105 501 105 501 112 511.5 c 128,-1,11
 119 522 119 522 130 526 c 1,12,13
 141 529 141 529 151 524.5 c 128,-1,14
 161 520 161 520 162 508 c 2,15,-1
 211 128 l 2,16,17
 220 90 220 90 235 66.5 c 128,-1,18
 250 43 250 43 290 43 c 256,19,20
 330 43 330 43 355 66.5 c 128,-1,21
 380 90 380 90 404 125 c 2,22,-1
 616 508 l 2,23,24
 622 520 622 520 633 524.5 c 128,-1,25
 644 529 644 529 653 526 c 0,26,27
 664 522 664 522 666.5 511.5 c 128,-1,28
 669 501 669 501 663 489 c 2,29,-1
 448 103 l 2,0,1
EndSplineSet
EndChar
StartChar: w
Encoding: 119 119 88
Width: 880
VWidth: 1473
Flags: W
HStem: -7 53<191.948 336.239 570.028 723.98> 506 20G<171 183 546.5 558 922 934>
VStem: 82 55<110.393 220.461>
Fore
900 258 m 1,0,1
 871 121 871 121 798 57 c 128,-1,2
 725 -7 725 -7 610 -7 c 0,3,4
 541 -7 541 -7 507 21.5 c 128,-1,5
 473 50 473 50 460 88 c 1,6,7
 424 41 424 41 375 17 c 128,-1,8
 326 -7 326 -7 267 -7 c 0,9,10
 202 -7 202 -7 162 13.5 c 128,-1,11
 122 34 122 34 103 70 c 128,-1,12
 84 106 84 106 82 153 c 128,-1,13
 80 200 80 200 91 253 c 2,14,-1
 143 498 l 2,15,16
 146 510 146 510 155.5 518 c 128,-1,17
 165 526 165 526 177 526 c 256,18,19
 189 526 189 526 194.5 518 c 128,-1,20
 200 510 200 510 197 498 c 2,21,-1
 146 253 l 2,22,23
 137 214 137 214 137 176 c 128,-1,24
 137 138 137 138 151 109.5 c 128,-1,25
 165 81 165 81 195 63.5 c 128,-1,26
 225 46 225 46 278 46 c 0,27,28
 309 46 309 46 338.5 57.5 c 128,-1,29
 368 69 368 69 391 88.5 c 128,-1,30
 414 108 414 108 430 133 c 128,-1,31
 446 158 446 158 452 184 c 2,32,-1
 519 498 l 2,33,34
 522 510 522 510 531.5 518 c 128,-1,35
 541 526 541 526 552 526 c 256,36,37
 564 526 564 526 570.5 518 c 128,-1,38
 577 510 577 510 575 498 c 2,39,-1
 508 184 l 2,40,41
 502 156 502 156 508 131 c 128,-1,42
 514 106 514 106 529.5 87 c 128,-1,43
 545 68 545 68 568.5 57 c 128,-1,44
 592 46 592 46 622 46 c 0,45,46
 715 46 715 46 768 99 c 128,-1,47
 821 152 821 152 844 258 c 2,48,-1
 894 498 l 2,49,50
 897 510 897 510 906.5 518 c 128,-1,51
 916 526 916 526 928 526 c 256,52,53
 940 526 940 526 946.5 518 c 128,-1,54
 953 510 953 510 950 498 c 2,55,-1
 900 258 l 1,0,1
EndSplineSet
EndChar
StartChar: x
Encoding: 120 120 89
Width: 564
VWidth: 1473
Flags: W
HStem: 239 56<296.688 377.343>
Fore
548 44 m 1,0,1
 552 34 552 34 548 21.5 c 128,-1,2
 544 9 544 9 533 1 c 0,3,4
 505 -13 505 -13 495 9 c 0,5,6
 464 74 464 74 447 108.5 c 128,-1,7
 430 143 430 143 423 159 c 2,8,-1
 412 180 l 2,9,10
 399 205 399 205 378 222 c 128,-1,11
 357 239 357 239 331 239 c 256,12,13
 306 239 306 239 277.5 222.5 c 128,-1,14
 249 206 249 206 227 181 c 2,15,-1
 71 9 l 2,16,17
 60 -1 60 -1 48.5 -3.5 c 128,-1,18
 37 -6 37 -6 29 1 c 256,19,20
 22 9 22 9 23 21.5 c 128,-1,21
 24 34 24 34 32 44 c 0,22,23
 91 109 91 109 122 144.5 c 128,-1,24
 153 180 153 180 169 196 c 0,25,26
 186 215 186 215 190 218 c 0,27,28
 202 230 202 230 219 242.5 c 128,-1,29
 236 255 236 255 253 267 c 1,30,31
 240 277 240 277 228.5 289 c 128,-1,32
 217 301 217 301 209 312 c 2,33,-1
 125 480 l 2,34,35
 121 491 121 491 124.5 503.5 c 128,-1,36
 128 516 128 516 140 523 c 0,37,38
 150 530 150 530 161 528.5 c 128,-1,39
 172 527 172 527 178 517 c 0,40,41
 209 454 209 454 226 420.5 c 128,-1,42
 243 387 243 387 250 371 c 2,43,-1
 261 351 l 2,44,45
 274 326 274 326 296 310.5 c 128,-1,46
 318 295 318 295 343 295 c 256,47,48
 368 295 368 295 396 309.5 c 128,-1,49
 424 324 424 324 448 349 c 2,50,-1
 603 517 l 2,51,52
 613 527 613 527 624.5 528.5 c 128,-1,53
 636 530 636 530 644 523 c 256,54,55
 651 516 651 516 650.5 503.5 c 128,-1,56
 650 491 650 491 641 480 c 0,57,58
 582 417 582 417 551 383 c 128,-1,59
 520 349 520 349 505 333 c 0,60,61
 489 315 489 315 485 312 c 0,62,63
 460 287 460 287 423 267 c 1,64,65
 436 255 436 255 447 242.5 c 128,-1,66
 458 230 458 230 466 217 c 2,67,-1
 548 44 l 1,0,1
EndSplineSet
EndChar
StartChar: y
Encoding: 121 121 90
Width: 617
VWidth: 1473
Flags: W
HStem: -273.5 53.5<213.129 294.691> -3 53<212.705 425.506> 510 20G<177 195.5 642.5 663>
Fore
566 -19 m 1,0,1
 545 -112 545 -112 484.5 -174.5 c 128,-1,2
 424 -237 424 -237 333 -262 c 0,3,4
 289 -274 289 -274 246 -273.5 c 128,-1,5
 203 -273 203 -273 167 -263 c 128,-1,6
 131 -253 131 -253 105.5 -235 c 128,-1,7
 80 -217 80 -217 69 -190 c 0,8,9
 62 -166 62 -166 87 -153 c 0,10,11
 99 -147 99 -147 109 -150 c 128,-1,12
 119 -153 119 -153 122 -162 c 0,13,14
 128 -178 128 -178 147 -191.5 c 128,-1,15
 166 -205 166 -205 194 -212.5 c 128,-1,16
 222 -220 222 -220 257 -220 c 128,-1,17
 292 -220 292 -220 329 -209 c 0,18,19
 349 -205 349 -205 376.5 -193 c 128,-1,20
 404 -181 404 -181 430.5 -159 c 128,-1,21
 457 -137 457 -137 479 -103 c 128,-1,22
 501 -69 501 -69 511 -19 c 2,23,-1
 536 97 l 1,24,25
 494 50 494 50 437 23.5 c 128,-1,26
 380 -3 380 -3 305 -3 c 0,27,28
 172 -3 172 -3 122 69 c 128,-1,29
 72 141 72 141 97 262 c 2,30,-1
 149 502 l 2,31,32
 152 514 152 514 161.5 522 c 128,-1,33
 171 530 171 530 183 530 c 0,34,35
 208 530 208 530 203 502 c 2,36,-1
 152 262 l 2,37,38
 128 152 128 152 174 101 c 128,-1,39
 220 50 220 50 317 50 c 0,40,41
 420 50 420 50 482 105.5 c 128,-1,42
 544 161 544 161 564 262 c 2,43,-1
 613 492 l 2,44,45
 616 504 616 504 624 518 c 128,-1,46
 632 532 632 532 653 532 c 256,47,48
 673 532 673 532 674.5 518 c 128,-1,49
 676 504 676 504 673 492 c 2,50,-1
 566 -19 l 1,0,1
EndSplineSet
EndChar
StartChar: z
Encoding: 122 122 91
Width: 578
VWidth: 1473
Flags: W
HStem: 0 55<140.958 514.969> 471 55<174.112 546.875>
Fore
166 184 m 0,0,1
 255 236 255 236 326 277 c 0,2,3
 357 295 357 295 386 312.5 c 128,-1,4
 415 330 415 330 439 344 c 128,-1,5
 463 358 463 358 478.5 367.5 c 128,-1,6
 494 377 494 377 496 380 c 0,7,8
 519 396 519 396 530.5 405.5 c 128,-1,9
 542 415 542 415 547 433 c 0,10,11
 558 471 558 471 491 471 c 2,12,-1
 208 471 l 2,13,14
 168 471 168 471 172 498 c 0,15,16
 178 526 178 526 218 526 c 2,17,-1
 501 526 l 2,18,19
 552 526 552 526 582.5 503 c 128,-1,20
 613 480 613 480 603 433 c 0,21,22
 595 399 595 399 574.5 379 c 128,-1,23
 554 359 554 359 522 339 c 2,24,25
 498 325 l 2,26,27
 474 311 474 311 437.5 289.5 c 128,-1,28
 401 268 401 268 358 243 c 128,-1,29
 315 218 315 218 279 196.5 c 128,-1,30
 243 175 243 175 218.5 161 c 128,-1,31
 194 147 194 147 193 147 c 1,32,33
 147 119 147 119 140 90 c 0,34,35
 134 55 134 55 199 55 c 2,36,-1
 482 55 l 2,37,38
 522 55 522 55 517 28 c 0,39,40
 511 0 511 0 471 0 c 2,41,-1
 189 0 l 2,42,43
 137 0 137 0 106 21.5 c 128,-1,44
 75 43 75 43 85 90 c 0,45,46
 93 124 93 124 113 144 c 128,-1,47
 133 164 133 164 166 184 c 0,0,1
EndSplineSet
EndChar
StartChar: braceleft
Encoding: 123 123 92
Width: 334
VWidth: 1473
Flags: W
VStem: 133.5 57<-80.2489 4.83252>
Fore
250 -166 m 0,0,1
 217 -206 217 -206 156 -121 c 0,2,3
 134 -90 134 -90 133.5 -51 c 128,-1,4
 133 -12 133 -12 141 29 c 2,5,-1
 162 125 l 2,6,7
 172 175 172 175 162.5 203 c 128,-1,8
 153 231 153 231 138.5 246.5 c 128,-1,9
 124 262 124 262 110.5 270 c 128,-1,10
 97 278 97 278 102 290 c 0,11,12
 106 301 106 301 123 309 c 128,-1,13
 140 317 140 317 160.5 332.5 c 128,-1,14
 181 348 181 348 201 376 c 128,-1,15
 221 404 221 404 231 454 c 2,16,-1
 252 551 l 2,17,18
 261 591 261 591 278.5 630 c 128,-1,19
 296 669 296 669 330 700 c 0,20,21
 429 785 429 785 445 745 c 0,22,23
 451 732 451 732 445.5 724 c 128,-1,24
 440 716 440 716 427.5 708 c 128,-1,25
 415 700 415 700 397.5 689.5 c 128,-1,26
 380 679 380 679 362 660 c 0,27,28
 339 636 339 636 326.5 608 c 128,-1,29
 314 580 314 580 306 551 c 2,30,-1
 286 454 l 2,31,32
 271 387 271 387 244 349.5 c 128,-1,33
 217 312 217 312 168 290 c 1,34,35
 206 267 206 267 218 229.5 c 128,-1,36
 230 192 230 192 217 125 c 2,37,-1
 196 29 l 2,38,39
 189 0 189 0 190.5 -28.5 c 128,-1,40
 192 -57 192 -57 205 -81 c 0,41,42
 215 -100 215 -100 228.5 -110.5 c 128,-1,43
 242 -121 242 -121 250.5 -128.5 c 128,-1,44
 259 -136 259 -136 261.5 -144 c 128,-1,45
 264 -152 264 -152 250 -166 c 0,0,1
EndSplineSet
EndChar
StartChar: bar
Encoding: 124 124 93
Width: 231
VWidth: 1473
Flags: W
VStem: 55 248<-162 751 -162 -162>
Fore
109 -162 m 1,0,1
 100 -202 100 -202 74 -202 c 0,2,3
 46 -202 46 -202 55 -162 c 2,4,-1
 249 751 l 2,5,6
 258 791 258 791 286 791 c 0,7,8
 312 791 312 791 303 751 c 2,9,-1
 109 -162 l 1,0,1
EndSplineSet
EndChar
StartChar: braceright
Encoding: 125 125 94
Width: 334
VWidth: 1473
Flags: W
VStem: 276 57.5<574.662 659.249>
Fore
364 290 m 1,0,1
 364 278 364 278 347.5 270 c 128,-1,2
 331 262 331 262 310 246.5 c 128,-1,3
 289 231 289 231 267.5 203 c 128,-1,4
 246 175 246 175 236 125 c 2,5,-1
 215 29 l 2,6,7
 206 -12 206 -12 188.5 -51 c 128,-1,8
 171 -90 171 -90 136 -121 c 0,9,10
 40 -206 40 -206 21 -166 c 0,11,12
 15 -153 15 -153 20 -145 c 128,-1,13
 25 -137 25 -137 38.5 -129 c 128,-1,14
 52 -121 52 -121 69.5 -110.5 c 128,-1,15
 87 -100 87 -100 105 -81 c 0,16,17
 127 -57 127 -57 140 -28.5 c 128,-1,18
 153 0 153 0 161 29 c 2,19,-1
 181 125 l 2,20,21
 194 192 194 192 222 229.5 c 128,-1,22
 250 267 250 267 298 290 c 1,23,24
 259 312 259 312 247.5 349.5 c 128,-1,25
 236 387 236 387 250 454 c 2,26,-1
 271 551 l 2,27,28
 278 580 278 580 276 608 c 128,-1,29
 274 636 274 636 262 660 c 0,30,31
 252 679 252 679 238.5 689.5 c 128,-1,32
 225 700 225 700 215.5 708 c 128,-1,33
 206 716 206 716 204.5 724 c 128,-1,34
 203 732 203 732 215 745 c 0,35,36
 250 785 250 785 309 700 c 0,37,38
 333 669 333 669 333.5 630 c 128,-1,39
 334 591 334 591 326 551 c 2,40,-1
 305 454 l 2,41,42
 295 404 295 404 303 376 c 128,-1,43
 311 348 311 348 325 332.5 c 128,-1,44
 339 317 339 317 352 309 c 128,-1,45
 365 301 365 301 364 290 c 1,0,1
EndSplineSet
EndChar
StartChar: asciitilde
Encoding: 126 126 95
Width: 574
VWidth: 1473
Flags: W
HStem: 189 60<422.808 490.284>
Fore
597 336 m 0,0,1
 594 309 594 309 583 283.5 c 128,-1,2
 572 258 572 258 553.5 236.5 c 128,-1,3
 535 215 535 215 509 202 c 128,-1,4
 483 189 483 189 448 189 c 0,5,6
 427 189 427 189 405 198.5 c 128,-1,7
 383 208 383 208 361 222 c 2,8,-1
 261 283 l 2,9,10
 240 296 240 296 223 296 c 128,-1,11
 206 296 206 296 193 285 c 128,-1,12
 180 274 180 274 170.5 252.5 c 128,-1,13
 161 231 161 231 155 205 c 0,14,15
 153 196 153 196 149 190 c 256,16,17
 144 184 144 184 137 179.5 c 128,-1,18
 130 175 130 175 116 175 c 0,19,20
 93 175 93 175 90 189 c 0,21,22
 88 194 88 194 91 203 c 2,23,24
 102 262 102 262 133 305 c 128,-1,25
 164 348 164 348 220 357 c 0,26,27
 246 361 246 361 269 353 c 128,-1,28
 292 345 292 345 305 336 c 2,29,-1
 421 262 l 2,30,31
 439 249 439 249 457.5 249 c 128,-1,32
 476 249 476 249 491.5 260 c 128,-1,33
 507 271 507 271 516.5 290 c 128,-1,34
 526 309 526 309 529 334 c 0,35,36
 530 343 530 343 536 351 c 0,37,38
 541 358 541 358 548 363 c 128,-1,39
 555 368 555 368 569 368 c 0,40,41
 580 368 580 368 586 363 c 128,-1,42
 592 358 592 358 595 352 c 0,43,44
 598 345 598 345 597 336 c 0,0,1
EndSplineSet
EndChar
StartChar: uni0E33.alt1
Encoding: 65539 -1 96
Width: 570
VWidth: 1473
Flags: W
HStem: -4 21G<462.5 474> 547 57<320.267 479.485> 678.5 47<-137.882 -117.908 -130.212 -54.3907> 831 51<-144.39 -39.1959>
Fore
502 25 m 2,0,1
 499 13 499 13 489.5 4.5 c 128,-1,2
 480 -4 480 -4 468 -4 c 256,3,4
 457 -4 457 -4 449.5 4.5 c 128,-1,5
 442 13 442 13 445 25 c 2,6,-1
 526 407 l 2,7,8
 541 473 541 473 503.5 510 c 128,-1,9
 466 547 466 547 387 547 c 0,10,11
 323 547 323 547 270.5 518 c 128,-1,12
 218 489 218 489 197 457 c 0,13,14
 190 445 190 445 179 440 c 128,-1,15
 168 435 168 435 158 439 c 1,16,17
 146 442 146 442 143.5 453 c 128,-1,18
 141 464 141 464 147 476 c 0,19,20
 164 502 164 502 191 526 c 128,-1,21
 218 550 218 550 252 567.5 c 128,-1,22
 286 585 286 585 324 594.5 c 128,-1,23
 362 604 362 604 401 604 c 256,24,25
 439 604 439 604 476.5 590.5 c 128,-1,26
 514 577 514 577 540.5 551.5 c 128,-1,27
 567 526 567 526 580.5 489 c 128,-1,28
 594 452 594 452 583 407 c 2,29,-1
 502 25 l 2,0,1
21 776 m 0,30,31
 10 729 10 729 -30.5 700.5 c 128,-1,32
 -71 672 -71 672 -122 672 c 0,33,34
 -143 672 -143 672 -163 678.5 c 128,-1,35
 -183 685 -183 685 -197.5 697.5 c 128,-1,36
 -212 710 -212 710 -218.5 730 c 128,-1,37
 -225 750 -225 750 -220 776 c 0,38,39
 -211 821 -211 821 -169 851.5 c 128,-1,40
 -127 882 -127 882 -77 882 c 0,41,42
 -21 882 -21 882 4 850.5 c 128,-1,43
 29 819 29 819 21 776 c 0,30,31
-29 776 m 0,44,45
 -27 794 -27 794 -40 812.5 c 128,-1,46
 -53 831 -53 831 -88 831 c 0,47,48
 -119 831 -119 831 -142 813.5 c 128,-1,49
 -165 796 -165 796 -168 776 c 0,50,51
 -172 759 -172 759 -165 748.5 c 128,-1,52
 -158 738 -158 738 -147.5 733 c 128,-1,53
 -137 728 -137 728 -126 725.5 c 128,-1,54
 -115 723 -115 723 -110 723 c 0,55,56
 -81 723 -81 723 -58 738.5 c 128,-1,57
 -35 754 -35 754 -29 776 c 0,44,45
EndSplineSet
EndChar
StartChar: quotedbl
Encoding: 34 34 97
Width: 294
VWidth: 1473
Flags: W
HStem: 473 247<322.688 323 192 357 242 242>
VStem: 168 208<513 684 463 628>
Fore
227 513 m 2,0,1
 224 494 224 494 216.5 484 c 128,-1,2
 209 474 209 474 192 473 c 0,3,4
 159 473 159 473 168 513 c 2,5,-1
 205 682 l 2,6,7
 211 720 211 720 242 720 c 0,8,9
 270 720 270 720 262 682 c 2,10,-1
 227 513 l 2,0,1
342 514 m 2,11,12
 339 495 339 495 331 485.5 c 128,-1,13
 323 476 323 476 305 474 c 0,14,15
 274 474 274 474 283 514 c 2,16,-1
 318 684 l 2,17,18
 324 722 324 722 357 722 c 0,19,20
 383 722 383 722 376 684 c 2,21,-1
 342 514 l 2,11,12
EndSplineSet
EndChar
StartChar: exclam
Encoding: 33 33 98
Width: 272
VWidth: 1473
Flags: W
HStem: 0 85<122.439 171.984>
VStem: 153 56<174.378 317.73>
Fore
209 206 m 2,0,1
 199 168 199 168 174 168 c 0,2,3
 144 168 144 168 153 206 c 2,4,-1
 250 703 l 2,5,6
 253 723 253 723 268 732.5 c 128,-1,7
 283 742 283 742 296 742 c 256,8,9
 309 742 309 742 319.5 732.5 c 128,-1,10
 330 723 330 723 324 703 c 2,11,-1
 209 206 l 2,0,1
192 43 m 0,12,13
 189 27 189 27 172.5 13.5 c 128,-1,14
 156 0 156 0 138 0 c 256,15,16
 121 0 121 0 110.5 12 c 128,-1,17
 100 24 100 24 103 41 c 0,18,19
 108 60 108 60 122 72.5 c 128,-1,20
 136 85 136 85 155 85 c 256,21,22
 174 85 174 85 184 73.5 c 128,-1,23
 194 62 194 62 192 43 c 0,12,13
EndSplineSet
EndChar
StartChar: uni0E4E.alt1
Encoding: 65540 -1 99
Width: 0
VWidth: 1473
Flags: W
HStem: 661 37<-126.203 -68.5677 -84.4761 -52.6593 -52.6593 -49> 978 21<33.4868 109.298>
VStem: -193 322.5<740 988.5 721.524 753.341>
Fore
102 999 m 0,0,1
 103 999 103 999 109.5 998 c 128,-1,2
 116 997 116 997 122 995 c 128,-1,3
 128 993 128 993 129.5 988.5 c 128,-1,4
 131 984 131 984 125 978 c 1,5,6
 66 977 66 977 28 953.5 c 128,-1,7
 -10 930 -10 930 -16 894.5 c 128,-1,8
 -22 859 -22 859 13 849 c 1,9,10
 19 849 19 849 23.5 843.5 c 128,-1,11
 28 838 28 838 25 829 c 0,12,13
 21 815 21 815 0 812 c 0,14,15
 -112 807 -112 807 -130 742 c 0,16,17
 -136 698 -136 698 -66 698 c 0,18,19
 -44 698 -44 698 -31 700 c 1,20,-1
 -49 666 l 1,21,22
 -84 661 -84 661 -109 661 c 0,23,24
 -202 666 -202 666 -193 740 c 1,25,26
 -168 828 -168 828 -47 840 c 1,27,28
 -82 868 -82 868 -68.5 913.5 c 128,-1,29
 -55 959 -55 959 -7.5 982.5 c 128,-1,30
 40 1006 40 1006 102 999 c 0,0,1
EndSplineSet
EndChar
StartChar: exclamdown
Encoding: 161 161 100
Width: 272
VWidth: 1473
Flags: W
HStem: 507 20G<244.5 262>
VStem: 66 74<-198.027 -159.904>
Fore
140 -175 m 2,0,1
 137 -196 137 -196 122.5 -205.5 c 128,-1,2
 108 -215 108 -215 94 -215 c 256,3,4
 81 -215 81 -215 70.5 -205.5 c 128,-1,5
 60 -196 60 -196 66 -175 c 2,6,-1
 181 321 l 2,7,8
 190 359 190 359 217 359 c 256,9,10
 243 359 243 359 237 321 c 2,11,-1
 140 -175 l 2,0,1
287 485 m 0,12,13
 284 466 284 466 268 454 c 128,-1,14
 252 442 252 442 233 442 c 256,15,16
 214 442 214 442 205.5 454.5 c 128,-1,17
 197 467 197 467 202 486 c 0,18,19
 205 504 205 504 220.5 515.5 c 128,-1,20
 236 527 236 527 253 527 c 256,21,22
 271 527 271 527 280.5 514 c 128,-1,23
 290 501 290 501 287 485 c 0,12,13
EndSplineSet
EndChar
StartChar: cent
Encoding: 162 162 101
Width: 637
VWidth: 1473
Flags: W
HStem: 85.5 53.5<328.914 457.968> 558 53<376.533 482 558 591.287>
VStem: 132.5 57<257.436 313.827>
Fore
566 208 m 1,0,1
 577 215 577 215 589 216 c 128,-1,2
 601 217 601 217 608 209 c 0,3,4
 614 202 614 202 612 189.5 c 128,-1,5
 610 177 610 177 601 166 c 0,6,7
 576 141 576 141 540 123.5 c 128,-1,8
 504 106 504 106 463.5 96.5 c 128,-1,9
 423 87 423 87 381 85.5 c 128,-1,10
 339 84 339 84 302 91 c 1,11,-1
 250 -9 l 2,12,13
 245 -19 245 -19 235 -24 c 128,-1,14
 225 -29 225 -29 217 -27 c 0,15,16
 206 -24 206 -24 203 -15 c 128,-1,17
 200 -6 200 -6 206 4 c 2,18,-1
 255 103 l 1,19,20
 228 112 228 112 206 126 c 128,-1,21
 184 140 184 140 169 161 c 0,22,23
 150 187 150 187 142 214.5 c 128,-1,24
 134 242 134 242 132.5 267.5 c 128,-1,25
 131 293 131 293 134 314.5 c 128,-1,26
 137 336 137 336 140 349 c 0,27,28
 150 398 150 398 179.5 448 c 128,-1,29
 209 498 209 498 255.5 536.5 c 128,-1,30
 302 575 302 575 365.5 597 c 128,-1,31
 429 619 429 619 508 611 c 1,32,-1
 555 704 l 2,33,34
 561 715 561 715 573 720 c 128,-1,35
 585 725 585 725 592 722 c 256,36,37
 600 719 600 719 602.5 710 c 128,-1,38
 605 701 605 701 601 691 c 2,39,-1
 558 605 l 1,40,41
 598 597 598 597 629 579 c 128,-1,42
 660 561 660 561 679 532 c 0,43,44
 687 523 687 523 685.5 509 c 128,-1,45
 684 495 684 495 673 488 c 0,46,47
 661 479 661 479 648 482 c 128,-1,48
 635 485 635 485 629 495 c 0,49,50
 600 538 600 538 530 551 c 1,51,-1
 326 143 l 1,52,53
 357 137 357 137 391.5 139 c 128,-1,54
 426 141 426 141 459 149.5 c 128,-1,55
 492 158 492 158 520 172.5 c 128,-1,56
 548 187 548 187 566 208 c 1,0,1
217 202 m 0,57,58
 228 186 228 186 244.5 175 c 128,-1,59
 261 164 261 164 281 156 c 1,60,-1
 482 558 l 1,61,62
 424 566 424 566 375 548 c 128,-1,63
 326 530 326 530 288 499 c 128,-1,64
 250 468 250 468 226.5 427.5 c 128,-1,65
 203 387 203 387 194 349 c 0,66,67
 193 342 193 342 191 325 c 128,-1,68
 189 308 189 308 189.5 287.5 c 128,-1,69
 190 267 190 267 196 244 c 128,-1,70
 202 221 202 221 217 202 c 0,57,58
EndSplineSet
EndChar
StartChar: sterling
Encoding: 163 163 102
Width: 589
VWidth: 1473
Flags: W
HStem: -1 21G<108.697 126> 29.5 53<161.874 191 211.5 220.333 220.333 234.242 234.242 270.705> 333 49<152 230 301 467>
VStem: 583 56<502.473 532.031 532.031 596.486> 583 50<502 525.694 552.063 562 562 613.764>
Fore
560 44 m 1,0,1
 517 9 517 9 478 -2 c 128,-1,2
 439 -13 439 -13 406 -9.5 c 128,-1,3
 373 -6 373 -6 346.5 4.5 c 128,-1,4
 320 15 320 15 302 22 c 0,5,6
 268 35 268 35 241 35 c 128,-1,7
 214 35 214 35 191 29.5 c 128,-1,8
 168 24 168 24 150.5 14 c 128,-1,9
 133 4 133 4 119 -1 c 1,10,-1
 85 65 l 1,11,12
 116 85 116 85 145 108 c 128,-1,13
 174 131 174 131 199 161 c 0,14,15
 227 193 227 193 238.5 220 c 128,-1,16
 250 247 250 247 252.5 268.5 c 128,-1,17
 255 290 255 290 251 306.5 c 128,-1,18
 247 323 247 323 245 333 c 1,19,-1
 152 333 l 1,20,-1
 144 382 l 1,21,-1
 230 382 l 1,22,23
 217 402 217 402 206.5 441 c 128,-1,24
 196 480 196 480 205 522 c 0,25,26
 212 564 212 564 238.5 603 c 128,-1,27
 265 642 265 642 303.5 671 c 128,-1,28
 342 700 342 700 390.5 715.5 c 128,-1,29
 439 731 439 731 491 725 c 0,30,31
 557 717 557 717 588.5 687 c 128,-1,32
 620 657 620 657 631 621 c 128,-1,33
 642 585 642 585 639 551 c 128,-1,34
 636 517 636 517 633 502 c 1,35,-1
 583 502 l 1,36,37
 589 533 589 533 586 562 c 128,-1,38
 583 591 583 591 570 614.5 c 128,-1,39
 557 638 557 638 532 653.5 c 128,-1,40
 507 669 507 669 468 673 c 0,41,42
 439 676 439 676 402 666.5 c 128,-1,43
 365 657 365 657 332 634 c 128,-1,44
 299 611 299 611 277 575 c 128,-1,45
 255 539 255 539 255 488 c 0,46,47
 255 471 255 471 263 441 c 128,-1,48
 271 411 271 411 290 382 c 1,49,-1
 467 382 l 1,50,-1
 474 333 l 1,51,-1
 301 333 l 1,52,53
 301 321 301 321 303 310 c 128,-1,54
 305 299 305 299 305.5 284.5 c 128,-1,55
 306 270 306 270 302.5 252 c 128,-1,56
 299 234 299 234 287 209 c 0,57,58
 258 153 258 153 222 119 c 128,-1,59
 186 85 186 85 161 65 c 1,60,61
 189 78 189 78 211.5 82.5 c 128,-1,62
 234 87 234 87 257 84.5 c 128,-1,63
 280 82 280 82 305.5 75 c 128,-1,64
 331 68 331 68 365 57 c 0,65,66
 396 46 396 46 417.5 42 c 128,-1,67
 439 38 439 38 456.5 40.5 c 128,-1,68
 474 43 474 43 492 52.5 c 128,-1,69
 510 62 510 62 535 78 c 1,70,-1
 560 44 l 1,0,1
EndSplineSet
EndChar
StartChar: currency
Encoding: 164 164 103
Width: 715
VWidth: 1473
Flags: W
HStem: 87 51<308.693 441.297> 529 54<416.903 548.57>
Fore
681 337 m 0,0,1
 670 287 670 287 648 249 c 128,-1,2
 626 211 626 211 598 181 c 1,3,-1
 620 152 l 2,4,5
 645 122 645 122 620 100 c 0,6,7
 594 78 594 78 570 110 c 2,8,-1
 547 140 l 1,9,10
 505 113 505 113 460 100 c 128,-1,11
 415 87 415 87 376 87 c 0,12,13
 283 87 283 87 228 137 c 1,14,-1
 196 110 l 2,15,16
 158 77 158 77 140 100 c 0,17,18
 125 122 125 122 159 152 c 2,19,-1
 193 180 l 1,20,21
 161 245 161 245 178 331 c 0,22,23
 190 380 190 380 213 420.5 c 128,-1,24
 236 461 236 461 267 492 c 1,25,-1
 240 529 l 2,26,27
 217 557 217 557 242 582 c 1,28,29
 268 601 268 601 295 573 c 2,30,-1
 324 535 l 1,31,32
 361 558 361 558 401.5 570.5 c 128,-1,33
 442 583 442 583 482 583 c 0,34,35
 529 583 529 583 565 570.5 c 128,-1,36
 601 558 601 558 626 536 c 1,37,-1
 670 573 l 2,38,39
 706 603 706 603 722 582 c 0,40,41
 740 557 740 557 703 529 c 2,42,-1
 661 495 l 1,43,44
 681 463 681 463 686 422.5 c 128,-1,45
 691 382 691 382 681 337 c 0,0,1
236 333 m 0,46,47
 227 292 227 292 234.5 256.5 c 128,-1,48
 242 221 242 221 262.5 194.5 c 128,-1,49
 283 168 283 168 314.5 153 c 128,-1,50
 346 138 346 138 387 138 c 0,51,52
 427 138 427 138 466 153 c 128,-1,53
 505 168 505 168 537.5 194.5 c 128,-1,54
 570 221 570 221 593.5 256.5 c 128,-1,55
 617 292 617 292 626 333 c 0,56,57
 635 373 635 373 627 409 c 128,-1,58
 619 445 619 445 597.5 471.5 c 128,-1,59
 576 498 576 498 543.5 513.5 c 128,-1,60
 511 529 511 529 471 529 c 0,61,62
 430 529 430 529 392 513.5 c 128,-1,63
 354 498 354 498 321.5 471.5 c 128,-1,64
 289 445 289 445 267 409 c 128,-1,65
 245 373 245 373 236 333 c 0,46,47
EndSplineSet
EndChar
StartChar: yen
Encoding: 165 165 104
Width: 589
VWidth: 1473
Flags: W
HStem: -6 21G<289.5 302.5> 200 55<151.778 308 383 542.448> 343 56<182.778 303 460 573.104>
Fore
687 716 m 128,-1,1
 698 709 698 709 699 697 c 128,-1,2
 700 685 700 685 689 673 c 2,3,-1
 460 399 l 1,4,-1
 570 399 l 2,5,6
 582 399 582 399 589.5 391 c 128,-1,7
 597 383 597 383 594 371 c 256,8,9
 591 359 591 359 580.5 351 c 128,-1,10
 570 343 570 343 558 343 c 2,11,-1
 411 343 l 1,12,-1
 399 329 l 1,13,-1
 383 255 l 1,14,-1
 539 255 l 2,15,16
 551 255 551 255 558.5 247 c 128,-1,17
 566 239 566 239 563 227 c 256,18,19
 560 215 560 215 549.5 207.5 c 128,-1,20
 539 200 539 200 527 200 c 2,21,-1
 371 200 l 1,22,-1
 336 28 l 2,23,24
 333 13 333 13 321 3.5 c 128,-1,25
 309 -6 309 -6 296 -6 c 256,26,27
 283 -6 283 -6 276.5 3.5 c 128,-1,28
 270 13 270 13 273 28 c 2,29,-1
 308 200 l 1,30,-1
 155 200 l 2,31,32
 143 200 143 200 135.5 207.5 c 128,-1,33
 128 215 128 215 131 227 c 256,34,35
 134 239 134 239 144.5 247 c 128,-1,36
 155 255 155 255 166 255 c 2,37,-1
 320 255 l 1,38,-1
 336 329 l 1,39,-1
 330 343 l 1,40,-1
 186 343 l 2,41,42
 174 343 174 343 166.5 351 c 128,-1,43
 159 359 159 359 162 371 c 256,44,45
 165 383 165 383 175.5 391 c 128,-1,46
 186 399 186 399 197 399 c 2,47,-1
 303 399 l 1,48,-1
 194 673 l 2,49,50
 189 685 189 685 195.5 697 c 128,-1,51
 202 709 202 709 214 716 c 0,52,53
 227 723 227 723 240 720 c 128,-1,54
 253 717 253 717 258 706 c 2,55,-1
 382 399 l 1,56,-1
 383 399 l 1,57,-1
 638 706 l 2,58,59
 648 717 648 717 662 720 c 128,-1,0
 676 723 676 723 687 716 c 128,-1,1
EndSplineSet
EndChar
StartChar: brokenbar
Encoding: 166 166 105
Width: 232
VWidth: 1473
Flags: W
VStem: 52 244<-180 722 -214.228 172.847> 243 53<666.332 763.419>
Fore
277 760 m 0,0,1
 302 760 302 760 296 722 c 2,2,-1
 222 377 l 2,3,4
 214 337 214 337 187 337 c 256,5,6
 161 337 161 337 169 377 c 2,7,-1
 243 722 l 2,8,9
 249 760 249 760 277 760 c 0,0,1
159 203 m 256,10,11
 186 203 186 203 177 164 c 2,12,-1
 105 -180 l 2,13,14
 96 -220 96 -220 69 -220 c 256,15,16
 43 -220 43 -220 52 -180 c 2,17,-1
 124 164 l 2,18,19
 133 203 133 203 159 203 c 256,10,11
EndSplineSet
EndChar
StartChar: section
Encoding: 167 167 106
Width: 567
VWidth: 1473
Flags: W
HStem: 704 46<396.156 491.309>
VStem: 410.5 54.5<61.6465 101.5> 532 48<560.684 605.181 605.181 616.727 616.727 622.5 622.5 642.795>
Fore
181 94 m 0,0,1
 166 28 166 28 199.5 -3.5 c 128,-1,2
 233 -35 233 -35 298 -28 c 0,3,4
 330 -25 330 -25 358 -4.5 c 128,-1,5
 386 16 386 16 400 44 c 128,-1,6
 414 72 414 72 410.5 101.5 c 128,-1,7
 407 131 407 131 376 152 c 2,8,-1
 192 273 l 2,9,10
 158 293 158 293 149 328.5 c 128,-1,11
 140 364 140 364 152 401 c 128,-1,12
 164 438 164 438 194.5 470 c 128,-1,13
 225 502 225 502 273 520 c 1,14,15
 243 548 243 548 243 587 c 128,-1,16
 243 626 243 626 267.5 662 c 128,-1,17
 292 698 292 698 337.5 724 c 128,-1,18
 383 750 383 750 443 750 c 0,19,20
 489 750 489 750 518.5 735 c 128,-1,21
 548 720 548 720 563.5 697.5 c 128,-1,22
 579 675 579 675 582.5 645.5 c 128,-1,23
 586 616 586 616 580 588 c 0,24,25
 576 560 576 560 551 560 c 0,26,27
 527 560 527 560 532 588 c 0,28,29
 535 603 535 603 534 622.5 c 128,-1,30
 533 642 533 642 523.5 660 c 128,-1,31
 514 678 514 678 492 690.5 c 128,-1,32
 470 703 470 703 432 704 c 0,33,34
 401 706 401 706 370 691 c 128,-1,35
 339 676 339 676 320 654 c 128,-1,36
 301 632 301 632 297 604 c 128,-1,37
 293 576 293 576 315 551 c 0,38,39
 326 541 326 541 360.5 516.5 c 128,-1,40
 395 492 395 492 433 467 c 128,-1,41
 471 442 471 442 502 422 c 128,-1,42
 533 402 533 402 536 401 c 1,43,44
 564 377 564 377 568 342.5 c 128,-1,45
 572 308 572 308 556.5 274 c 128,-1,46
 541 240 541 240 509 210 c 128,-1,47
 477 180 477 180 436 165 c 1,48,49
 467 136 467 136 465 95.5 c 128,-1,50
 463 55 463 55 439 17 c 128,-1,51
 415 -21 415 -21 373 -48 c 128,-1,52
 331 -75 331 -75 283 -77 c 0,53,54
 196 -81 196 -81 152.5 -34 c 128,-1,55
 109 13 109 13 125 96 c 0,56,57
 128 112 128 112 139 118.5 c 128,-1,58
 150 125 150 125 164 125 c 0,59,60
 189 125 189 125 181 94 c 0,0,1
293 489 m 1,61,62
 259 477 259 477 235.5 456 c 128,-1,63
 212 435 212 435 202.5 409 c 128,-1,64
 193 383 193 383 200.5 357 c 128,-1,65
 208 331 208 331 236 312 c 2,66,-1
 414 196 l 1,67,68
 449 208 449 208 473.5 230 c 128,-1,69
 498 252 498 252 509 277 c 128,-1,70
 520 302 520 302 514 328 c 128,-1,71
 508 354 508 354 483 371 c 2,72,-1
 293 489 l 1,61,62
EndSplineSet
EndChar
StartChar: dieresis
Encoding: 168 168 107
Width: 318
VWidth: 1473
Flags: W
HStem: 592 93<168.986 221.984 363.985 416.499>
VStem: 150 93<604.893 660.117> 345 93<612.047 673.174>
Fore
345 638 m 0,0,1
 348 659 348 659 363.5 672 c 128,-1,2
 379 685 379 685 399 685 c 256,3,4
 420 685 420 685 430 672 c 128,-1,5
 440 659 440 659 438 638 c 0,6,7
 433 617 433 617 417 604.5 c 128,-1,8
 401 592 401 592 380 592 c 256,9,10
 359 592 359 592 349.5 604.5 c 128,-1,11
 340 617 340 617 345 638 c 0,0,1
150 638 m 0,12,13
 153 659 153 659 168.5 672 c 128,-1,14
 184 685 184 685 205 685 c 256,15,16
 225 685 225 685 235.5 672 c 128,-1,17
 246 659 246 659 243 638 c 0,18,19
 239 617 239 617 222.5 604.5 c 128,-1,20
 206 592 206 592 186 592 c 256,21,22
 165 592 165 592 155.5 604.5 c 128,-1,23
 146 617 146 617 150 638 c 0,12,13
EndSplineSet
EndChar
StartChar: copyright
Encoding: 169 169 108
Width: 869
VWidth: 1473
Flags: W
HStem: -15 46<324.622 558.699> 124 53<365.567 584.15> 541 48<440.289 653.97> 691 43<456.667 691.888>
Fore
133 359 m 0,0,1
 149 436 149 436 193 504.5 c 128,-1,2
 237 573 237 573 299 624 c 128,-1,3
 361 675 361 675 435.5 704.5 c 128,-1,4
 510 734 510 734 588 734 c 0,5,6
 664 734 664 734 727 704.5 c 128,-1,7
 790 675 790 675 830.5 624 c 128,-1,8
 871 573 871 573 885.5 504.5 c 128,-1,9
 900 436 900 436 884 359 c 0,10,11
 868 281 868 281 823.5 213.5 c 128,-1,12
 779 146 779 146 717.5 95 c 128,-1,13
 656 44 656 44 580.5 14.5 c 128,-1,14
 505 -15 505 -15 429 -15 c 0,15,16
 351 -15 351 -15 289 14.5 c 128,-1,17
 227 44 227 44 186.5 95 c 128,-1,18
 146 146 146 146 131 213.5 c 128,-1,19
 116 281 116 281 133 359 c 0,0,1
439 31 m 0,20,21
 507 31 507 31 572.5 56.5 c 128,-1,22
 638 82 638 82 692.5 127 c 128,-1,23
 747 172 747 172 785.5 232 c 128,-1,24
 824 292 824 292 838 359 c 256,25,26
 853 427 853 427 839.5 487.5 c 128,-1,27
 826 548 826 548 791 593.5 c 128,-1,28
 756 639 756 639 701.5 665 c 128,-1,29
 647 691 647 691 579 691 c 0,30,31
 510 691 510 691 444.5 665 c 128,-1,32
 379 639 379 639 324.5 593.5 c 128,-1,33
 270 548 270 548 231 487.5 c 128,-1,34
 192 427 192 427 177 359 c 256,35,36
 162 292 162 292 176 232 c 128,-1,37
 190 172 190 172 225.5 127 c 128,-1,38
 261 82 261 82 315.5 56.5 c 128,-1,39
 370 31 370 31 439 31 c 0,20,21
638 231 m 0,40,41
 645 239 645 239 654.5 239.5 c 128,-1,42
 664 240 664 240 670 233 c 0,43,44
 678 225 678 225 675 215 c 128,-1,45
 672 205 672 205 664 197 c 0,46,47
 589 124 589 124 457 124 c 0,48,49
 408 124 408 124 367 138.5 c 128,-1,50
 326 153 326 153 297 183.5 c 128,-1,51
 268 214 268 214 257 257.5 c 128,-1,52
 246 301 246 301 258 358 c 0,53,54
 267 398 267 398 290.5 439 c 128,-1,55
 314 480 314 480 351.5 513.5 c 128,-1,56
 389 547 389 547 440.5 568 c 128,-1,57
 492 589 492 589 557 589 c 0,58,59
 625 589 625 589 667.5 571.5 c 128,-1,60
 710 554 710 554 734 519 c 0,61,62
 740 511 740 511 736 501 c 128,-1,63
 732 491 732 491 725 483 c 0,64,65
 716 476 716 476 706.5 476.5 c 128,-1,66
 697 477 697 477 691 485 c 0,67,68
 656 541 656 541 547 541 c 0,69,70
 458 541 458 541 393.5 494.5 c 128,-1,71
 329 448 329 448 309 358 c 0,72,73
 290 265 290 265 333 221 c 128,-1,74
 376 177 376 177 468 177 c 0,75,76
 579 177 579 177 638 231 c 0,40,41
EndSplineSet
EndChar
StartChar: ordfeminine
Encoding: 170 170 109
Width: 378
VWidth: 1473
Flags: W
HStem: 303 42<193.071 288.009> 485 44<227.793 342.293> 583 42<269.977 384.278>
VStem: 123.5 314.5<366 482 366 366>
Fore
242 303 m 0,0,1
 214 303 214 303 189.5 310 c 128,-1,2
 165 317 165 317 148 331 c 128,-1,3
 131 345 131 345 123.5 366 c 128,-1,4
 116 387 116 387 124 417 c 0,5,6
 136 468 136 468 183.5 498.5 c 128,-1,7
 231 529 231 529 298 529 c 0,8,9
 349 529 349 529 370.5 513.5 c 128,-1,10
 392 498 392 498 401 486 c 1,11,12
 410 538 410 538 385.5 560.5 c 128,-1,13
 361 583 361 583 305 583 c 0,14,15
 275 583 275 583 252.5 576.5 c 128,-1,16
 230 570 230 570 206 558 c 0,17,18
 190 551 190 551 185 554 c 128,-1,19
 180 557 180 557 177 560 c 0,20,21
 169 567 169 567 176 577.5 c 128,-1,22
 183 588 183 588 190 592 c 0,23,24
 220 608 220 608 251.5 616.5 c 128,-1,25
 283 625 283 625 315 625 c 0,26,27
 392 625 392 625 423 591 c 128,-1,28
 454 557 454 557 438 482 c 2,29,-1
 405 330 l 2,30,31
 401 308 401 308 379 308 c 0,32,33
 371 308 371 308 367.5 314.5 c 128,-1,34
 364 321 364 321 367 330 c 2,35,-1
 370 345 l 1,36,37
 343 324 343 324 310 313.5 c 128,-1,38
 277 303 277 303 242 303 c 0,0,1
286 485 m 0,39,40
 267 485 267 485 247 480.5 c 128,-1,41
 227 476 227 476 210 467 c 128,-1,42
 193 458 193 458 180.5 445 c 128,-1,43
 168 432 168 432 164 414 c 0,44,45
 156 380 156 380 181 362.5 c 128,-1,46
 206 345 206 345 253 345 c 0,47,48
 290 345 290 345 314.5 353.5 c 128,-1,49
 339 362 339 362 352 374 c 128,-1,50
 365 386 365 386 371 397 c 128,-1,51
 377 408 377 408 379 414 c 0,52,53
 383 436 383 436 375.5 449.5 c 128,-1,54
 368 463 368 463 353.5 471 c 128,-1,55
 339 479 339 479 320.5 482 c 128,-1,56
 302 485 302 485 286 485 c 0,39,40
EndSplineSet
EndChar
StartChar: guillemotleft
Encoding: 171 171 110
Width: 441
VWidth: 1473
Flags: W
HStem: 62 429<214 305 305 305>
VStem: 99 379<275 474.5 275 275>
Fore
270 482 m 2,0,1
 286 501 286 501 305 491 c 1,2,3
 312 485 312 485 313 474.5 c 128,-1,4
 314 464 314 464 306 455 c 2,5,-1
 152 275 l 1,6,-1
 230 96 l 2,7,8
 234 87 234 87 229 76.5 c 128,-1,9
 224 66 224 66 214 62 c 0,10,11
 192 50 192 50 181 69 c 2,12,-1
 99 275 l 1,13,-1
 270 482 l 2,0,1
435 482 m 2,14,15
 451 501 451 501 470 491 c 1,16,17
 477 485 477 485 478 474.5 c 128,-1,18
 479 464 479 464 471 455 c 2,19,-1
 317 275 l 1,20,-1
 395 96 l 2,21,22
 399 87 399 87 394 76.5 c 128,-1,23
 389 66 389 66 379 62 c 0,24,25
 357 50 357 50 346 69 c 2,26,-1
 264 275 l 1,27,-1
 435 482 l 2,14,15
EndSplineSet
EndChar
StartChar: logicalnot
Encoding: 172 172 111
Width: 754
VWidth: 1473
Flags: W
HStem: 358 59<144.746 712>
Fore
159 417 m 2,0,-1
 784 417 l 1,1,-1
 720 124 l 2,2,3
 717 112 717 112 707 103 c 128,-1,4
 697 94 697 94 685 94 c 0,5,6
 672 94 672 94 665.5 103 c 128,-1,7
 659 112 659 112 661 124 c 2,8,-1
 712 358 l 1,9,-1
 146 358 l 2,10,11
 134 358 134 358 126.5 366 c 128,-1,12
 119 374 119 374 122 386 c 0,13,14
 125 399 125 399 136 408 c 128,-1,15
 147 417 147 417 159 417 c 2,0,-1
EndSplineSet
EndChar
StartChar: registered
Encoding: 174 174 112
Width: 842
VWidth: 1473
Flags: W
HStem: -15 43<314.422 548.407> 564 41<475.689 616.85> 691 44<447.518 681.336>
Fore
872 359 m 256,0,1
 856 281 856 281 812.5 213.5 c 128,-1,2
 769 146 769 146 707 95 c 128,-1,3
 645 44 645 44 570 14.5 c 128,-1,4
 495 -15 495 -15 418 -15 c 0,5,6
 340 -15 340 -15 278.5 14.5 c 128,-1,7
 217 44 217 44 177 95 c 128,-1,8
 137 146 137 146 121.5 213.5 c 128,-1,9
 106 281 106 281 122 359 c 256,10,11
 138 438 138 438 182.5 506.5 c 128,-1,12
 227 575 227 575 289 625.5 c 128,-1,13
 351 676 351 676 426 705.5 c 128,-1,14
 501 735 501 735 579 735 c 0,15,16
 656 735 656 735 717.5 705.5 c 128,-1,17
 779 676 779 676 819 625.5 c 128,-1,18
 859 575 859 575 873.5 506.5 c 128,-1,19
 888 438 888 438 872 359 c 256,0,1
829 359 m 256,20,21
 844 429 844 429 831 489.5 c 128,-1,22
 818 550 818 550 782.5 594.5 c 128,-1,23
 747 639 747 639 691.5 665 c 128,-1,24
 636 691 636 691 569 691 c 0,25,26
 499 691 499 691 433.5 665 c 128,-1,27
 368 639 368 639 313.5 594.5 c 128,-1,28
 259 550 259 550 220 489.5 c 128,-1,29
 181 429 181 429 166 359 c 256,30,31
 152 290 152 290 165 230.5 c 128,-1,32
 178 171 178 171 213.5 125.5 c 128,-1,33
 249 80 249 80 304 54 c 128,-1,34
 359 28 359 28 429 28 c 0,35,36
 496 28 496 28 562.5 54 c 128,-1,37
 629 80 629 80 683.5 125.5 c 128,-1,38
 738 171 738 171 776.5 230.5 c 128,-1,39
 815 290 815 290 829 359 c 256,20,21
495 309 m 1,40,41
 519 303 519 303 541.5 281 c 128,-1,42
 564 259 564 259 582.5 234 c 128,-1,43
 601 209 601 209 613 185.5 c 128,-1,44
 625 162 625 162 626 152 c 0,45,46
 629 140 629 140 613 133 c 1,47,48
 595 121 595 121 585 138 c 0,49,50
 563 186 563 186 535.5 220.5 c 128,-1,51
 508 255 508 255 483 278 c 128,-1,52
 458 301 458 301 438 314 c 128,-1,53
 418 327 418 327 411 331 c 1,54,55
 399 334 399 334 395.5 343 c 128,-1,56
 392 352 392 352 402 362 c 0,57,58
 408 370 408 370 417.5 370.5 c 128,-1,59
 427 371 427 371 433 368 c 0,60,61
 470 352 470 352 508.5 347.5 c 128,-1,62
 547 343 547 343 580 350.5 c 128,-1,63
 613 358 613 358 636.5 380 c 128,-1,64
 660 402 660 402 669 442 c 0,65,66
 682 502 682 502 648 533 c 128,-1,67
 614 564 614 564 548 564 c 0,68,69
 474 564 474 564 425 531.5 c 128,-1,70
 376 499 376 499 361 436 c 2,71,-1
 302 155 l 2,72,73
 296 133 296 133 277 133 c 0,74,75
 253 133 253 133 259 155 c 2,76,-1
 320 442 l 2,77,78
 330 488 330 488 354.5 519.5 c 128,-1,79
 379 551 379 551 411 570 c 128,-1,80
 443 589 443 589 481 597 c 128,-1,81
 519 605 519 605 557 605 c 0,82,83
 588 605 588 605 620.5 597 c 128,-1,84
 653 589 653 589 676.5 570.5 c 128,-1,85
 700 552 700 552 711.5 520.5 c 128,-1,86
 723 489 723 489 713 443 c 0,87,88
 697 367 697 367 634.5 332.5 c 128,-1,89
 572 298 572 298 495 309 c 1,40,41
EndSplineSet
EndChar
StartChar: macron
Encoding: 175 175 113
Width: 318
VWidth: 1473
Flags: W
HStem: 622 47<183 407 172 417 183 183>
Fore
172 622 m 1,0,-1
 183 669 l 1,1,-1
 417 669 l 1,2,-1
 407 622 l 1,3,-1
 172 622 l 1,0,-1
EndSplineSet
EndChar
StartChar: degree
Encoding: 176 176 114
Width: 318
VWidth: 1473
Flags: W
HStem: 470 49<219.762 310.987> 684 51<267.738 357.114>
VStem: 156 264.5<628 628 601 652 601 601>
Fore
318 735 m 256,0,1
 345 735 345 735 366 724 c 128,-1,2
 387 713 387 713 401 694.5 c 128,-1,3
 415 676 415 676 420.5 652 c 128,-1,4
 426 628 426 628 420 601 c 256,5,6
 414 575 414 575 398.5 550.5 c 128,-1,7
 383 526 383 526 361 508.5 c 128,-1,8
 339 491 339 491 313 480.5 c 128,-1,9
 287 470 287 470 261 470 c 256,10,11
 234 470 234 470 212 480.5 c 128,-1,12
 190 491 190 491 176 508.5 c 128,-1,13
 162 526 162 526 156 550.5 c 128,-1,14
 150 575 150 575 156 601 c 256,15,16
 162 628 162 628 177.5 652 c 128,-1,17
 193 676 193 676 215 694.5 c 128,-1,18
 237 713 237 713 264.5 724 c 128,-1,19
 292 735 292 735 318 735 c 256,0,1
271 519 m 256,20,21
 305 519 305 519 334.5 543 c 128,-1,22
 364 567 364 567 371 601 c 256,23,24
 379 635 379 635 359.5 659.5 c 128,-1,25
 340 684 340 684 306 684 c 256,26,27
 273 684 273 684 243.5 659.5 c 128,-1,28
 214 635 214 635 206 601 c 256,29,30
 199 567 199 567 218 543 c 128,-1,31
 237 519 237 519 271 519 c 256,20,21
EndSplineSet
EndChar
StartChar: plusminus
Encoding: 177 177 115
Width: 632
VWidth: 1473
Flags: W
HStem: 0 56<106.587 541.547> 277 57<161.42 346 417 601.188>
VStem: 105 498<28 305 40.0112 168.243> 389 57<455.017 506.915>
Fore
192 277 m 2,0,1
 155 277 155 277 159 305 c 0,2,3
 165 334 165 334 205 334 c 2,4,-1
 359 334 l 1,5,-1
 389 471 l 2,6,7
 395 510 395 510 426 510 c 0,8,9
 452 510 452 510 446 471 c 2,10,-1
 417 334 l 1,11,-1
 570 334 l 2,12,13
 608 334 608 334 603 305 c 0,14,15
 598 277 598 277 557 277 c 2,16,-1
 404 277 l 1,17,-1
 377 146 l 2,18,19
 368 106 368 106 340 106 c 0,20,21
 311 106 311 106 320 146 c 2,22,-1
 346 277 l 1,23,-1
 192 277 l 2,0,1
511 56 m 2,24,25
 548 56 548 56 544 28 c 0,26,27
 536 0 536 0 499 0 c 2,28,-1
 138 0 l 2,29,30
 97 0 97 0 105 28 c 0,31,32
 109 56 109 56 150 56 c 2,33,-1
 511 56 l 2,24,25
EndSplineSet
EndChar
StartChar: twosuperior
Encoding: 178 178 116
Width: 453
VWidth: 1473
Flags: W
HStem: 280 51<228 434.781> 653 53<309.758 424.342>
VStem: 187 55<558.035 601.773>
Fore
454 306 m 1,0,1
 451 295 451 295 441.5 287.5 c 128,-1,2
 432 280 432 280 418 280 c 2,3,-1
 149 280 l 2,4,5
 128 280 128 280 125 297.5 c 128,-1,6
 122 315 122 315 141 331 c 2,7,-1
 174 354 l 2,8,9
 199 370 199 370 251 406 c 128,-1,10
 303 442 303 442 401 511 c 0,11,12
 429 532 429 532 440 556 c 128,-1,13
 451 580 451 580 445.5 601.5 c 128,-1,14
 440 623 440 623 421 638 c 128,-1,15
 402 653 402 653 373 653 c 0,16,17
 339 653 339 653 316 645.5 c 128,-1,18
 293 638 293 638 278.5 625.5 c 128,-1,19
 264 613 264 613 255 596 c 128,-1,20
 246 579 246 579 242 560 c 0,21,22
 239 548 239 548 229.5 542 c 128,-1,23
 220 536 220 536 209 536 c 256,24,25
 199 536 199 536 191.5 545 c 128,-1,26
 184 554 184 554 187 564 c 0,27,28
 230 706 230 706 383 706 c 0,29,30
 430 706 430 706 460.5 681.5 c 128,-1,31
 491 657 491 657 499 621 c 128,-1,32
 507 585 507 585 490 544.5 c 128,-1,33
 473 504 473 504 427 471 c 2,34,35
 403.5 454.5 l 2,36,37
 380 438 380 438 347.5 415.5 c 128,-1,38
 315 393 315 393 282 369.5 c 128,-1,39
 249 346 249 346 228 331 c 1,40,-1
 429 331 l 2,41,42
 442 331 442 331 448 324 c 1,43,-1
 454 306 l 1,0,1
EndSplineSet
EndChar
StartChar: threesuperior
Encoding: 179 179 117
Width: 441
VWidth: 1473
Flags: W
HStem: 280 54<247.844 340.469> 486 55<292.317 374.751> 656 53<289.672 414.197>
VStem: 165 52<368.875 431.749> 206 52<590.383 655.072>
Fore
457 404 m 0,0,1
 451 377 451 377 433 354 c 128,-1,2
 415 331 415 331 391.5 314.5 c 128,-1,3
 368 298 368 298 341 289 c 128,-1,4
 314 280 314 280 287 280 c 0,5,6
 267 280 267 280 242.5 288 c 128,-1,7
 218 296 218 296 198 312.5 c 128,-1,8
 178 329 178 329 168 354 c 128,-1,9
 158 379 158 379 165 412 c 0,10,11
 168 424 168 424 176 432 c 128,-1,12
 184 440 184 440 196 440 c 0,13,14
 221 440 221 440 217 412 c 0,15,16
 208 370 208 370 236 352 c 128,-1,17
 264 334 264 334 299 334 c 0,18,19
 331 334 331 334 362 352 c 128,-1,20
 393 370 393 370 401 404 c 0,21,22
 407 430 407 430 402.5 446.5 c 128,-1,23
 398 463 398 463 390.5 471.5 c 128,-1,24
 383 480 383 480 375 483 c 128,-1,25
 367 486 367 486 364 486 c 2,26,-1
 295 486 l 2,27,28
 284 486 284 486 277 493.5 c 128,-1,29
 270 501 270 501 273 513 c 256,30,31
 275 524 275 524 285 532.5 c 128,-1,32
 295 541 295 541 306 541 c 2,33,-1
 382 541 l 1,34,35
 401 544 401 544 414 563 c 128,-1,36
 427 582 427 582 427 601 c 0,37,38
 429 622 429 622 412.5 639 c 128,-1,39
 396 656 396 656 364 656 c 0,40,41
 323 656 323 656 294 640.5 c 128,-1,42
 265 625 265 625 258 594 c 0,43,44
 255 582 255 582 246 574.5 c 128,-1,45
 237 567 237 567 225 567 c 0,46,47
 215 567 215 567 209 575 c 128,-1,48
 203 583 203 583 206 594 c 0,49,50
 218 648 218 648 263.5 678.5 c 128,-1,51
 309 709 309 709 376 709 c 0,52,53
 427 709 427 709 456 680 c 128,-1,54
 485 651 485 651 482 613 c 0,55,56
 480 585 480 585 463 557 c 128,-1,57
 446 529 446 529 418 513 c 1,58,59
 442 501 442 501 454 475 c 128,-1,60
 466 449 466 449 457 404 c 0,0,1
EndSplineSet
EndChar
StartChar: acute
Encoding: 180 180 118
Width: 318
VWidth: 1473
Flags: W
HStem: 569 153<286 371 371 371>
Fore
286 569 m 1,0,-1
 240 569 l 1,1,-1
 371 722 l 1,2,-1
 458 722 l 1,3,-1
 286 569 l 1,0,-1
EndSplineSet
EndChar
StartChar: mu
Encoding: 181 181 119
Width: 702
VWidth: 1473
Flags: W
HStem: -283 21G<40 60.5> -7 57<256.37 464.538> 506 20G<216.5 228 682 701>
Fore
149 108 m 1,0,1
 144 87 144 87 137.5 48.5 c 128,-1,2
 131 10 131 10 125 -32 c 128,-1,3
 119 -74 119 -74 113.5 -115 c 128,-1,4
 108 -156 108 -156 106 -184 c 0,5,6
 105 -202 105 -202 102 -219 c 128,-1,7
 99 -236 99 -236 93 -250.5 c 128,-1,8
 87 -265 87 -265 77.5 -274 c 128,-1,9
 68 -283 68 -283 53 -283 c 0,10,11
 27 -283 27 -283 24 -256.5 c 128,-1,12
 21 -230 21 -230 37 -184 c 0,13,14
 46 -150 46 -150 56 -112 c 0,15,16
 65 -78 65 -78 74.5 -34 c 128,-1,17
 84 10 84 10 96 60 c 2,18,-1
 189 498 l 2,19,20
 192 510 192 510 201.5 518 c 128,-1,21
 211 526 211 526 222 526 c 256,22,23
 234 526 234 526 240.5 518 c 128,-1,24
 247 510 247 510 245 498 c 2,25,-1
 192 243 l 2,26,27
 172 155 172 155 217 102.5 c 128,-1,28
 262 50 262 50 358 50 c 0,29,30
 567 50 567 50 611 258 c 2,31,-1
 661 498 l 2,32,33
 669 526 669 526 695 526 c 0,34,35
 707 526 707 526 713 518 c 128,-1,36
 719 510 719 510 716 498 c 2,37,-1
 616 22 l 2,38,39
 608 -6 608 -6 583 -6 c 0,40,41
 572 -6 572 -6 566 2 c 128,-1,42
 560 10 560 10 563 22 c 2,43,-1
 577 93 l 1,44,45
 535 46 535 46 477.5 19.5 c 128,-1,46
 420 -7 420 -7 345 -7 c 0,47,48
 268 -7 268 -7 216.5 19.5 c 128,-1,49
 165 46 165 46 149 108 c 1,0,1
EndSplineSet
EndChar
StartChar: paragraph
Encoding: 182 182 120
Width: 589
VWidth: 1473
Flags: W
HStem: 656 59<473 557 565 569.863>
VStem: 179 449<432 665.5 440 444.863>
Fore
617 691 m 0,0,1
 625 684 625 684 628 665.5 c 128,-1,2
 631 647 631 647 626 625 c 2,3,-1
 448 -209 l 2,4,5
 445 -221 445 -221 434.5 -229 c 128,-1,6
 424 -237 424 -237 412 -237 c 256,7,8
 401 -237 401 -237 394 -229 c 128,-1,9
 387 -221 387 -221 390 -209 c 2,10,-1
 569 625 l 2,11,12
 575 656 575 656 544 656 c 2,13,-1
 473 656 l 1,14,-1
 290 -202 l 2,15,16
 287 -214 287 -214 277.5 -222 c 128,-1,17
 268 -230 268 -230 256 -230 c 0,18,19
 230 -230 230 -230 234 -202 c 2,20,-1
 345 315 l 1,21,22
 301 314 301 314 266 328.5 c 128,-1,23
 231 343 231 343 209 369.5 c 128,-1,24
 187 396 187 396 179 432 c 128,-1,25
 171 468 171 468 180 511 c 256,26,27
 189 554 189 554 212.5 591 c 128,-1,28
 236 628 236 628 269 656 c 128,-1,29
 302 684 302 684 342.5 699.5 c 128,-1,30
 383 715 383 715 426 715 c 2,31,-1
 557 715 l 2,32,33
 558 715 558 715 565 715 c 128,-1,34
 572 715 572 715 581.5 712.5 c 128,-1,35
 591 710 591 710 600.5 705 c 128,-1,36
 610 700 610 700 617 691 c 0,0,1
EndSplineSet
EndChar
StartChar: periodcentered
Encoding: 183 183 121
Width: 338
VWidth: 1473
Flags: W
HStem: 253 190<198.18 288.425>
VStem: 147 192<321.458 413.498>
Fore
339 348 m 0,0,1
 330 308 330 308 296 280.5 c 128,-1,2
 262 253 262 253 222 253 c 0,3,4
 184 253 184 253 161 280.5 c 128,-1,5
 138 308 138 308 147 348 c 0,6,7
 155 387 155 387 189.5 415 c 128,-1,8
 224 443 224 443 262 443 c 0,9,10
 302 443 302 443 324 415 c 128,-1,11
 346 387 346 387 339 348 c 0,0,1
EndSplineSet
EndChar
StartChar: cedilla
Encoding: 184 184 122
Width: 318
VWidth: 1473
Flags: W
HStem: -209.5 215.5<65.5 162 162 162>
VStem: 10 215<-189 -122 -189 -189>
Fore
225 -122 m 0,0,1
 218 -158 218 -158 191.5 -178.5 c 128,-1,2
 165 -199 165 -199 132 -206.5 c 128,-1,3
 99 -214 99 -214 65.5 -209.5 c 128,-1,4
 32 -205 32 -205 10 -189 c 1,5,-1
 49 -152 l 1,6,7
 57 -161 57 -161 75 -165 c 128,-1,8
 93 -169 93 -169 111.5 -167.5 c 128,-1,9
 130 -166 130 -166 144.5 -157.5 c 128,-1,10
 159 -149 159 -149 164 -130 c 0,11,12
 168 -105 168 -105 145 -91 c 128,-1,13
 122 -77 122 -77 87 -80 c 1,14,-1
 162 6 l 1,15,-1
 217 6 l 1,16,-1
 159 -52 l 1,17,18
 174 -55 174 -55 187 -60.5 c 128,-1,19
 200 -66 200 -66 210 -75 c 128,-1,20
 220 -84 220 -84 224 -96 c 128,-1,21
 228 -108 228 -108 225 -122 c 0,0,1
EndSplineSet
EndChar
StartChar: onesuperior
Encoding: 185 185 123
Width: 343
VWidth: 1473
Flags: W
HStem: 281 424<250 348.5 285.268 299.878>
VStem: 190 172.5<628 682 564.768 579.378>
Fore
283 309 m 2,0,1
 280 298 280 298 271 289.5 c 128,-1,2
 262 281 262 281 250 281 c 256,3,4
 239 281 239 281 233 289.5 c 128,-1,5
 227 298 227 298 230 309 c 2,6,-1
 301 639 l 1,7,-1
 221 613 l 2,8,9
 209 608 209 608 200.5 612.5 c 128,-1,10
 192 617 192 617 190 628 c 0,11,12
 187 639 187 639 193.5 647.5 c 128,-1,13
 200 656 200 656 212 661 c 2,14,-1
 331 704 l 2,15,16
 343 707 343 707 348.5 705 c 128,-1,17
 354 703 354 703 357 700 c 0,18,19
 364 692 364 692 362.5 682 c 128,-1,20
 361 672 361 672 359 669 c 1,21,-1
 283 309 l 2,0,1
EndSplineSet
EndChar
StartChar: ordmasculine
Encoding: 186 186 124
Width: 394
VWidth: 1473
Flags: W
HStem: 275 45<216.766 315.66> 583 45<290.791 382.937>
VStem: 113 360.5<489 489 448 520.5 448 448>
Fore
471 454 m 0,0,1
 461 407 461 407 436.5 373 c 128,-1,2
 412 339 412 339 381.5 317.5 c 128,-1,3
 351 296 351 296 317 285.5 c 128,-1,4
 283 275 283 275 253 275 c 0,5,6
 177 275 177 275 137 324 c 128,-1,7
 97 373 97 373 113 448 c 0,8,9
 122 489 122 489 144 523 c 128,-1,10
 166 557 166 557 196.5 580 c 128,-1,11
 227 603 227 603 261 615.5 c 128,-1,12
 295 628 295 628 329 628 c 0,13,14
 370 628 370 628 401 614 c 128,-1,15
 432 600 432 600 450 576 c 128,-1,16
 468 552 468 552 473.5 520.5 c 128,-1,17
 479 489 479 489 471 454 c 0,0,1
423 451 m 0,18,19
 427 473 427 473 424 496.5 c 128,-1,20
 421 520 421 520 409.5 539 c 128,-1,21
 398 558 398 558 376.5 570.5 c 128,-1,22
 355 583 355 583 321 583 c 0,23,24
 289 583 289 583 262.5 571.5 c 128,-1,25
 236 560 236 560 216 541.5 c 128,-1,26
 196 523 196 523 182.5 498.5 c 128,-1,27
 169 474 169 474 164 449 c 0,28,29
 156 417 156 417 162.5 392.5 c 128,-1,30
 169 368 169 368 184.5 352 c 128,-1,31
 200 336 200 336 221.5 328 c 128,-1,32
 243 320 243 320 265 320 c 0,33,34
 314 320 314 320 361 352.5 c 128,-1,35
 408 385 408 385 423 451 c 0,18,19
EndSplineSet
EndChar
StartChar: guillemotright
Encoding: 187 187 125
Width: 441
VWidth: 1473
Flags: W
HStem: 58 435<271 364.5 364.5 364.5>
VStem: 80.5 379.5<76.5 275 76.5 76.5>
Fore
460 275 m 1,0,-1
 289 69 l 2,1,2
 281 60 281 60 271 58 c 128,-1,3
 261 56 261 56 253 62 c 0,4,5
 246 66 246 66 245.5 76.5 c 128,-1,6
 245 87 245 87 252 96 c 2,7,-1
 407 275 l 1,8,-1
 329 455 l 2,9,10
 326 464 326 464 330 474.5 c 128,-1,11
 334 485 334 485 345 491 c 0,12,13
 355 495 355 495 364.5 493 c 128,-1,14
 374 491 374 491 377 482 c 2,15,-1
 460 275 l 1,0,-1
295 275 m 1,16,-1
 124 69 l 2,17,18
 116 60 116 60 106 58 c 128,-1,19
 96 56 96 56 88 62 c 0,20,21
 81 66 81 66 80.5 76.5 c 128,-1,22
 80 87 80 87 87 96 c 2,23,-1
 242 275 l 1,24,-1
 164 455 l 2,25,26
 161 464 161 464 165 474.5 c 128,-1,27
 169 485 169 485 180 491 c 0,28,29
 190 495 190 495 199.5 493 c 128,-1,30
 209 491 209 491 212 482 c 2,31,-1
 295 275 l 1,16,-1
EndSplineSet
EndChar
StartChar: onequarter
Encoding: 188 188 126
Width: 889
VWidth: 1473
Flags: W
HStem: -1 21G<751 770.5> 82 52<597 753 821 851.545>
Fore
779 703 m 1,0,-1
 834 703 l 1,1,-1
 233 -16 l 1,2,-1
 178 -16 l 1,3,-1
 779 703 l 1,0,-1
283 309 m 2,4,5
 280 298 280 298 271 289.5 c 128,-1,6
 262 281 262 281 250 281 c 256,7,8
 239 281 239 281 233 289.5 c 128,-1,9
 227 298 227 298 230 309 c 2,10,-1
 301 639 l 1,11,-1
 221 613 l 2,12,13
 209 608 209 608 200.5 612.5 c 128,-1,14
 192 617 192 617 190 628 c 0,15,16
 187 639 187 639 193.5 647.5 c 128,-1,17
 200 656 200 656 212 661 c 2,18,-1
 331 704 l 2,19,20
 343 707 343 707 348.5 705 c 128,-1,21
 354 703 354 703 357 700 c 0,22,23
 364 692 364 692 362.5 682 c 128,-1,24
 361 672 361 672 359 669 c 1,25,-1
 283 309 l 2,4,5
869 109 m 0,26,27
 866 97 866 97 857.5 89.5 c 128,-1,28
 849 82 849 82 837 82 c 2,29,-1
 809 82 l 1,30,-1
 797 25 l 2,31,32
 794 13 794 13 785 6 c 128,-1,33
 776 -1 776 -1 765 -1 c 0,34,35
 737 -1 737 -1 741 25 c 2,36,-1
 753 82 l 1,37,-1
 527 82 l 1,38,39
 519 81 519 81 513.5 85.5 c 128,-1,40
 508 90 508 90 506.5 97.5 c 128,-1,41
 505 105 505 105 507.5 112 c 128,-1,42
 510 119 510 119 517 125 c 2,43,-1
 834 418 l 2,44,45
 850 430 850 430 865.5 424 c 128,-1,46
 881 418 881 418 877 398 c 2,47,-1
 821 134 l 1,48,-1
 849 134 l 2,49,50
 854 134 854 134 864 130.5 c 128,-1,51
 874 127 874 127 869 109 c 0,26,27
765 134 m 1,52,-1
 806 330 l 1,53,-1
 597 134 l 1,54,-1
 765 134 l 1,52,-1
EndSplineSet
Ligature2: "'frac' Diagonal Fractions in Latin lookup 0 subtable" one fraction four
Ligature2: "'frac' Diagonal Fractions in Latin lookup 0 subtable" one slash four
EndChar
StartChar: onehalf
Encoding: 189 189 127
Width: 888
VWidth: 1473
Flags: W
HStem: 0 52<631 836.663> 373 53<711.204 825.243>
VStem: 589 55<278.57 325.103>
Fore
735 707 m 1,0,-1
 791 707 l 1,1,-1
 192 -12 l 1,2,-1
 137 -12 l 1,3,-1
 735 707 l 1,0,-1
228 314 m 2,4,-1
 298 644 l 1,5,-1
 220 617 l 2,6,7
 206 613 206 613 197.5 617.5 c 128,-1,8
 189 622 189 622 187 632 c 0,9,10
 184 644 184 644 190.5 652 c 128,-1,11
 197 660 197 660 209 666 c 2,12,-1
 329 709 l 2,13,14
 349 713 349 713 355 704 c 1,15,16
 362 697 362 697 360 686.5 c 128,-1,17
 358 676 358 676 358 673 c 1,18,-1
 281 314 l 2,19,20
 274 286 274 286 249 286 c 0,21,22
 237 286 237 286 231 294 c 128,-1,23
 225 302 225 302 228 314 c 2,4,-1
854 27 m 0,24,25
 852 15 852 15 843 7.5 c 128,-1,26
 834 0 834 0 821 0 c 2,27,-1
 551 0 l 2,28,29
 530 0 530 0 527 17.5 c 128,-1,30
 524 35 524 35 544 52 c 2,31,-1
 576 74 l 2,32,33
 601 90 601 90 653.5 126 c 128,-1,34
 706 162 706 162 803 231 c 0,35,36
 831 252 831 252 841.5 276.5 c 128,-1,37
 852 301 852 301 846.5 322 c 128,-1,38
 841 343 841 343 822 358 c 128,-1,39
 803 373 803 373 773 373 c 0,40,41
 740 373 740 373 717 365.5 c 128,-1,42
 694 358 694 358 679 345.5 c 128,-1,43
 664 333 664 333 656 316 c 128,-1,44
 648 299 648 299 644 280 c 0,45,46
 641 268 641 268 630.5 262 c 128,-1,47
 620 256 620 256 610 256 c 256,48,49
 600 256 600 256 593 265 c 128,-1,50
 586 274 586 274 589 284 c 0,51,52
 632 426 632 426 785 426 c 0,53,54
 832 426 832 426 862.5 401.5 c 128,-1,55
 893 377 893 377 900 341 c 128,-1,56
 907 305 907 305 890.5 264.5 c 128,-1,57
 874 224 874 224 828 192 c 2,58,59
 805 175 l 2,60,61
 782 158 782 158 749.5 135.5 c 128,-1,62
 717 113 717 113 684 89.5 c 128,-1,63
 651 66 651 66 631 52 c 1,64,-1
 831 52 l 2,65,66
 837 52 837 52 848 49 c 128,-1,67
 859 46 859 46 854 27 c 0,24,25
EndSplineSet
Ligature2: "'frac' Diagonal Fractions in Latin lookup 0 subtable" one fraction two
Ligature2: "'frac' Diagonal Fractions in Latin lookup 0 subtable" one slash two
EndChar
StartChar: threequarters
Encoding: 190 190 128
Width: 886
VWidth: 1473
Flags: W
HStem: -4 21G<217 287.69 753 764.5> 85 52<592 750 816 848.897> 283 54<210.844 303.969> 489 55<255.856 329 329 337.751> 659 53<255.535 379.114>
VStem: 128 52<371.875 434.749> 171 51<579.268 631.348> 392 53<566.594 641.468>
Fore
816 715 m 1,0,-1
 871 715 l 1,1,-1
 271 -4 l 1,2,-1
 217 -4 l 1,3,-1
 816 715 l 1,0,-1
420 407 m 0,4,5
 414 380 414 380 397 357 c 128,-1,6
 380 334 380 334 355.5 317.5 c 128,-1,7
 331 301 331 301 304 292 c 128,-1,8
 277 283 277 283 250 283 c 0,9,10
 230 283 230 283 205.5 291 c 128,-1,11
 181 299 181 299 161 315 c 128,-1,12
 141 331 141 331 131 356.5 c 128,-1,13
 121 382 121 382 128 415 c 0,14,15
 131 427 131 427 139 435 c 128,-1,16
 147 443 147 443 159 443 c 0,17,18
 187 443 187 443 180 415 c 0,19,20
 171 373 171 373 199 355 c 128,-1,21
 227 337 227 337 262 337 c 0,22,23
 295 337 295 337 326 355 c 128,-1,24
 357 373 357 373 364 407 c 0,25,26
 370 433 370 433 365.5 449.5 c 128,-1,27
 361 466 361 466 353.5 474.5 c 128,-1,28
 346 483 346 483 338 486 c 128,-1,29
 330 489 330 489 327 489 c 1,30,-1
 329 489 l 1,31,-1
 258 489 l 2,32,33
 247 489 247 489 240.5 496.5 c 128,-1,34
 234 504 234 504 237 516 c 256,35,36
 240 527 240 527 249 535.5 c 128,-1,37
 258 544 258 544 270 544 c 2,38,-1
 345 544 l 1,39,40
 365 547 365 547 377.5 566 c 128,-1,41
 390 585 390 585 392 604 c 0,42,43
 392 625 392 625 378 642 c 128,-1,44
 364 659 364 659 331 659 c 0,45,46
 290 659 290 659 260 643.5 c 128,-1,47
 230 628 230 628 222 597 c 0,48,49
 220 585 220 585 211 577.5 c 128,-1,50
 202 570 202 570 190 570 c 0,51,52
 180 570 180 570 174 578 c 128,-1,53
 168 586 168 586 171 597 c 0,54,55
 183 651 183 651 229 681.5 c 128,-1,56
 275 712 275 712 342 712 c 0,57,58
 393 712 393 712 419.5 681.5 c 128,-1,59
 446 651 446 651 445 616 c 0,60,61
 445 588 445 588 427.5 560 c 128,-1,62
 410 532 410 532 383 516 c 1,63,64
 401 504 401 504 415.5 478 c 128,-1,65
 430 452 430 452 420 407 c 0,4,5
865 110 m 0,66,67
 862 99 862 99 854 92 c 128,-1,68
 846 85 846 85 834 85 c 2,69,-1
 806 85 l 1,70,-1
 794 28 l 2,71,72
 791 16 791 16 780.5 8.5 c 128,-1,73
 770 1 770 1 759 1 c 256,74,75
 747 1 747 1 741 9.5 c 128,-1,76
 735 18 735 18 738 28 c 2,77,-1
 750 85 l 1,78,-1
 524 85 l 2,79,80
 508 84 508 84 503 100 c 128,-1,81
 498 116 498 116 513 128 c 2,82,-1
 829 421 l 1,83,84
 847 433 847 433 862 426.5 c 128,-1,85
 877 420 877 420 872 401 c 2,86,-1
 816 137 l 1,87,-1
 844 137 l 2,88,89
 850 137 850 137 859.5 133.5 c 128,-1,90
 869 130 869 130 865 110 c 0,66,67
760 137 m 1,91,-1
 803 333 l 1,92,-1
 592 137 l 1,93,-1
 760 137 l 1,91,-1
EndSplineSet
Ligature2: "'frac' Diagonal Fractions in Latin lookup 0 subtable" three fraction four
Ligature2: "'frac' Diagonal Fractions in Latin lookup 0 subtable" three slash four
EndChar
StartChar: questiondown
Encoding: 191 191 129
Width: 615
VWidth: 1473
Flags: W
HStem: -233 55<205.912 382.384> 415 105<447.11 503.921>
VStem: 423 104<430.986 504.122>
Fore
69 -16 m 0,0,1
 81 37 81 37 113.5 80.5 c 128,-1,2
 146 124 146 124 194 149 c 0,3,4
 224 164 224 164 244 170.5 c 128,-1,5
 264 177 264 177 280 181.5 c 128,-1,6
 296 186 296 186 311 191 c 128,-1,7
 326 196 326 196 346 208 c 0,8,9
 373 224 373 224 391.5 252 c 128,-1,10
 410 280 410 280 415 306 c 2,11,-1
 421 334 l 2,12,13
 430 374 430 374 455 374 c 0,14,15
 485 374 485 374 476 334 c 2,16,-1
 470 306 l 2,17,18
 460 259 460 259 435 224.5 c 128,-1,19
 410 190 410 190 358 162 c 0,20,21
 336 150 336 150 316 143.5 c 128,-1,22
 296 137 296 137 275.5 131 c 128,-1,23
 255 125 255 125 235 117 c 128,-1,24
 215 109 215 109 193 91 c 0,25,26
 166 71 166 71 149.5 42 c 128,-1,27
 133 13 133 13 125 -16 c 0,28,29
 115 -65 115 -65 126 -96.5 c 128,-1,30
 137 -128 137 -128 160.5 -146 c 128,-1,31
 184 -164 184 -164 215.5 -171 c 128,-1,32
 247 -178 247 -178 280 -178 c 0,33,34
 396 -178 396 -178 480 -84 c 0,35,36
 489 -74 489 -74 501 -74.5 c 128,-1,37
 513 -75 513 -75 520 -84 c 0,38,39
 527 -91 527 -91 525 -102 c 128,-1,40
 523 -113 523 -113 514 -124 c 0,41,42
 466 -175 466 -175 404.5 -204 c 128,-1,43
 343 -233 343 -233 271 -233 c 0,44,45
 162 -233 162 -233 104.5 -177.5 c 128,-1,46
 47 -122 47 -122 69 -16 c 0,0,1
423 468 m 256,47,48
 427 491 427 491 446.5 505.5 c 128,-1,49
 466 520 466 520 488 520 c 256,50,51
 510 520 510 520 521 505.5 c 128,-1,52
 532 491 532 491 527 468 c 256,53,54
 523 446 523 446 504.5 430.5 c 128,-1,55
 486 415 486 415 464 415 c 256,56,57
 442 415 442 415 430 430.5 c 128,-1,58
 418 446 418 446 423 468 c 256,47,48
EndSplineSet
EndChar
StartChar: Aring
Encoding: 197 197 134
Width: 726
VWidth: 1473
Flags: W
HStem: 666 56<373.793 625.235> 768 39<498.834 573.891> 902 41<511.46 586.917>
VStem: 591 38<820.923 884.555> 712 55<470.862 518.482 518.482 535.047 535.047 547.5 573 588.875>
Fore
564 943 m 0,0,1
 598 943 598 943 617 916.5 c 128,-1,2
 636 890 636 890 629 854 c 256,3,4
 622 819 622 819 591 793.5 c 128,-1,5
 560 768 560 768 526 768 c 0,6,7
 488 768 488 768 468.5 793.5 c 128,-1,8
 449 819 449 819 457 854 c 256,9,10
 464 890 464 890 495 916.5 c 128,-1,11
 526 943 526 943 564 943 c 0,0,1
535 807 m 0,12,13
 554 807 554 807 570 820.5 c 128,-1,14
 586 834 586 834 591 854 c 256,15,16
 595 875 595 875 585 888.5 c 128,-1,17
 575 902 575 902 555 902 c 0,18,19
 533 902 533 902 515.5 888.5 c 128,-1,20
 498 875 498 875 494 854 c 256,21,22
 489 834 489 834 501 820.5 c 128,-1,23
 513 807 513 807 535 807 c 0,12,13
759 445 m 1,24,25
 762.5 464 l 2,26,27
 766 483 766 483 767 512 c 128,-1,28
 768 541 768 541 761 573 c 128,-1,29
 754 605 754 605 735 635 c 0,30,31
 673 722 673 722 517 722 c 0,32,33
 359 722 359 722 261 635 c 0,34,35
 227 604 227 604 205.5 571 c 128,-1,36
 184 538 184 538 173 510 c 128,-1,37
 162 482 162 482 157.5 462.5 c 128,-1,38
 153 443 153 443 153 442 c 2,39,-1
 143 392 l 2,40,41
 136 354 136 354 118 273 c 128,-1,42
 100 192 100 192 68 40 c 0,43,44
 59 0 59 0 88 0 c 0,45,46
 113 0 113 0 122 40 c 2,47,-1
 189 349 l 1,48,-1
 684 349 l 1,49,-1
 617 40 l 2,50,51
 608 0 608 0 638 0 c 0,52,53
 663 0 663 0 672 40 c 2,54,-1
 759 445 l 1,24,25
704 448 m 1,55,56
 704 449 704 449 701 433.5 c 128,-1,57
 698 418 698 418 695 404 c 1,58,-1
 202 404 l 1,59,-1
 211 445 l 2,60,61
 211 446 211 446 214 461 c 128,-1,62
 217 476 217 476 226.5 499 c 128,-1,63
 236 522 236 522 252 547.5 c 128,-1,64
 268 573 268 573 295 597 c 0,65,66
 373 666 373 666 505 666 c 0,67,68
 635 666 635 666 685 598 c 0,69,70
 701 573 701 573 706.5 547.5 c 128,-1,71
 712 522 712 522 712 499 c 0,72,73
 710 473 710 473 704 448 c 1,55,56
EndSplineSet
EndChar
StartChar: AE
Encoding: 198 198 135
Width: 1228
VWidth: 1473
Flags: W
HStem: -3 50<836.54 1050.15> 330 55<197 679 747 1096.97> 666 56<373.793 617.997 976.519 1143.82>
Fore
184 330 m 1,0,-1
 122 40 l 2,1,2
 113 0 113 0 88 0 c 0,3,4
 59 0 59 0 68 40 c 2,5,-1
 153 442 l 2,6,7
 153 443 153 443 157.5 462.5 c 128,-1,8
 162 482 162 482 173 510 c 128,-1,9
 184 538 184 538 205.5 571 c 128,-1,10
 227 604 227 604 261 635 c 0,11,12
 359 722 359 722 517 722 c 0,13,14
 709 722 709 722 756 573 c 1,15,16
 782 608 782 608 817.5 636 c 128,-1,17
 853 664 853 664 893 683.5 c 128,-1,18
 933 703 933 703 973.5 712.5 c 128,-1,19
 1014 722 1014 722 1050 722 c 0,20,21
 1112 722 1112 722 1157 711 c 128,-1,22
 1202 700 1202 700 1233 682 c 128,-1,23
 1264 664 1264 664 1281 641.5 c 128,-1,24
 1298 619 1298 619 1304 595 c 0,25,26
 1307 585 1307 585 1304.5 574 c 128,-1,27
 1302 563 1302 563 1291 557 c 0,28,29
 1279 550 1279 550 1267 552.5 c 128,-1,30
 1255 555 1255 555 1252 566 c 0,31,32
 1236 611 1236 611 1186.5 639 c 128,-1,33
 1137 667 1137 667 1033 667 c 0,34,35
 990 667 990 667 946 651.5 c 128,-1,36
 902 636 902 636 865 610.5 c 128,-1,37
 828 585 828 585 800.5 549 c 128,-1,38
 773 513 773 513 765 470 c 2,39,-1
 747 385 l 1,40,-1
 1065 385 l 2,41,42
 1105 385 1105 385 1099 358 c 0,43,44
 1093 330 1093 330 1053 330 c 2,45,-1
 735 330 l 1,46,-1
 720 259 l 2,47,48
 710 212 710 212 721 174 c 128,-1,49
 732 136 732 136 758 108 c 128,-1,50
 784 80 784 80 820.5 63.5 c 128,-1,51
 857 47 857 47 900 47 c 0,52,53
 1005 47 1005 47 1066.5 75 c 128,-1,54
 1128 103 1128 103 1164 149 c 0,55,56
 1171 159 1171 159 1184.5 162 c 128,-1,57
 1198 165 1198 165 1205 158 c 1,58,59
 1214 152 1214 152 1213 141 c 128,-1,60
 1212 130 1212 130 1205 119 c 0,61,62
 1171 72 1171 72 1096 34.5 c 128,-1,63
 1021 -3 1021 -3 896 -3 c 0,64,65
 865 -3 865 -3 834 3.5 c 128,-1,66
 803 10 803 10 775 25 c 128,-1,67
 747 40 747 40 724 61 c 128,-1,68
 701 82 701 82 688 113 c 1,69,-1
 672 40 l 2,70,71
 663 0 663 0 638 0 c 0,72,73
 608 0 608 0 617 40 c 2,74,-1
 679 330 l 1,75,-1
 184 330 l 1,0,-1
707 463 m 2,76,77
 722 555 722 555 666.5 610.5 c 128,-1,78
 611 666 611 666 505 666 c 0,79,80
 373 666 373 666 295 597 c 0,81,82
 268 573 268 573 252 547.5 c 128,-1,83
 236 522 236 522 226.5 499 c 128,-1,84
 217 476 217 476 214 461 c 128,-1,85
 211 446 211 446 211 445 c 2,86,-1
 197 385 l 1,87,-1
 691 385 l 1,88,-1
 707 463 l 2,76,77
EndSplineSet
EndChar
StartChar: Eth
Encoding: 208 208 145
Width: 769
VWidth: 1473
Flags: W
HStem: 0 53<247.805 320.842 320.842 328.389 328.389 376.456> 334 49<82 161 225 411> 664 53<322.023 457.631 457.631 472.358 472.358 505.739>
CounterMasks: 1 e0
Fore
82 383 m 1,0,-1
 171 383 l 1,1,-1
 209 567 l 2,2,3
 224 633 224 633 283 675 c 128,-1,4
 342 717 342 717 423 717 c 2,5,-1
 457 717 l 2,6,7
 460 717 460 717 488.5 716.5 c 128,-1,8
 517 716 517 716 558.5 707 c 128,-1,9
 600 698 600 698 644.5 676 c 128,-1,10
 689 654 689 654 725 613 c 0,11,12
 763 566 763 566 777 502.5 c 128,-1,13
 791 439 791 439 773 358 c 0,14,15
 757 278 757 278 716.5 214 c 128,-1,16
 676 150 676 150 616 103 c 0,17,18
 563 62 563 62 509 40.5 c 128,-1,19
 455 19 455 19 411 10 c 128,-1,20
 367 1 367 1 337.5 0.5 c 128,-1,21
 308 0 308 0 305 0 c 2,22,-1
 271 0 l 2,23,24
 245 0 245 0 214.5 8 c 128,-1,25
 184 16 184 16 160.5 34 c 128,-1,26
 137 52 137 52 124.5 80 c 128,-1,27
 112 108 112 108 121 149 c 2,28,-1
 161 334 l 1,29,-1
 72 334 l 1,30,-1
 82 383 l 1,0,-1
719 358 m 256,31,32
 734 427 734 427 722 481 c 128,-1,33
 710 535 710 535 678 573 c 0,34,35
 648 608 648 608 608.5 627.5 c 128,-1,36
 569 647 569 647 532.5 655 c 128,-1,37
 496 663 496 663 471 663.5 c 128,-1,38
 446 664 446 664 445 664 c 2,39,-1
 411 664 l 2,40,41
 355 664 355 664 315 638.5 c 128,-1,42
 275 613 275 613 265 570 c 2,43,-1
 225 383 l 1,44,-1
 421 383 l 1,45,-1
 411 334 l 1,46,-1
 215 334 l 1,47,-1
 175 147 l 2,48,49
 169 119 169 119 178 101.5 c 128,-1,50
 187 84 187 84 204 73 c 128,-1,51
 221 62 221 62 242.5 57.5 c 128,-1,52
 264 53 264 53 281 53 c 2,53,-1
 315 53 l 2,54,55
 317 53 317 53 342.5 54 c 128,-1,56
 368 55 368 55 408 63 c 128,-1,57
 448 71 448 71 495 89.5 c 128,-1,58
 542 108 542 108 586 143 c 0,59,60
 635 181 635 181 669.5 235 c 128,-1,61
 704 289 704 289 719 358 c 256,31,32
EndSplineSet
EndChar
StartChar: multiply
Encoding: 215 215 152
Width: 589
VWidth: 1473
Flags: W
HStem: 52 397<108 193 193 193>
VStem: 104 479<72 449 72 72>
Fore
193 402 m 2,0,1
 168 429 168 429 193 449 c 0,2,3
 217 468 217 468 240 442 c 2,4,-1
 355 290 l 1,5,-1
 533 442 l 2,6,7
 569 468 569 468 583 449 c 0,8,9
 600 429 600 429 566 402 c 2,10,-1
 386 250 l 1,11,-1
 504 100 l 2,12,13
 527 72 527 72 502 53 c 0,14,15
 479 32 479 32 455 60 c 2,16,-1
 337 211 l 1,17,-1
 158 59 l 2,18,19
 122 31 122 31 108 52 c 0,20,21
 100 60 100 60 104 72 c 128,-1,22
 108 84 108 84 127 99 c 2,23,-1
 308 250 l 1,24,-1
 193 402 l 2,0,1
EndSplineSet
EndChar
StartChar: Oslash
Encoding: 216 216 153
Width: 798
VWidth: 1473
Flags: W
HStem: -7 57<293.024 531.906> 664 58<418.664 618.784>
Fore
202 -7 m 2,0,1
 166 -55 166 -55 146 -40 c 0,2,3
 124 -27 124 -27 161 19 c 2,4,-1
 194 62 l 1,5,6
 143 109 143 109 121.5 185 c 128,-1,7
 100 261 100 261 121 357 c 0,8,9
 138 438 138 438 179 505.5 c 128,-1,10
 220 573 220 573 277 621 c 128,-1,11
 334 669 334 669 405 695.5 c 128,-1,12
 476 722 476 722 552 722 c 256,13,14
 629 722 629 722 692 694 c 1,15,-1
 726 737 l 2,16,17
 765 784 765 784 784 768 c 1,18,19
 806 754 806 754 769 710 c 2,20,-1
 737 667 l 1,21,22
 801 620 801 620 825.5 539 c 128,-1,23
 850 458 850 458 829 357 c 0,24,25
 812 275 812 275 772 208 c 128,-1,26
 732 141 732 141 674.5 93.5 c 128,-1,27
 617 46 617 46 545.5 19.5 c 128,-1,28
 474 -7 474 -7 396 -7 c 0,29,30
 301 -7 301 -7 234 32 c 1,31,-1
 202 -7 l 2,0,1
772 357 m 0,32,33
 790 440 790 440 770.5 508.5 c 128,-1,34
 751 577 751 577 697 619 c 1,35,-1
 273 82 l 1,36,37
 329 50 329 50 410 50 c 0,38,39
 476 50 476 50 535.5 73 c 128,-1,40
 595 96 595 96 643 136.5 c 128,-1,41
 691 177 691 177 724 233 c 128,-1,42
 757 289 757 289 772 357 c 0,32,33
178 357 m 0,43,44
 161 274 161 274 176.5 212 c 128,-1,45
 192 150 192 150 234 112 c 1,46,-1
 651 642 l 1,47,48
 628 653 628 653 600 658.5 c 128,-1,49
 572 664 572 664 539 664 c 0,50,51
 471 664 471 664 411.5 640.5 c 128,-1,52
 352 617 352 617 305 576.5 c 128,-1,53
 258 536 258 536 225 479.5 c 128,-1,54
 192 423 192 423 178 357 c 0,43,44
EndSplineSet
EndChar
StartChar: Thorn
Encoding: 222 222 159
Width: 636
VWidth: 1473
Flags: W
HStem: 177 43<192 444.944> 542 50<271 520.312>
Fore
480 592 m 2,0,1
 502 592 502 592 537 586 c 128,-1,2
 572 580 572 580 602.5 559 c 128,-1,3
 633 538 633 538 649.5 495 c 128,-1,4
 666 452 666 452 651 380 c 0,5,6
 639 326 639 326 612.5 287.5 c 128,-1,7
 586 249 586 249 551.5 224.5 c 128,-1,8
 517 200 517 200 478.5 188.5 c 128,-1,9
 440 177 440 177 408 177 c 2,10,-1
 183 177 l 1,11,-1
 149 21 l 2,12,13
 141 -19 141 -19 115 -19 c 256,14,15
 88 -19 88 -19 96 21 c 2,16,-1
 239 691 l 2,17,18
 247 731 247 731 274 731 c 256,19,20
 301 731 301 731 292 691 c 2,21,-1
 271 592 l 1,22,-1
 480 592 l 2,0,1
423 220 m 2,23,24
 451 220 451 220 479.5 230 c 128,-1,25
 508 240 508 240 532.5 260 c 128,-1,26
 557 280 557 280 574.5 309.5 c 128,-1,27
 592 339 592 339 601 377 c 0,28,29
 619 464 619 464 586.5 503 c 128,-1,30
 554 542 554 542 492 542 c 2,31,-1
 261 542 l 1,32,-1
 192 220 l 1,33,-1
 423 220 l 2,23,24
EndSplineSet
EndChar
StartChar: uni00DF
Encoding: 223 223 160
Width: 592
VWidth: 1473
Flags: W
HStem: 3 46<208.132 399.296> 451 45<303 440.829> 700.5 41.5<390.871 464.234>
VStem: 99 496<21 245 21 21>
Fore
591 586 m 0,0,1
 580 541 580 541 548.5 507.5 c 128,-1,2
 517 474 517 474 492 468 c 1,3,4
 628 402 628 402 595 245 c 0,5,6
 585 194 585 194 560 151 c 128,-1,7
 535 108 535 108 499 74.5 c 128,-1,8
 463 41 463 41 417 22 c 128,-1,9
 371 3 371 3 320 3 c 2,10,-1
 209 3 l 2,11,12
 200 3 200 3 194.5 9 c 128,-1,13
 189 15 189 15 192 25 c 0,14,15
 194 34 194 34 202.5 41.5 c 128,-1,16
 211 49 211 49 220 49 c 2,17,-1
 318 49 l 2,18,19
 362 49 362 49 400.5 64.5 c 128,-1,20
 439 80 439 80 469 107 c 128,-1,21
 499 134 499 134 520 171 c 128,-1,22
 541 208 541 208 550 249 c 0,23,24
 557 290 557 290 548 327 c 128,-1,25
 539 364 539 364 517 391 c 128,-1,26
 495 418 495 418 462 434.5 c 128,-1,27
 429 451 429 451 387 451 c 2,28,-1
 295 451 l 1,29,-1
 303 496 l 1,30,-1
 401 496 l 2,31,32
 420 496 420 496 441.5 498.5 c 128,-1,33
 463 501 463 501 482.5 509 c 128,-1,34
 502 517 502 517 517.5 533.5 c 128,-1,35
 533 550 533 550 541 577 c 0,36,37
 551 619 551 619 538.5 642.5 c 128,-1,38
 526 666 526 666 508 679 c 0,39,40
 495 689 495 689 475 694.5 c 128,-1,41
 455 700 455 700 433 700.5 c 128,-1,42
 411 701 411 701 388 696.5 c 128,-1,43
 365 692 365 692 346 682 c 0,44,45
 337 678 337 678 326 670.5 c 128,-1,46
 315 663 315 663 303.5 649 c 128,-1,47
 292 635 292 635 281 611.5 c 128,-1,48
 270 588 270 588 262 551 c 2,49,-1
 149 21 l 2,50,51
 147 12 147 12 139 5.5 c 128,-1,52
 131 -1 131 -1 119 -1 c 0,53,54
 110 -1 110 -1 103.5 5.5 c 128,-1,55
 97 12 97 12 99 21 c 2,56,-1
 214 560 l 2,57,58
 230 636 230 636 287.5 689 c 128,-1,59
 345 742 345 742 433 742 c 0,60,61
 527 742 527 742 567 701 c 128,-1,62
 607 660 607 660 591 586 c 0,0,1
EndSplineSet
EndChar
StartChar: ae
Encoding: 230 230 167
Width: 1103
VWidth: 1473
Flags: W
HStem: -7 50<179.663 417.692 693.181 920.224> 236 56<635 1055.72> 303 55<282.93 466.551> 471 58<308.547 511.812 783.964 975.997>
Fore
1006 127 m 0,0,1
 1019 138 1019 138 1032.5 142 c 128,-1,2
 1046 146 1046 146 1055 137 c 0,3,4
 1062 130 1062 130 1058.5 114.5 c 128,-1,5
 1055 99 1055 99 1044 91 c 1,6,7
 997 44 997 44 934 17.5 c 128,-1,8
 871 -9 871 -9 791 -9 c 0,9,10
 706 -9 706 -9 654.5 23 c 128,-1,11
 603 55 603 55 576 112 c 1,12,13
 507 37 507 37 434.5 15 c 128,-1,14
 362 -7 362 -7 289 -7 c 256,15,16
 215 -7 215 -7 171 10 c 128,-1,17
 127 27 127 27 104.5 53.5 c 128,-1,18
 82 80 82 80 78 111.5 c 128,-1,19
 74 143 74 143 81 172 c 0,20,21
 105 259 105 259 183 308.5 c 128,-1,22
 261 358 261 358 382 358 c 0,23,24
 430 357 430 357 470 346 c 0,25,26
 504 337 504 337 533.5 318 c 128,-1,27
 563 299 563 299 569 265 c 1,28,29
 603 374 603 374 552 422.5 c 128,-1,30
 501 471 501 471 389 471 c 0,31,32
 337 471 337 471 296 460 c 128,-1,33
 255 449 255 449 212 429 c 0,34,35
 200 423 200 423 187.5 421.5 c 128,-1,36
 175 420 175 420 168 429 c 0,37,38
 162 436 162 436 166.5 448.5 c 128,-1,39
 171 461 171 461 192 471 c 0,40,41
 230 494 230 494 281.5 511.5 c 128,-1,42
 333 529 333 529 404 529 c 0,43,44
 501 529 501 529 557.5 497.5 c 128,-1,45
 614 466 614 466 633 393 c 1,46,47
 678 449 678 449 746.5 489 c 128,-1,48
 815 529 815 529 906 529 c 0,49,50
 947 529 947 529 978 521.5 c 128,-1,51
 1009 514 1009 514 1032 503 c 128,-1,52
 1055 492 1055 492 1070.5 479 c 128,-1,53
 1086 466 1086 466 1096 452 c 0,54,55
 1128 408 1128 408 1130.5 368.5 c 128,-1,56
 1133 329 1133 329 1116.5 299.5 c 128,-1,57
 1100 270 1100 270 1073.5 253 c 128,-1,58
 1047 236 1047 236 1022 236 c 2,59,-1
 622 236 l 1,60,61
 600 49 600 49 804 49 c 0,62,63
 872 49 872 49 922 71 c 128,-1,64
 972 93 972 93 1006 127 c 0,0,1
893 470 m 0,65,66
 826 470 826 470 779 448.5 c 128,-1,67
 732 427 732 427 702 398.5 c 128,-1,68
 672 370 672 370 656.5 339.5 c 128,-1,69
 641 309 641 309 635 292 c 1,70,-1
 1033 292 l 2,71,72
 1047 292 1047 292 1056 305 c 128,-1,73
 1065 318 1065 318 1068 337.5 c 128,-1,74
 1071 357 1071 357 1066 377.5 c 128,-1,75
 1061 398 1061 398 1047 412 c 0,76,77
 1031 432 1031 432 996.5 451 c 128,-1,78
 962 470 962 470 893 470 c 0,65,66
541 171 m 0,79,80
 547 194 547 194 544 218.5 c 128,-1,81
 541 243 541 243 521.5 261.5 c 128,-1,82
 502 280 502 280 465.5 291.5 c 128,-1,83
 429 303 429 303 367 303 c 0,84,85
 329 303 329 303 291 294.5 c 128,-1,86
 253 286 253 286 221.5 269.5 c 128,-1,87
 190 253 190 253 167 229 c 128,-1,88
 144 205 144 205 136 172 c 0,89,90
 118 108 118 108 166 75.5 c 128,-1,91
 214 43 214 43 306 43 c 0,92,93
 367 43 367 43 409 55.5 c 128,-1,94
 451 68 451 68 479 86.5 c 128,-1,95
 507 105 507 105 521 127.5 c 128,-1,96
 535 150 535 150 541 171 c 0,79,80
EndSplineSet
EndChar
StartChar: eth
Encoding: 240 240 177
Width: 667
VWidth: 1473
Flags: W
HStem: -12 56<251.479 443.374> 460 57<319.564 491.39> 610 21G<433.824 493.649>
Fore
682 368 m 2,0,-1
 607 15 l 2,1,2
 600 -13 600 -13 575 -13 c 0,3,4
 563 -13 563 -13 557 -5 c 128,-1,5
 551 3 551 3 554 15 c 2,6,-1
 569 84 l 1,7,8
 517 34 517 34 456.5 11 c 128,-1,9
 396 -12 396 -12 320 -12 c 0,10,11
 283 -12 283 -12 237.5 0.5 c 128,-1,12
 192 13 192 13 155.5 43.5 c 128,-1,13
 119 74 119 74 100 124.5 c 128,-1,14
 81 175 81 175 97 252 c 0,15,16
 108 303 108 303 138 351 c 128,-1,17
 168 399 168 399 212 436 c 128,-1,18
 256 473 256 473 312 495 c 128,-1,19
 368 517 368 517 432 517 c 0,20,21
 516 517 516 517 569.5 485.5 c 128,-1,22
 623 454 623 454 635 414 c 1,23,24
 641 492 641 492 610.5 554.5 c 128,-1,25
 580 617 580 617 535 647 c 1,26,-1
 445 610 l 1,27,-1
 426 644 l 1,28,-1
 499 673 l 1,29,30
 476 689 476 689 445.5 699.5 c 128,-1,31
 415 710 415 710 389 717 c 1,32,33
 380 723 380 723 379.5 731.5 c 128,-1,34
 379 740 379 740 384 746.5 c 128,-1,35
 389 753 389 753 398.5 756.5 c 128,-1,36
 408 760 408 760 418 757 c 0,37,38
 457 750 457 750 492 734.5 c 128,-1,39
 527 719 527 719 552 700 c 1,40,-1
 644 741 l 1,41,-1
 667 704 l 1,42,-1
 594 675 l 1,43,44
 650 631 650 631 677 552 c 128,-1,45
 704 473 704 473 682 368 c 2,0,-1
517 105 m 0,46,47
 542 127 542 127 558.5 152 c 128,-1,48
 575 177 575 177 584.5 199 c 128,-1,49
 594 221 594 221 597.5 235.5 c 128,-1,50
 601 250 601 250 601 252 c 0,51,52
 613 309 613 309 600.5 348 c 128,-1,53
 588 387 588 387 560 412.5 c 128,-1,54
 532 438 532 438 494.5 449 c 128,-1,55
 457 460 457 460 420 460 c 0,56,57
 368 460 368 460 324 443 c 128,-1,58
 280 426 280 426 244.5 397 c 128,-1,59
 209 368 209 368 185.5 330.5 c 128,-1,60
 162 293 162 293 153 252 c 0,61,62
 150 239 150 239 148 205 c 128,-1,63
 146 171 146 171 160 135.5 c 128,-1,64
 174 100 174 100 213 72 c 128,-1,65
 252 44 252 44 331 44 c 0,66,67
 389 44 389 44 435.5 59.5 c 128,-1,68
 482 75 482 75 517 105 c 0,46,47
EndSplineSet
EndChar
StartChar: divide
Encoding: 247 247 184
Width: 742
VWidth: 1473
Flags: W
HStem: 50 103<369.532 422.499> 249 66<132.754 727.275> 414 105<448.501 501.468>
Fore
523 466 m 0,0,1
 519 445 519 445 502 429.5 c 128,-1,2
 485 414 485 414 463 414 c 256,3,4
 440 414 440 414 430.5 429.5 c 128,-1,5
 421 445 421 445 426 466 c 0,6,7
 432 488 432 488 448 503.5 c 128,-1,8
 464 519 464 519 485 519 c 0,9,10
 507 519 507 519 517 503.5 c 128,-1,11
 527 488 527 488 523 466 c 0,0,1
443 100 m 0,12,13
 439 81 439 81 423 65.5 c 128,-1,14
 407 50 407 50 385 50 c 256,15,16
 362 50 362 50 352.5 65.5 c 128,-1,17
 343 81 343 81 348 100 c 0,18,19
 352 122 352 122 369 137.5 c 128,-1,20
 386 153 386 153 408 153 c 0,21,22
 429 153 429 153 438.5 137.5 c 128,-1,23
 448 122 448 122 443 100 c 0,12,13
726 315 m 2,24,25
 741 315 741 315 749 306.5 c 128,-1,26
 757 298 757 298 754 283 c 0,27,28
 751 270 751 270 738.5 259.5 c 128,-1,29
 726 249 726 249 712 249 c 2,30,-1
 134 249 l 2,31,32
 121 249 121 249 113.5 259.5 c 128,-1,33
 106 270 106 270 109 283 c 0,34,35
 112 298 112 298 124 306.5 c 128,-1,36
 136 315 136 315 149 315 c 2,37,-1
 726 315 l 2,24,25
EndSplineSet
EndChar
StartChar: oslash
Encoding: 248 248 185
Width: 639
VWidth: 1473
Flags: W
HStem: -6 47<295.969 365.494> 460.5 45.5<324.5 419.346 422.216 431.22> 479 48<325.502 479.705>
Fore
597 449 m 0,0,1
 628 411 628 411 637.5 362.5 c 128,-1,2
 647 314 647 314 636.5 261.5 c 128,-1,3
 626 209 626 209 596 159 c 128,-1,4
 566 109 566 109 516 68 c 0,5,6
 485 41 485 41 447.5 23.5 c 128,-1,7
 410 6 410 6 371.5 -1.5 c 128,-1,8
 333 -9 333 -9 296 -6 c 128,-1,9
 259 -3 259 -3 230 10 c 1,10,-1
 194 -40 l 2,11,12
 181 -57 181 -57 165 -50 c 0,13,14
 159 -47 159 -47 157.5 -39 c 128,-1,15
 156 -31 156 -31 162 -24 c 2,16,-1
 197 31 l 1,17,18
 141 63 141 63 120.5 126 c 128,-1,19
 100 189 100 189 115 259 c 0,20,21
 127 314 127 314 156.5 363 c 128,-1,22
 186 412 186 412 228.5 448.5 c 128,-1,23
 271 485 271 485 323.5 506 c 128,-1,24
 376 527 376 527 433 527 c 0,25,26
 455 527 455 527 475.5 523 c 128,-1,27
 496 519 496 519 516 511 c 1,28,-1
 550 561 l 2,29,30
 555 569 555 569 564 571 c 128,-1,31
 573 573 573 573 580 570 c 256,32,33
 588 567 588 567 588.5 559 c 128,-1,34
 589 551 589 551 585 544 c 2,35,-1
 552 494 l 1,36,37
 570 478.5 l 0,38,39
 588 463 588 463 597 449 c 0,0,1
193 100 m 1,40,41
 203 82 203 82 225 71 c 1,42,-1
 488 467 l 1,43,44
 460 479 460 479 421 479 c 0,45,46
 368 479 368 479 324.5 460.5 c 128,-1,47
 281 442 281 442 248 411 c 128,-1,48
 215 380 215 380 193 340.5 c 128,-1,49
 171 301 171 301 162 259 c 0,50,51
 152 215 152 215 160 173 c 128,-1,52
 168 131 168 131 193 100 c 1,40,41
331 41 m 0,53,54
 402 41 402 41 462 81 c 128,-1,55
 522 121 522 121 556.5 179 c 128,-1,56
 591 237 591 237 595.5 302 c 128,-1,57
 600 367 600 367 560 417 c 0,58,59
 551 426 551 426 542 434 c 128,-1,60
 533 442 533 442 522 448 c 1,61,-1
 258 53 l 1,62,63
 274 49 274 49 293 45 c 128,-1,64
 312 41 312 41 331 41 c 0,53,54
EndSplineSet
EndChar
StartChar: thorn
Encoding: 254 254 191
Width: 677
VWidth: 1473
Flags: W
HStem: -16 51<305.254 414.547> 482 57<429.364 539.872>
Fore
470 539 m 0,0,1
 539 539 539 539 586 511 c 128,-1,2
 633 483 633 483 657.5 439 c 128,-1,3
 682 395 682 395 685.5 339.5 c 128,-1,4
 689 284 689 284 673 230 c 0,5,6
 657 178 657 178 627 134 c 128,-1,7
 597 90 597 90 555 56 c 128,-1,8
 513 22 513 22 459 3 c 128,-1,9
 405 -16 405 -16 343 -16 c 0,10,11
 318 -16 318 -16 289.5 -9.5 c 128,-1,12
 261 -3 261 -3 235 12 c 128,-1,13
 209 27 209 27 190.5 48 c 128,-1,14
 172 69 172 69 168 99 c 1,15,-1
 106 -193 l 2,16,17
 97 -231 97 -231 69 -231 c 256,18,19
 41 -231 41 -231 50 -193 c 2,20,-1
 239 698 l 2,21,22
 247 737 247 737 275 737 c 256,23,24
 303 737 303 737 295 698 c 2,25,-1
 237 424 l 1,26,27
 252 443 252 443 277 464 c 128,-1,28
 302 485 302 485 333 502 c 128,-1,29
 364 519 364 519 399.5 529 c 128,-1,30
 435 539 435 539 470 539 c 0,0,1
354 35 m 0,31,32
 404 32 404 32 449 47.5 c 128,-1,33
 494 63 494 63 530 94 c 128,-1,34
 566 125 566 125 591.5 169.5 c 128,-1,35
 617 214 617 214 629 270 c 0,36,37
 638 309 638 309 630 347.5 c 128,-1,38
 622 386 622 386 599.5 417 c 128,-1,39
 577 448 577 448 541 465.5 c 128,-1,40
 505 483 505 483 457 482 c 0,41,42
 412 479 412 479 371 463.5 c 128,-1,43
 330 448 330 448 296 422 c 128,-1,44
 262 396 262 396 238 363.5 c 128,-1,45
 214 331 214 331 202 295 c 0,46,47
 168 183 168 183 206.5 112 c 128,-1,48
 245 41 245 41 354 35 c 0,31,32
EndSplineSet
EndChar
StartChar: Lslash
Encoding: 321 321 193
Width: 671
VWidth: 1473
Flags: W
HStem: 0 53<177.896 652.007>
Fore
620 53 m 2,0,1
 657 53 657 53 653 25 c 0,2,3
 647 0 647 0 610 0 c 2,4,-1
 212 0 l 2,5,6
 161 0 161 0 133 31 c 128,-1,7
 105 62 105 62 116 118 c 2,8,-1
 168 370 l 1,9,-1
 82 324 l 1,10,-1
 93 373 l 1,11,-1
 178 417 l 1,12,-1
 234 675 l 2,13,14
 243 713 243 713 270 713 c 0,15,16
 283 713 283 713 289.5 704 c 128,-1,17
 296 695 296 695 292 675 c 2,18,-1
 243 446 l 1,19,-1
 376 523 l 1,20,-1
 364 470 l 1,21,-1
 233 398 l 1,22,-1
 172 116 l 2,23,24
 165 87 165 87 177.5 70 c 128,-1,25
 190 53 190 53 224 53 c 2,26,-1
 620 53 l 2,0,1
EndSplineSet
EndChar
StartChar: lslash
Encoding: 322 322 194
Width: 238
VWidth: 1473
Flags: W
HStem: -1 21G<104.5 131> 827 20G<286 312.5>
VStem: 78 248<301 471 301 615.784>
Fore
326 471 m 1,0,-1
 314 421 l 1,1,-1
 224 373 l 1,2,-1
 153 38 l 2,3,4
 144 -1 144 -1 118 -1 c 256,5,6
 91 -1 91 -1 100 38 c 2,7,-1
 165 346 l 1,8,-1
 78 301 l 1,9,-1
 88 349 l 1,10,-1
 175 395 l 1,11,-1
 264 807 l 2,12,13
 273 847 273 847 299 847 c 256,14,15
 326 847 326 847 317 807 c 2,16,-1
 234 421 l 1,17,-1
 326 471 l 1,0,-1
EndSplineSet
EndChar
StartChar: OE
Encoding: 338 338 195
Width: 1286
VWidth: 1473
Flags: W
HStem: -7 57<293.35 502.712 892.55 1062.09> 330 55<806 1155.97> 664 58<413.703 625.425 1034.16 1202.82>
Fore
793 544 m 1,0,1
 816 589 816 589 853 623 c 128,-1,2
 890 657 890 657 933.5 679 c 128,-1,3
 977 701 977 701 1022.5 711.5 c 128,-1,4
 1068 722 1068 722 1109 722 c 0,5,6
 1171 722 1171 722 1216 711 c 128,-1,7
 1261 700 1261 700 1292 682 c 128,-1,8
 1323 664 1323 664 1340 641.5 c 128,-1,9
 1357 619 1357 619 1363 595 c 0,10,11
 1366 585 1366 585 1363.5 574 c 128,-1,12
 1361 563 1361 563 1349 557 c 0,13,14
 1338 550 1338 550 1326 552.5 c 128,-1,15
 1314 555 1314 555 1311 566 c 0,16,17
 1295 611 1295 611 1245.5 639 c 128,-1,18
 1196 667 1196 667 1092 667 c 0,19,20
 1049 667 1049 667 1005.5 653 c 128,-1,21
 962 639 962 639 925 613.5 c 128,-1,22
 888 588 888 588 861 553.5 c 128,-1,23
 834 519 834 519 825 476 c 2,24,-1
 806 385 l 1,25,-1
 1124 385 l 2,26,27
 1164 385 1164 385 1158 358 c 0,28,29
 1152 330 1152 330 1112 330 c 2,30,-1
 794 330 l 1,31,-1
 775 239 l 2,32,33
 765 192 765 192 776.5 156.5 c 128,-1,34
 788 121 788 121 814.5 96.5 c 128,-1,35
 841 72 841 72 878.5 59.5 c 128,-1,36
 916 47 916 47 959 47 c 0,37,38
 1064 47 1064 47 1125.5 75 c 128,-1,39
 1187 103 1187 103 1223 149 c 0,40,41
 1230 159 1230 159 1243.5 162 c 128,-1,42
 1257 165 1257 165 1264 158 c 1,43,44
 1273 152 1273 152 1272 141 c 128,-1,45
 1271 130 1271 130 1264 119 c 0,46,47
 1248 96 1248 96 1220 73 c 128,-1,48
 1192 50 1192 50 1153.5 32.5 c 128,-1,49
 1115 15 1115 15 1065 4 c 128,-1,50
 1015 -7 1015 -7 953 -7 c 0,51,52
 912 -7 912 -7 870.5 3 c 128,-1,53
 829 13 829 13 795.5 34 c 128,-1,54
 762 55 762 55 739 88 c 128,-1,55
 716 121 716 121 713 168 c 1,56,57
 653 85 653 85 566.5 39 c 128,-1,58
 480 -7 480 -7 380 -7 c 0,59,60
 309 -7 309 -7 253 19.5 c 128,-1,61
 197 46 197 46 162.5 93.5 c 128,-1,62
 128 141 128 141 116.5 208 c 128,-1,63
 105 275 105 275 122 357 c 256,64,65
 140 438 140 438 179 505.5 c 128,-1,66
 218 573 218 573 273.5 621 c 128,-1,67
 329 669 329 669 396.5 695.5 c 128,-1,68
 464 722 464 722 536 722 c 0,69,70
 638 722 638 722 703 674 c 128,-1,71
 768 626 768 626 793 544 c 1,0,1
741 357 m 0,72,73
 754 420 754 420 747 476.5 c 128,-1,74
 740 533 740 533 712.5 574.5 c 128,-1,75
 685 616 685 616 637 640 c 128,-1,76
 589 664 589 664 523 664 c 0,77,78
 458 664 458 664 401.5 640.5 c 128,-1,79
 345 617 345 617 299 576.5 c 128,-1,80
 253 536 253 536 221.5 479.5 c 128,-1,81
 190 423 190 423 177 357 c 0,82,83
 161 284 161 284 171 227.5 c 128,-1,84
 181 171 181 171 211.5 131 c 128,-1,85
 242 91 242 91 289 70.5 c 128,-1,86
 336 50 336 50 393 50 c 0,87,88
 457 50 457 50 513.5 73 c 128,-1,89
 570 96 570 96 615.5 136.5 c 128,-1,90
 661 177 661 177 693.5 233 c 128,-1,91
 726 289 726 289 741 357 c 0,72,73
EndSplineSet
EndChar
StartChar: oe
Encoding: 339 339 196
Width: 1152
VWidth: 1473
Flags: W
HStem: -9 58<743.446 962.413> 0 55<235.105 455.959> 236 56<676 1097.23> 476 54<327.909 531.32 839.34 1028.9>
VStem: 1108.5 66.5<328.164 337.5 337.5 377.344>
Fore
1096 138 m 0,0,1
 1103 130 1103 130 1100.5 114.5 c 128,-1,2
 1098 99 1098 99 1086 91 c 1,3,4
 1040 44 1040 44 976.5 17.5 c 128,-1,5
 913 -9 913 -9 834 -9 c 0,6,7
 741 -9 741 -9 683 29.5 c 128,-1,8
 625 68 625 68 608 138 c 1,9,10
 561 68 561 68 486.5 34 c 128,-1,11
 412 0 412 0 329 0 c 0,12,13
 271 0 271 0 224 17.5 c 128,-1,14
 177 35 177 35 146 70 c 128,-1,15
 115 105 115 105 103 154 c 128,-1,16
 91 203 91 203 105 265 c 0,17,18
 115 314 115 314 139.5 361 c 128,-1,19
 164 408 164 408 205 445.5 c 128,-1,20
 246 483 246 483 304 506.5 c 128,-1,21
 362 530 362 530 440 530 c 0,22,23
 533 530 533 530 590.5 490.5 c 128,-1,24
 648 451 648 451 664 382 c 1,25,26
 707 443 707 443 781.5 486 c 128,-1,27
 856 529 856 529 952 529 c 0,28,29
 993 529 993 529 1024 522.5 c 128,-1,30
 1055 516 1055 516 1077 505 c 128,-1,31
 1099 494 1099 494 1114.5 480.5 c 128,-1,32
 1130 467 1130 467 1139 454 c 0,33,34
 1173 410 1173 410 1175 370 c 128,-1,35
 1177 330 1177 330 1161.5 300 c 128,-1,36
 1146 270 1146 270 1120.5 253 c 128,-1,37
 1095 236 1095 236 1074 236 c 2,38,-1
 663 236 l 1,39,40
 651 147 651 147 703.5 98 c 128,-1,41
 756 49 756 49 847 49 c 0,42,43
 913 49 913 49 964 71 c 128,-1,44
 1015 93 1015 93 1050 127 c 0,45,46
 1062 138 1062 138 1074.5 142.5 c 128,-1,47
 1087 147 1087 147 1096 138 c 0,0,1
614 273 m 2,48,49
 631 367 631 367 577.5 421.5 c 128,-1,50
 524 476 524 476 429 476 c 0,51,52
 382 476 382 476 337.5 462 c 128,-1,53
 293 448 293 448 257 421.5 c 128,-1,54
 221 395 221 395 193.5 356 c 128,-1,55
 166 317 166 317 156 265 c 0,56,57
 136 168 136 168 188 111.5 c 128,-1,58
 240 55 240 55 339 55 c 0,59,60
 414 55 414 55 464 79 c 128,-1,61
 514 103 514 103 545 137 c 128,-1,62
 576 171 576 171 591.5 206.5 c 128,-1,63
 607 242 607 242 613 265 c 2,64,-1
 614 273 l 2,48,49
1075 292 m 2,65,66
 1089 292 1089 292 1097.5 305 c 128,-1,67
 1106 318 1106 318 1108.5 337.5 c 128,-1,68
 1111 357 1111 357 1106.5 378 c 128,-1,69
 1102 399 1102 399 1089 414 c 0,70,71
 1072 432 1072 432 1040 451.5 c 128,-1,72
 1008 471 1008 471 940 471 c 0,73,74
 874 471 874 471 826 449 c 128,-1,75
 778 427 778 427 747 397 c 128,-1,76
 716 367 716 367 699 336.5 c 128,-1,77
 682 306 682 306 676 292 c 1,78,-1
 1075 292 l 2,65,66
EndSplineSet
EndChar
StartChar: florin
Encoding: 402 402 202
Width: 525
VWidth: 1473
Flags: W
HStem: -153 85<28.4089 79.875> 398 41<247 346 410 499> 652 82<572.18 624.077>
Fore
533 675 m 0,0,1
 510 660 510 660 493.5 634 c 128,-1,2
 477 608 477 608 466 582 c 0,3,4
 463 573 463 573 457 555.5 c 128,-1,5
 451 538 451 538 443 517 c 128,-1,6
 435 496 435 496 426.5 475 c 128,-1,7
 418 454 418 454 410 438 c 1,8,-1
 519 438 l 1,9,-1
 499 396 l 1,10,-1
 396 396 l 1,11,12
 385 365 385 365 362.5 313.5 c 128,-1,13
 340 262 340 262 320 214 c 0,14,15
 295 156 295 156 268 94 c 0,16,17
 256 68 256 68 235 26 c 128,-1,18
 214 -16 214 -16 185 -56 c 128,-1,19
 156 -96 156 -96 123 -124.5 c 128,-1,20
 90 -153 90 -153 56 -153 c 0,21,22
 31 -153 31 -153 20.5 -140 c 128,-1,23
 10 -127 10 -127 12.5 -110.5 c 128,-1,24
 15 -94 15 -94 28 -81 c 128,-1,25
 41 -68 41 -68 65 -68 c 0,26,27
 77 -68 77 -68 81 -72.5 c 128,-1,28
 85 -77 85 -77 87.5 -82.5 c 128,-1,29
 90 -88 90 -88 93 -92 c 128,-1,30
 96 -96 96 -96 105 -96 c 1,31,32
 125 -84 125 -84 143 -59 c 128,-1,33
 161 -34 161 -34 175.5 -3.5 c 128,-1,34
 190 27 190 27 202 57 c 128,-1,35
 214 87 214 87 224 109 c 2,36,-1
 346 398 l 1,37,-1
 227 398 l 1,38,-1
 247 439 l 1,39,-1
 361 439 l 1,40,41
 387 501 387 501 416 558.5 c 128,-1,42
 445 616 445 616 486 670 c 0,43,44
 501 689 501 689 520 704 c 128,-1,45
 539 719 539 719 558 726.5 c 128,-1,46
 577 734 577 734 595.5 734 c 128,-1,47
 614 734 614 734 628 722 c 0,48,49
 645 707 645 707 641.5 690 c 128,-1,50
 638 673 638 673 624.5 663 c 128,-1,51
 611 653 611 653 593.5 652 c 128,-1,52
 576 651 576 651 564 669 c 1,53,54
 560 681 560 681 550.5 680 c 128,-1,55
 541 679 541 679 533 675 c 0,0,1
EndSplineSet
EndChar
StartChar: circumflex
Encoding: 710 710 203
Width: 472
VWidth: 1473
Flags: W
HStem: 682 147<393 496.5 393 393>
VStem: 247.5 279.5<697 707 707 717 707 707 707 707>
Fore
393 829 m 2,0,1
 421 853 421 853 436 829 c 1,2,-1
 524 725 l 2,3,4
 530 717 530 717 527 707 c 128,-1,5
 524 697 524 697 517 689 c 1,6,7
 507 682 507 682 496.5 682 c 128,-1,8
 486 682 486 682 480 689 c 2,9,-1
 404 781 l 1,10,-1
 287 689 l 2,11,12
 278 682 278 682 267 682 c 128,-1,13
 256 682 256 682 252 689 c 1,14,15
 245 697 245 697 247.5 707 c 128,-1,16
 250 717 250 717 259 725 c 2,17,-1
 393 829 l 2,0,1
EndSplineSet
EndChar
StartChar: caron
Encoding: 711 711 204
Width: 472
VWidth: 1473
Flags: W
HStem: 719 147<307 412 307 307>
VStem: 276 280<831 841.5 841.5 852 841.5 841.5 841.5 841.5>
Fore
280 824 m 2,0,1
 274 831 274 831 276 841.5 c 128,-1,2
 278 852 278 852 287 859 c 256,3,4
 296 866 296 866 307 866 c 128,-1,5
 318 866 318 866 323 859 c 1,6,-1
 401 768 l 1,7,-1
 516 859 l 2,8,9
 526 866 526 866 536.5 866 c 128,-1,10
 547 866 547 866 552 859 c 256,11,12
 558 852 558 852 556 841.5 c 128,-1,13
 554 831 554 831 545 824 c 2,14,-1
 412 719 l 2,15,16
 387 697 387 697 370 719 c 2,17,-1
 280 824 l 2,0,1
EndSplineSet
EndChar
StartChar: breve
Encoding: 728 728 205
Width: 441
VWidth: 1473
Flags: W
HStem: 619 48<299.478 410.981>
VStem: 228 52<727.879 778> 492 52<723.683 778>
Fore
544 778 m 1,0,1
 536 745 536 745 517.5 716.5 c 128,-1,2
 499 688 499 688 473.5 666 c 128,-1,3
 448 644 448 644 417 631.5 c 128,-1,4
 386 619 386 619 352 619 c 0,5,6
 320 619 320 619 292.5 631.5 c 128,-1,7
 265 644 265 644 249.5 666 c 128,-1,8
 234 688 234 688 227.5 716.5 c 128,-1,9
 221 745 221 745 228 778 c 1,10,-1
 280 778 l 1,11,12
 270 728 270 728 292 697.5 c 128,-1,13
 314 667 314 667 362 667 c 0,14,15
 412 667 412 667 447 697.5 c 128,-1,16
 482 728 482 728 492 778 c 1,17,-1
 544 778 l 1,0,1
EndSplineSet
EndChar
StartChar: dotaccent
Encoding: 729 729 206
Width: 232
VWidth: 1473
Flags: W
HStem: 628 106<231.079 288.921>
VStem: 208 106<659.265 721.339>
Fore
208 681 m 0,0,1
 212 703 212 703 230.5 718.5 c 128,-1,2
 249 734 249 734 271 734 c 256,3,4
 293 734 293 734 305.5 718.5 c 128,-1,5
 318 703 318 703 314 681 c 0,6,7
 308 659 308 659 289.5 643.5 c 128,-1,8
 271 628 271 628 249 628 c 256,9,10
 227 628 227 628 214.5 643.5 c 128,-1,11
 202 659 202 659 208 681 c 0,0,1
EndSplineSet
EndChar
StartChar: ring
Encoding: 730 730 207
Width: 409
VWidth: 1473
Flags: W
HStem: 591 42<309.703 371.568> 722 44<320.715 391.093>
VStem: 264 172<642 646.5 708.5 713 678 678 678 678>
Fore
371 766 m 0,0,1
 405 766 405 766 424 739.5 c 128,-1,2
 443 713 443 713 436 678 c 256,3,4
 429 642 429 642 398.5 616.5 c 128,-1,5
 368 591 368 591 334 591 c 0,6,7
 296 591 296 591 276 616.5 c 128,-1,8
 256 642 256 642 264 678 c 256,9,10
 271 713 271 713 302 739.5 c 128,-1,11
 333 766 333 766 371 766 c 0,0,1
343 633 m 0,12,13
 359 633 359 633 375.5 646.5 c 128,-1,14
 392 660 392 660 395 678 c 0,15,16
 399 695 399 695 389 708.5 c 128,-1,17
 379 722 379 722 362 722 c 0,18,19
 342 722 342 722 325 708.5 c 128,-1,20
 308 695 308 695 303 678 c 0,21,22
 301 660 301 660 312 646.5 c 128,-1,23
 323 633 323 633 343 633 c 0,12,13
EndSplineSet
EndChar
StartChar: tilde
Encoding: 732 732 209
Width: 332
VWidth: 1473
Flags: W
HStem: 592 106<187 420 406.782 438.632> 599.5 51<355.411 381.942>
VStem: 420 34<676.581 698>
Fore
187 592 m 1,0,-1
 149 592 l 1,1,2
 155 617 155 617 168 639 c 128,-1,3
 181 661 181 661 199 675 c 128,-1,4
 217 689 217 689 238 693 c 128,-1,5
 259 697 259 697 284 685 c 0,6,7
 287 684 287 684 296.5 679.5 c 128,-1,8
 306 675 306 675 317.5 670.5 c 128,-1,9
 329 666 329 666 338.5 661.5 c 128,-1,10
 348 657 348 657 351 656 c 0,11,12
 367 648 367 648 378.5 650.5 c 128,-1,13
 390 653 390 653 398.5 660 c 128,-1,14
 407 667 407 667 412 677.5 c 128,-1,15
 417 688 417 688 420 698 c 1,16,-1
 454 698 l 1,17,18
 445 659 445 659 428 637.5 c 128,-1,19
 411 616 411 616 392 607 c 128,-1,20
 373 598 373 598 354.5 599.5 c 128,-1,21
 336 601 336 601 326 605 c 0,22,23
 321 607 321 607 311 612 c 128,-1,24
 301 617 301 617 289 622.5 c 128,-1,25
 277 628 277 628 267.5 632 c 128,-1,26
 258 636 258 636 256 638 c 1,27,28
 243 644 243 644 231.5 640 c 128,-1,29
 220 636 220 636 211 628 c 128,-1,30
 202 620 202 620 196 610 c 128,-1,31
 190 600 190 600 187 592 c 1,0,-1
EndSplineSet
EndChar
StartChar: uni0E01
Encoding: 3585 3585 212
Width: 717
VWidth: 1473
Flags: W
HStem: 0 21G<196 208 611 623> 541 57<383.566 606.026>
Fore
651 29 m 2,0,1
 648 18 648 18 638.5 9 c 128,-1,2
 629 0 629 0 617 0 c 256,3,4
 605 0 605 0 598 9 c 128,-1,5
 591 18 591 18 594 29 c 0,6,7
 619 149 619 149 632 213.5 c 128,-1,8
 645 278 645 278 653 308 c 0,9,10
 660 343 660 343 661 349 c 0,11,12
 684 455 684 455 638 498 c 128,-1,13
 592 541 592 541 492 541 c 0,14,15
 426 541 426 541 378 521.5 c 128,-1,16
 330 502 330 502 296 475.5 c 128,-1,17
 262 449 262 449 242 421 c 128,-1,18
 222 393 222 393 214 376 c 1,19,20
 225 368 225 368 245 356.5 c 128,-1,21
 265 345 265 345 283 334 c 1,22,23
 301 352 301 352 331 364 c 0,24,25
 343 368 343 368 352.5 363.5 c 128,-1,26
 362 359 362 359 365 348 c 256,27,28
 368 336 368 336 361 325.5 c 128,-1,29
 354 315 354 315 342 311 c 0,30,31
 321 303 321 303 308.5 290 c 128,-1,32
 296 277 296 277 288.5 263.5 c 128,-1,33
 281 250 281 250 278 240 c 128,-1,34
 275 230 275 230 275 228 c 0,35,36
 261 177 261 177 252 127 c 128,-1,37
 243 77 243 77 234 29 c 0,38,39
 231 18 231 18 222.5 9 c 128,-1,40
 214 0 214 0 202 0 c 256,41,42
 190 0 190 0 182 8 c 128,-1,43
 174 16 174 16 177 28 c 0,44,45
 184 75 184 75 193.5 125 c 128,-1,46
 203 175 203 175 220 231 c 1,47,48
 222 236 222 236 226 251.5 c 128,-1,49
 230 267 230 267 242 286 c 1,50,-1
 200 309 l 2,51,52
 162 333 162 333 152.5 342 c 128,-1,53
 143 351 143 351 149 367 c 1,54,55
 150 367 150 367 158 384.5 c 128,-1,56
 166 402 166 402 183 428 c 128,-1,57
 200 454 200 454 227.5 483.5 c 128,-1,58
 255 513 255 513 294.5 538.5 c 128,-1,59
 334 564 334 564 386 581 c 128,-1,60
 438 598 438 598 504 598 c 0,61,62
 633 598 633 598 690 538.5 c 128,-1,63
 747 479 747 479 719 348 c 2,64,-1
 651 29 l 2,0,1
EndSplineSet
EndChar
StartChar: uni0E02
Encoding: 3586 3586 213
Width: 620
VWidth: 1473
Flags: W
HStem: -4 51<273.105 460.524> 391 51.5<205.071 255.267> 544.5 64.5<247.811 294 294 320.191>
Fore
582 162 m 2,0,1
 561 69 561 69 498 32.5 c 128,-1,2
 435 -4 435 -4 346 -4 c 256,3,4
 258 -4 258 -4 216.5 38.5 c 128,-1,5
 175 81 175 81 194 169 c 0,6,7
 205 220 205 220 235 253.5 c 128,-1,8
 265 287 265 287 299 316.5 c 128,-1,9
 333 346 333 346 363 377 c 128,-1,10
 393 408 393 408 402 452 c 0,11,12
 407 473 407 473 402.5 500 c 128,-1,13
 398 527 398 527 373 539 c 1,14,15
 377 519 377 519 372 499 c 128,-1,16
 367 479 367 479 353.5 460.5 c 128,-1,17
 340 442 340 442 321.5 427 c 128,-1,18
 303 412 303 412 281 404 c 0,19,20
 259 393 259 393 237 391 c 128,-1,21
 215 389 215 389 196 395 c 128,-1,22
 177 401 177 401 163 413.5 c 128,-1,23
 149 426 149 426 144 446 c 0,24,25
 133 492 133 492 163.5 530.5 c 128,-1,26
 194 569 194 569 243 589.5 c 128,-1,27
 292 610 292 610 345.5 609 c 128,-1,28
 399 608 399 608 433 575 c 0,29,30
 476 532 476 532 460 452 c 0,31,32
 448 401 448 401 417.5 365 c 128,-1,33
 387 329 387 329 352.5 299.5 c 128,-1,34
 318 270 318 270 289.5 239.5 c 128,-1,35
 261 209 261 209 252 169 c 0,36,37
 239 105 239 105 264.5 76 c 128,-1,38
 290 47 290 47 357 47 c 0,39,40
 439 47 439 47 476 79.5 c 128,-1,41
 513 112 513 112 524 162 c 2,42,-1
 610 566 l 2,43,44
 613 577 613 577 622.5 586 c 128,-1,45
 632 595 632 595 644 595 c 256,46,47
 656 595 656 595 663 586 c 128,-1,48
 670 577 670 577 667 566 c 2,49,-1
 582 162 l 2,0,1
321 520 m 0,50,51
 315 541 315 541 294 544.5 c 128,-1,52
 273 548 273 548 247 538 c 0,53,54
 240 535 240 535 230.5 528.5 c 128,-1,55
 221 522 221 522 212 512 c 128,-1,56
 203 502 203 502 198 491 c 128,-1,57
 193 480 193 480 196 468 c 0,58,59
 202 443 202 443 225.5 442.5 c 128,-1,60
 249 442 249 442 270 451 c 0,61,62
 292 461 292 461 309 480 c 128,-1,63
 326 499 326 499 321 520 c 0,50,51
EndSplineSet
EndChar
